<?xml version="1.0" encoding="utf-8"?>
<!-- Generator: Adobe Illustrator 17.0.0, SVG Export Plug-In . SVG Version: 6.00 Build 0)  -->
<!DOCTYPE svg PUBLIC "-//W3C//DTD SVG 1.1//EN" "http://www.w3.org/Graphics/SVG/1.1/DTD/svg11.dtd">
<svg version="1.1" id="图层_1" xmlns="http://www.w3.org/2000/svg" xmlns:xlink="http://www.w3.org/1999/xlink" x="0px" y="0px"
	 width="512px" height="512px" viewBox="0 0 512 512" enable-background="new 0 0 512 512" xml:space="preserve">
<g>
	<g>
		<path fill="#040000" d="M202.005,381.855c6.254-7.786,8.297-10.849,12.508-19.018l8.169,3.063
			c-5.106,7.658-7.403,10.841-11.87,15.955h24.881c5.233,0,9.318-0.255,12.764-0.773v8.807c-3.701-0.503-7.276-0.766-12.764-0.766
			h-40.581c-1.531,4.467-3.447,9.19-5.488,12.891h31.136c3.957,0,7.02-0.135,11.742-0.51c-0.383,3.581-0.51,6.254-0.51,10.083
			v56.281c0,4.722,0.255,8.297,0.766,12.005h-8.807v-7.283h-63.931v7.283h-8.815c0.51-3.701,0.766-7.53,0.766-12.005v-56.281
			c0-3.573-0.128-6.382-0.51-10.083c4.73,0.383,7.913,0.518,11.878,0.518h17.614c2.426-4.34,3.957-7.914,5.488-12.891h-38.419
			c-5.488,0-8.935,0.256-12.764,0.766v-8.807c3.447,0.51,7.658,0.773,12.764,0.773h24.762c-2.936-5.361-6.255-9.836-11.36-15.452
			l7.53-3.191c5.743,7.027,8.169,10.474,12.508,18.635C181.463,381.855,202.005,381.855,202.005,381.855z M160.02,409.034v13.657
			h63.939v-13.657H160.02z M160.02,429.711v13.65h63.939v-13.65H160.02z M160.02,450.388v15.061h63.939v-15.061L160.02,450.388
			L160.02,450.388z"/>
		<path fill="#040000" d="M324.282,413.118c-0.638,2.808-0.766,4.978-0.893,9.19c-0.383,15.061-1.141,20.677-3.949,27.825
			c-4.85,12.373-15.061,21.06-30.498,25.52c-5.871,1.787-9.7,2.426-23.621,3.957c-1.141-3.581-2.034-5.233-4.332-8.297
			c16.202,0.135,27.817-2.298,36.76-7.779c8.033-4.722,12.373-10.339,14.671-18.635c1.531-5.225,2.426-12.891,2.426-20.67
			c0-4.978-0.255-7.666-0.893-11.105h10.331L324.282,413.118L324.282,413.118z M307.561,395.002
			c2.552-3.957,6.382-12.005,8.169-17.104h-36.753c-6.127,0-10.339,0.255-14.04,0.638v-8.551c3.447,0.51,7.53,0.766,14.04,0.766
			h82.318c6.509,0,10.977-0.248,14.168-0.766v8.551c-3.574-0.383-7.914-0.638-14.168-0.638h-36.759
			c-2.808,6.509-5.106,11.36-8.424,17.104h30.761c6.382,0,10.594-0.135,14.423-0.51c-0.383,3.063-0.51,6.637-0.51,12.636v33.944
			c0,7.276,0.135,10.977,0.638,14.168h-9.948c0.638-4.085,0.886-8.169,0.886-14.168v-39.305h-65.216v39.305
			c0,5.488,0.255,10.977,0.766,14.168h-9.948c0.638-4.085,0.886-8.169,0.886-14.168v-33.05c0-6.637-0.128-9.956-0.503-13.529
			c3.829,0.383,7.913,0.51,14.423,0.51C292.77,395.002,307.561,395.002,307.561,395.002z M370.096,480
			c-11.87-7.53-22.464-12.764-43.389-21.57l4.084-5.999c21.818,8.935,32.037,13.657,43.908,20.422L370.096,480z"/>
	</g>
	<g id="Home_2_">
		<g>
			<path fill="#040000" d="M381.276,124.313L260.41,33.353c-0.12-0.09-0.263-0.105-0.39-0.188c-0.436-0.293-0.901-0.473-1.389-0.661
				c-0.413-0.165-0.803-0.346-1.231-0.428c-0.473-0.09-0.939-0.075-1.426-0.075c-0.458,0-0.901-0.015-1.352,0.067
				c-0.451,0.082-0.856,0.27-1.291,0.443c-0.465,0.188-0.916,0.361-1.336,0.638c-0.128,0.082-0.277,0.098-0.398,0.188
				l-120.872,90.968c-3.229,2.433-3.881,7.027-1.449,10.256c1.441,1.915,3.642,2.921,5.856,2.921c1.531,0,3.078-0.48,4.399-1.472
				l18.966-14.273v124.41c0,28.763,7.5,37.999,35.235,37.999h124.536c27.727,0,38.02-9.235,38.02-37.999V123.848l16.173,12.17
				c1.321,0.991,2.868,1.472,4.399,1.472c2.223,0,4.422-1.006,5.856-2.921C385.157,131.334,384.511,126.738,381.276,124.313z
				 M283.039,269.497h-51.28v-62.174c0-7.276-1.396-7.418,6.667-7.418h35.16c8.056,0,9.453,0.143,9.453,7.418
				C283.039,207.322,283.039,269.497,283.039,269.497z M341.64,115.664v130.483c0,20.948-3.657,23.35-23.373,23.35h-27.906v-62.174
				c0-12.613-6.142-14.738-16.781-14.738h-35.16c-10.639,0-13.988,2.124-13.988,14.738v62.174h-30.693
				c-19.716,0-20.58-2.403-20.58-23.35V115.664c0-1.494-0.556-2.801-1.321-3.957l84.165-63.338l86.14,64.824
				C341.858,113.975,341.64,114.786,341.64,115.664z M236.272,85.512l-47.729,36.857c-0.908,0.69-0.736,1.764-0.736,2.906v41.662
				c0,2.02,1.637,3.664,3.664,3.664c2.019,0,3.664-1.644,3.664-3.664v-39.861l46.032-35.753c1.606-1.231,1.298-3.529,0.067-5.135
				C240.003,84.589,237.879,84.288,236.272,85.512z M191.472,177.928c-2.027,0-3.664,1.637-3.664,3.664v3.664
				c0,2.02,1.637,3.664,3.664,3.664c2.019,0,3.664-1.637,3.664-3.664v-3.664C195.135,179.572,193.491,177.928,191.472,177.928z"/>
		</g>
	</g>
</g>
</svg>
