<?xml version="1.0" encoding="utf-8"?>
<!-- Generator: Adobe Illustrator 17.0.0, SVG Export Plug-In . SVG Version: 6.00 Build 0)  -->
<!DOCTYPE svg PUBLIC "-//W3C//DTD SVG 1.1//EN" "http://www.w3.org/Graphics/SVG/1.1/DTD/svg11.dtd">
<svg version="1.1" id="图层_1" xmlns="http://www.w3.org/2000/svg" xmlns:xlink="http://www.w3.org/1999/xlink" x="0px" y="0px"
	 width="512px" height="512px" viewBox="0 0 512 512" enable-background="new 0 0 512 512" xml:space="preserve">
<g>
	<g>
		<path fill="#040000" d="M166.101,421.87c3.754-1.553,5.695-2.452,11.649-5.177l0.13,7.766c-5.566,2.588-7.119,3.365-11.778,5.307
			v39.857c0,3.624-0.777,5.824-2.718,7.249c-2.071,1.683-4.53,2.201-11.519,2.201c-2.847,0-5.436-0.137-8.672-0.259
			c-0.13-3.365-0.518-5.048-1.812-8.405c4.789,0.647,8.284,0.899,11.519,0.899c4.271,0,5.307-0.777,5.307-3.624v-34.809
			c-11.001,3.883-11.001,3.883-14.885,5.695l-2.33-9.06c4.141-0.389,7.249-1.294,17.215-4.652V396.77h-6.213
			c-3.883,0-6.731,0.137-9.699,0.647v-8.794c3.236,0.51,6.213,0.777,9.837,0.777h6.083v-12.425c0-5.824-0.259-9.578-0.777-13.073
			h9.448c-0.518,3.495-0.777,6.99-0.777,12.943v12.548h2.718c3.754,0,6.342-0.129,8.931-0.647v8.543
			c-2.46-0.388-5.048-0.518-8.931-0.518h-2.726L166.101,421.87L166.101,421.87z M235.857,433.001c4.141,0,6.213-0.129,8.413-0.51
			l4.918,5.177c-1.683,1.804-1.683,1.804-3.754,4.271c-6.213,7.773-11.778,12.814-20.838,18.768
			c11.649,5.695,20.709,8.672,34.688,11.26c-1.812,2.46-2.977,4.659-4.141,8.033c-15.662-3.754-27.303-8.284-37.916-14.755
			c-12.555,6.86-23.557,10.742-40.634,14.367c-1.553-3.746-2.071-4.53-4.659-7.5c16.179-2.588,25.879-5.436,38.175-11.519
			c-9.189-6.73-13.591-11.26-19.933-20.58H187.2c-4.271,0-6.601,0.129-9.578,0.518v-8.177c2.718,0.518,5.048,0.648,9.966,0.648
			h24.584v-12.296h-17.595c-4.918,0-8.672,0.129-12.167,0.51c0.259-2.977,0.389-6.601,0.389-11.641v-23.816
			c0-6.083-0.13-8.154-0.389-10.614c8.413-1.432,14.367-3.754,19.933-7.507l5.695,5.954c-6.472,3.098-11.26,4.789-17.732,6.593
			v12.943h6.601c4.659,0,7.119-0.129,9.837-0.518v7.385c-2.718-0.396-5.307-0.518-9.578-0.518h-6.86v14.489h21.874V376.05
			c0-5.299-0.259-8.672-0.777-12.167h9.061c-0.518,3.365-0.777,6.731-0.777,12.167v37.916h24.203v-14.23h-9.319
			c-4.271,0-6.731,0.13-9.448,0.51v-7.636c2.718,0.395,5.177,0.518,9.837,0.518h8.93v-13.073h-9.837
			c-3.883,0-6.342,0.129-8.931,0.518v-7.759c2.847,0.389,5.177,0.518,9.837,0.518h7.507c4.141,0,6.86-0.137,9.448-0.518
			c-0.389,3.236-0.518,6.083-0.518,11.649v25.11c0,5.558,0.129,8.284,0.518,11.641c-3.365-0.389-7.119-0.51-12.037-0.51h-20.192
			v12.289h16.172L235.857,433.001L235.857,433.001z M198.97,439.991c5.177,7.119,9.837,11.39,18.379,16.689
			c7.636-4.393,13.324-9.319,19.803-16.689H198.97z"/>
		<path fill="#040000" d="M323.232,372.306c0-2.985-0.259-6.212-0.906-9.06h9.837c-0.647,3.106-0.906,5.953-0.906,9.06v2.201h38.182
			c6.731,0,10.742-0.259,14.237-0.784v8.672c-3.495-0.388-8.025-0.647-14.237-0.647h-38.182v12.425h37.916
			c5.832,0,8.931-0.13,12.943-0.51c-0.388,2.977-0.518,4.141-0.518,7.766v8.802c0,3.624,0.137,5.947,0.518,8.405h-8.672v-17.336
			h-89.43v17.215h-8.672c0.389-2.588,0.518-4.918,0.518-8.154v-8.405c0-3.754-0.137-5.307-0.518-8.284
			c4.013,0.389,7.5,0.51,12.943,0.51h34.939v-12.425h-34.939c-6.601,0-10.484,0.137-14.237,0.647v-8.672
			c3.495,0.518,7.636,0.784,14.367,0.784h34.809v-2.208L323.232,372.306L323.232,372.306z M311.834,453.581
			c-9.578,10.484-17.077,15.92-31.315,22.772c-1.942-2.977-3.624-4.789-6.342-6.852c7.507-2.588,11.649-4.659,17.215-8.284
			c5.954-3.883,8.802-6.479,13.469-11.908L311.834,453.581z M299.804,446.454l-22.391,1.294l-0.899-7.241
			c6.852-0.647,10.614-1.431,18.372-3.883c4.789-1.431,4.789-1.431,23.557-10.096l-5.558,0.259
			c-1.165,0.13-13.073,0.777-14.885,0.906c-0.647,0-0.647,0-5.436,0.648c-0.388,0-1.165,0.129-2.33,0.129l-1.431-7.119
			c4.279-0.784,6.471-1.553,10.614-3.89c5.443-3.236,13.469-9.699,19.544-15.661l8.025,3.106
			c-10.347,8.672-13.591,11.001-22.772,16.438c18.76-0.648,21.219-0.784,26.526-1.294c7.378-4.4,10.872-6.738,19.026-12.555
			l5.947,5.307c-9.578,6.206-16.179,10.088-25.757,15.273c-8.931,4.651-15.395,7.5-28.346,12.167
			c38.312-1.942,40.383-2.201,61.221-4.53c-2.337-2.071-3.754-3.365-10.742-9.448l5.436-5.177
			c15.395,13.332,18.12,16.042,25.879,24.973l-5.824,6.213c-4.141-5.307-5.566-7.126-8.413-10.355
			c-8.535,1.035-17.215,1.683-35.974,2.847v24.584c0,4.538-0.784,6.86-2.718,8.284c-2.071,1.432-6.083,2.337-10.614,2.337
			c-1.942,0-3.89-0.137-9.327-0.518c-0.388-3.754-0.647-5.048-1.545-8.284c5.04,0.777,7.119,1.035,9.441,1.035
			c2.847,0,4.918-0.259,5.695-0.777c0.518-0.259,0.906-2.071,0.906-3.883v-22.247L299.804,446.454z M376.938,476.094
			c-11.519-8.535-17.732-12.167-31.97-19.156l4.538-6.206c16.042,7.895,20.451,10.347,32.221,18.12L376.938,476.094z"/>
	</g>
	<path fill="#040000" d="M377.928,276.952l-55.283-56.112c-0.091-0.091-0.214-0.122-0.305-0.206
		c18.737-20.039,30.294-46.877,30.294-76.479C352.635,82.219,302.423,32,240.479,32S128.323,82.212,128.323,144.156
		s50.211,112.156,112.156,112.156c12.433,0,24.356-2.102,35.533-5.84c4.203-2.353,4.02-7.073,4.02-7.073
		c-0.868-7.5-8.23-6.99-8.23-6.99l0.457-0.259c-9.974,3.449-20.633,5.406-31.779,5.406c-53.798,0-97.401-43.611-97.401-97.401
		s43.611-97.402,97.401-97.402s97.401,43.611,97.401,97.401c0,27.478-11.458,52.207-29.761,69.916l0.107,0.015
		c0,0-5.291,5.132-1.096,11.786l4.439,5.009c0.053-0.045,0.099-0.099,0.152-0.144c0.137,0.16,0.191,0.366,0.343,0.518l55.283,56.112
		c2.939,2.985,7.728,3.076,10.637,0.214C380.89,284.718,380.867,279.937,377.928,276.952z"/>
	<g>
		<path fill="#040000" d="M201.573,211.064c-24.203-13.727-39.232-39.507-39.232-67.289c0-2.048-1.66-3.708-3.708-3.708
			c-2.048,0-3.708,1.66-3.708,3.708c0,30.44,16.476,58.693,42.986,73.738c0.578,0.327,1.203,0.48,1.827,0.48
			c1.294,0,2.543-0.67,3.228-1.88C203.979,214.338,203.356,212.069,201.573,211.064z M221.795,221.221
			c-1.446-0.373-2.863-0.784-4.279-1.234c-1.964-0.625-4.036,0.457-4.659,2.406c-0.617,1.95,0.457,4.036,2.406,4.659
			c1.545,0.487,3.091,0.936,4.675,1.348c0.312,0.084,0.625,0.122,0.929,0.122c1.652,0,3.152-1.111,3.586-2.779
			C224.97,223.756,223.775,221.731,221.795,221.221z"/>
	</g>
</g>
</svg>
