<?xml version="1.0" encoding="utf-8"?>
<!-- Generator: Adobe Illustrator 17.0.0, SVG Export Plug-In . SVG Version: 6.00 Build 0)  -->
<!DOCTYPE svg PUBLIC "-//W3C//DTD SVG 1.1//EN" "http://www.w3.org/Graphics/SVG/1.1/DTD/svg11.dtd">
<svg version="1.1" id="图层_1" xmlns="http://www.w3.org/2000/svg" xmlns:xlink="http://www.w3.org/1999/xlink" x="0px" y="0px"
	 width="512px" height="512px" viewBox="0 0 512 512" enable-background="new 0 0 512 512" xml:space="preserve">
<g>
	<g>
		<path fill="#070001" d="M209.81,412.915c1.377,12.517,3.504,21.647,7.135,31.042c7.51-8.637,12.892-17.524,15.145-25.159
			l7.76,4.256c-1.502,2.128-2.628,3.873-4.006,6.384c-4.381,8.129-9.513,15.514-15.27,22.023
			c5.632,10.89,13.142,19.652,16.648,19.652c2.378,0,4.256-6.009,6.259-19.652c2.628,2.754,4.131,3.881,6.759,5.382
			C246.986,474.61,243.981,480,237.723,480c-6.509,0-15.02-8.512-22.907-22.781c-9.513,8.887-18.267,14.52-32.043,20.904
			c-1.627-2.754-2.754-4.256-5.757-6.891c14.645-5.632,24.533-11.766,34.289-21.146c-4.631-10.89-7.885-23.407-9.513-37.175h-30.152
			v20.277c9.263-2.378,12.642-3.379,22.398-6.759l0.375,7.385c-12.016,3.873-16.022,5.132-22.781,6.884v30.04
			c0,6.509-2.628,8.637-11.015,8.637c-4.131,0-8.762-0.25-13.894-0.626c-0.25-3.254-0.751-5.507-2.003-8.637
			c7.01,1.001,11.391,1.377,15.647,1.377c2.754,0,3.379-0.493,3.379-2.754v-26.163c-12.267,3.004-13.644,3.379-17.649,4.138
			c-2.879,0.626-4.256,0.876-6.509,1.745l-2.128-8.637c4.256,0,10.139-1.119,26.286-4.756v-22.155h-13.135
			c-5.257,0-9.263,0.25-12.885,0.751v-8.637c3.254,0.501,7.26,0.759,12.885,0.759h13.142v-19.526
			c-9.138,2.378-12.517,3.137-20.904,4.506c-0.876-2.503-1.878-4.506-3.504-6.884c19.151-2.26,41.424-8.637,48.559-14.019
			l4.756,7.01c-0.751,0.25-0.751,0.25-2.253,0.751c-0.501,0.132-0.501,0.132-3.254,1.126c-5.883,2.253-10.89,4.006-15.521,5.382
			v21.647h29.54c-0.751-9.38-0.876-11.007-1.126-25.527c-0.125-4.631-0.25-6.259-0.751-9.263h9.513
			c-0.626,2.879-0.751,5.132-0.751,12.016c0,7.51,0.25,14.395,1.001,22.781h27.655c5.257,0,8.887-0.25,12.517-0.759v8.637
			c-3.63-0.493-7.635-0.751-12.892-0.751h-26.53V412.915z M222.452,373.612c7.76,6.634,12.885,12.016,19.018,20.152l-6.008,5.132
			c-6.134-8.394-9.763-12.65-18.651-21.154L222.452,373.612z"/>
		<path fill="#070001" d="M296.427,388.257c6.259-0.125,9.888-0.25,11.015-0.375c-0.25,3.247-0.375,6.509-0.375,11.015v63.697
			c0,5.64,0.25,9.888,0.626,12.892h-8.261v-8.011h-24.401v11.015h-8.386c0.5-3.254,0.626-7.885,0.626-15.27v-63.454
			c0-5.883-0.125-8.754-0.5-11.884c2.628,0.25,4.882,0.375,11.14,0.375h2.503c2.503-6.134,4.381-12.392,5.382-18.893l8.887,1.745
			c-2.253,6.759-4.506,13.025-6.384,17.148C288.299,388.257,296.427,388.257,296.427,388.257z M275.031,423.053h24.401V395.14
			h-24.401V423.053z M275.031,460.472h24.401v-30.534h-24.401V460.472z M361.516,388.131c5.007,0,8.512-0.132,11.015-0.5
			c-0.375,2.253-0.375,3.254-0.5,7.885c-1.126,49.553-2.754,66.333-7.26,76.339c-2.503,5.757-6.509,8.011-14.019,8.011
			c-4.506,0-8.136-0.243-15.897-0.869c-0.25-3.629-0.751-5.757-2.128-8.887c7.635,1.502,13.268,2.128,17.774,2.128
			c4.631,0,6.259-1.126,7.885-5.132c2.128-5.757,3.755-17.774,4.631-34.54c0.626-10.013,0.751-18.651,0.876-37.043h-36.048
			c-4.256,8.637-7.885,14.388-14.395,22.774c-1.628-2.12-3.881-4.248-6.008-5.632c7.635-8.129,13.769-18.776,18.4-31.536
			c1.753-4.756,3.004-9.388,3.254-12.141l8.637,1.634c-0.375,0.751-1.001,2.503-1.753,4.757c-1.502,4.381-2.754,7.76-4.757,12.767
			h30.292L361.516,388.131L361.516,388.131z M341.614,447.079c-7.01-15.02-11.766-22.899-19.026-31.668l6.384-3.873
			c7.885,9.506,13.142,17.767,19.777,31.16L341.614,447.079z"/>
	</g>
	<g>
		<g>
			<path fill="#070001" d="M255.96,282.208c-33.973,0-67.952-0.486-101.903,0.258c-12.45,0.272-16.103-4.86-13.864-15.683
				c4.484-21.684,12.848-41.491,28.871-57.52c4.778-4.778,8.172-6.626,14.041-0.957c26.116,25.226,58.675,30.439,92.692,25.822
				c18.841-2.555,37.235-9.513,51.018-24.349c5.897-6.354,10.934-6.553,17.244,0.28c15.005,16.243,23.274,35.585,27.743,56.768
				c2.297,10.912-1.591,15.904-13.938,15.639C323.906,281.737,289.926,282.208,255.96,282.208z M256.034,272.216
				c31.771,0,63.549-0.346,95.305,0.199c10.323,0.177,12.804-4.396,10.072-12.687c-3.799-11.523-7.945-22.95-15.352-32.972
				c-6.266-8.482-11.663-11.266-21.309-3.63c-17.993,14.256-39.655,20.124-62.163,21.633c-27.523,1.848-53.197-5.228-75.36-21.691
				c-9.815-7.297-15.05-4.823-21.353,3.704c-7.422,10.043-11.479,21.493-15.293,33.015c-2.768,8.379-0.088,12.812,10.139,12.642
				C192.485,271.9,224.263,272.231,256.034,272.216z"/>
			<path fill="#070001" d="M153.13,284.682c-6.436,0-10.787-1.502-13.305-4.602c-2.488-3.055-3.077-7.547-1.796-13.746
				c5.11-24.725,14.748-43.906,29.466-58.639c2.474-2.474,5.419-5.11,9.041-5.11c2.614,0,5.19,1.311,8.107,4.131
				c22.98,22.207,52.483,30.402,90.852,25.225c21.044-2.857,37.757-10.816,49.7-23.664c6.965-7.518,13.371-7.43,20.484,0.287
				c14.026,15.175,23.282,34.083,28.281,57.814c1.296,6.134,0.714,10.602-1.774,13.666c-2.533,3.122-6.928,4.646-13.43,4.646
				l-0.942-0.015c-12.87-0.272-26.889-0.405-44.119-0.405c-9.623,0-19.239,0.037-28.856,0.081
				c-19.136,0.073-38.257,0.066-57.387-0.007c-9.756-0.044-19.505-0.081-29.253-0.081c-17.2,0-31.211,0.132-44.089,0.412
				L153.13,284.682z M176.537,207.01c-1.738,0-3.622,1.524-5.912,3.814c-14.093,14.108-23.334,32.559-28.267,56.408
				c-0.994,4.815-0.707,8.114,0.891,10.065c1.627,1.995,4.86,2.967,9.881,2.967l0.884-0.007c12.907-0.28,26.948-0.42,44.185-0.42
				c9.756,0,19.512,0.044,29.268,0.088c19.114,0.074,38.229,0.088,57.357,0c9.623-0.037,19.254-0.073,28.878-0.073
				c17.266,0,31.314,0.125,44.214,0.405l0.854,0.007c5.088,0,8.364-0.987,9.999-3.004c1.591-1.966,1.878-5.228,0.884-9.977
				c-4.838-22.914-13.732-41.144-27.206-55.715c-5.338-5.787-8.784-5.92-14.004-0.28c-12.649,13.622-30.254,22.038-52.335,25.027
				c-39.782,5.42-70.522-3.232-94.518-26.418C179.563,207.953,177.913,207.01,176.537,207.01z M160.154,274.639
				c-5.552,0-9.218-1.347-11.221-4.123c-1.951-2.695-2.091-6.436-0.442-11.427c3.946-11.928,8.114-23.481,15.609-33.634
				c3.247-4.403,7.348-8.902,13.084-8.902c3.394,0,7.01,1.509,11.361,4.742c21.426,15.912,46.489,23.12,73.894,21.264
				c25.167-1.686,45.098-8.607,60.944-21.161c4.196-3.321,7.893-4.94,11.302-4.94c5.736,0,9.866,4.543,13.157,8.991
				c7.65,10.345,11.935,22.265,15.676,33.589c1.664,5.036,1.516,8.791-0.434,11.494c-1.995,2.761-5.64,4.101-11.154,4.101
				l-0.619-0.007c-22.84-0.39-45.672-0.324-68.512-0.243c-8.924,0.022-17.84,0.052-26.764,0.052h-2.069
				c-8.445,0-16.883-0.022-25.329-0.044c-22.612-0.059-45.245-0.118-67.872,0.25L160.154,274.639L160.154,274.639z M177.185,220.97
				c-3.041,0-5.802,2.061-9.528,7.113c-7.113,9.631-11.14,20.822-14.969,32.397c-1.156,3.504-1.214,6.001-0.17,7.458
				c1.097,1.509,3.667,2.283,7.643,2.283c23.495-0.383,45.834-0.332,68.482-0.25c8.438,0.022,16.876,0.044,25.322,0.044h2.069
				c8.916,0,17.833-0.03,26.75-0.059c22.869-0.081,45.739-0.14,68.601,0.25c0.015,0,0.03,0,0.044,0c4.448,0,6.988-0.766,8.07-2.268
				c1.053-1.443,0.987-3.976-0.177-7.518c-3.777-11.442-7.768-22.523-15.035-32.345c-6.678-9.041-10.492-9.292-18.157-3.217
				c-16.567,13.121-37.301,20.359-63.395,22.111c-28.451,1.878-54.53-5.581-76.825-22.126
				C182.405,222.237,179.556,220.97,177.185,220.97z"/>
		</g>
		<g>
			<path fill="#070001" d="M351.024,128.58c-2.143,53.314-40.143,94.445-94.423,94.695c-55.148,0.257-93.766-40.437-95.099-92.273
				c-1.421-55.134,40.474-96.006,93.332-96.778C307.928,33.436,349.072,74.366,351.024,128.58z M255.843,213.946
				c46.674,2.098,84.218-38.788,85.675-81.434c1.796-52.873-41.439-88.841-84.703-89.224c-45.731-0.397-87.413,37.779-86.411,87.641
				C171.272,174.12,209.191,216.052,255.843,213.946z"/>
			<path fill="#070001" d="M256.079,225.477c-54.67,0-95.38-39.708-96.793-94.415c-0.685-26.588,8.622-51.312,26.212-69.624
				c17.84-18.577,42.455-29.025,69.3-29.423L256.344,32c53.249,0,94.901,41.491,96.889,96.499
				c-2.246,56.01-42.882,96.734-96.624,96.978H256.079z M256.344,36.426l-1.48,0.007c-25.652,0.375-49.155,10.345-66.178,28.06
				c-16.758,17.458-25.63,41.056-24.982,66.451c1.346,52.218,40.193,90.115,92.374,90.115v2.208l0.508-2.208
				c51.298-0.235,90.078-39.171,92.228-92.567C346.922,76.075,307.17,36.426,256.344,36.426z M259.304,216.236
				c-1.149,0-2.297-0.022-3.454-0.081c-45.37,2.04-86.713-38.604-87.655-85.182c-0.479-23.657,8.445-46.055,25.13-63.078
				c16.706-17.038,39.583-26.823,62.777-26.823l0.736,0.007c23.304,0.199,46.195,10.264,62.799,27.597
				c16.361,17.075,24.916,39.767,24.091,63.911C342.188,177.927,303.525,216.236,259.304,216.236z M255.843,211.73l0.103,0.007
				c1.119,0.052,2.238,0.081,3.357,0.081c37.338,0,78.394-31.896,80.005-79.373c0.78-22.943-7.341-44.501-22.862-60.707
				C300.654,55.26,278.919,45.695,256.8,45.504h-0.699c-22.008,0-43.743,9.292-59.625,25.49
				c-15.837,16.154-24.32,37.426-23.871,59.89c0.899,44.236,39.995,82.9,83.142,80.852L255.843,211.73z"/>
		</g>
		<g>
			<path fill="#070001" d="M230.5,186.534c-23.407-13.275-37.942-38.207-37.942-65.074c0-1.981-1.605-3.586-3.586-3.586
				s-3.586,1.605-3.586,3.586c0,29.437,15.934,56.761,41.571,71.31c0.56,0.317,1.164,0.464,1.767,0.464
				c1.252,0,2.46-0.648,3.122-1.818C232.826,189.7,232.223,187.506,230.5,186.534z M250.056,196.356
				c-1.399-0.36-2.768-0.759-4.138-1.193c-1.9-0.604-3.902,0.442-4.506,2.327c-0.597,1.885,0.442,3.902,2.327,4.506
				c1.494,0.472,2.989,0.906,4.521,1.303c0.302,0.081,0.604,0.118,0.899,0.118c1.598,0,3.048-1.075,3.468-2.687
				C253.126,198.808,251.97,196.849,250.056,196.356z"/>
		</g>
		<g>
			<g>
				<path fill="#070001" d="M249.157,205.612c-0.545,0-1.038-0.066-1.509-0.199c-1.509-0.383-3.048-0.817-4.58-1.311
					c-3.041-0.972-4.727-4.234-3.769-7.275c0.964-3.004,4.308-4.735,7.29-3.762c1.318,0.42,2.658,0.795,4.02,1.156
					c1.487,0.383,2.747,1.326,3.527,2.65c0.788,1.34,1.009,2.901,0.619,4.403C254.112,203.829,251.808,205.612,249.157,205.612z
					 M245.02,197.261c-0.876,0-1.333,0.368-1.502,0.899c-0.228,0.722,0.177,1.494,0.899,1.723c1.451,0.457,2.908,0.884,4.388,1.259
					l0.354,0.052c0.626,0,1.171-0.427,1.326-1.024c0.095-0.368,0.044-0.736-0.147-1.053c-0.184-0.317-0.479-0.537-0.832-0.626
					c-1.451-0.383-2.85-0.788-4.256-1.229C245.174,197.261,245.093,197.261,245.02,197.261z M228.732,195.443
					c-1.001,0-1.988-0.258-2.857-0.759c-26.337-14.932-42.69-43-42.69-73.224c0-3.202,2.599-5.794,5.794-5.794
					c3.195,0,5.794,2.599,5.794,5.794c0,26.072,14.115,50.267,36.822,63.152c1.34,0.759,2.312,1.995,2.724,3.49
					c0.412,1.494,0.221,3.055-0.545,4.41C232.745,194.324,230.817,195.443,228.732,195.443z M188.972,120.083
					c-0.759,0-1.377,0.619-1.377,1.384c0,28.649,15.499,55.23,40.459,69.388c0.662,0.361,1.516,0.118,1.878-0.522
					c0.177-0.317,0.221-0.685,0.125-1.046c-0.103-0.353-0.324-0.648-0.64-0.824c-24.098-13.659-39.067-39.333-39.067-66.996
					C190.35,120.702,189.731,120.083,188.972,120.083z"/>
			</g>
		</g>
	</g>
</g>
</svg>
