<?xml version="1.0" encoding="utf-8"?>
<!-- Generator: Adobe Illustrator 17.0.0, SVG Export Plug-In . SVG Version: 6.00 Build 0)  -->
<!DOCTYPE svg PUBLIC "-//W3C//DTD SVG 1.1//EN" "http://www.w3.org/Graphics/SVG/1.1/DTD/svg11.dtd">
<svg version="1.1" id="图层_1" xmlns="http://www.w3.org/2000/svg" xmlns:xlink="http://www.w3.org/1999/xlink" x="0px" y="0px"
	 width="512px" height="512px" viewBox="0 0 512 512" enable-background="new 0 0 512 512" xml:space="preserve">
<g>
	<path fill="#070001" d="M311.394,367.036H200.618c-8.24,0-14.931,6.687-14.931,14.934c0,8.247,6.69,14.932,14.931,14.932h110.776
		c8.241,0,14.937-6.685,14.937-14.932C326.332,373.723,319.634,367.036,311.394,367.036z"/>
	<path fill="#070001" d="M226.971,455.238v8.136c0,9.183,7.435,16.627,16.624,16.627h24.821c9.171,0,16.625-7.444,16.625-16.627
		v-8.136c18.812-1.336,33.707-16.86,33.707-36.007H193.252C193.252,438.378,208.158,453.901,226.971,455.238z"/>
	<path fill="#070001" d="M256.009,32c-82.66,0-149.672,67.005-149.672,149.664c0,34.878,11.998,66.895,32.039,92.316
		c17.722,22.465,34.52,47.022,48.998,71.72H324.62c14.627-24.93,31.121-49.029,49.018-71.736
		c20.022-25.41,32.026-57.431,32.026-92.3C405.663,99.005,338.652,32,256.009,32z M256.257,83.925
		c-53.133,0-96.34,43.212-96.34,96.33c0,8.247-6.678,14.935-14.937,14.935c-8.254,0-14.932-6.687-14.932-14.935
		c0-69.584,56.612-126.197,126.209-126.197c8.235,0,14.932,6.685,14.932,14.931C271.189,77.238,264.492,83.925,256.257,83.925z"/>
</g>
</svg>
