<?xml version="1.0" encoding="utf-8"?>
<!-- Generator: Adobe Illustrator 17.0.0, SVG Export Plug-In . SVG Version: 6.00 Build 0)  -->
<!DOCTYPE svg PUBLIC "-//W3C//DTD SVG 1.1//EN" "http://www.w3.org/Graphics/SVG/1.1/DTD/svg11.dtd">
<svg version="1.1" id="图层_1" xmlns="http://www.w3.org/2000/svg" xmlns:xlink="http://www.w3.org/1999/xlink" x="0px" y="0px"
	 width="512px" height="512px" viewBox="0 0 512 512" enable-background="new 0 0 512 512" xml:space="preserve">
<g>
	<g>
		<path fill="#070001" d="M451.999,102.001V445H60V102.001H451.999 M455.404,74h-392C47.941,74,32,88.24,32,103.703v342.999
			C32,462.164,47.941,473,63.404,473h392C470.866,473,480,462.164,480,446.702V103.703C479.999,88.24,470.866,74,455.404,74
			L455.404,74z"/>
	</g>
	<g>
		<path fill="#070001" d="M451.999,186H39c-3.869,0-7-3.135-7-7c0-3.865,3.131-7,7-7h412.999c3.869,0,7,3.135,7,7
			C458.999,182.865,455.868,186,451.999,186z"/>
	</g>
	<path fill="#070001" d="M255.049,342.543h-76.269c1.477-26.913,14.525-36.483,34.835-49.198
		c12.544-7.923,27.898-16.509,27.898-33.509c0-13.037-9.249-22.121-22.621-22.121c-17.5,0-22.449,14.854-22.777,29.387h-14.205
		v-3.145c0-23.105,15.026-38.459,37.639-38.459c22.12,0,36.49,13.371,36.49,34.002c0,22.791-17.828,33.681-35,44.078
		c-10.732,6.44-22.942,13.05-26.087,26.257h60.094L255.049,342.543L255.049,342.543z"/>
	<path fill="#070001" d="M349.693,239.696c-22.614,25.751-39.95,58.44-44.741,102.847H289.44
		c2.632-37.31,21.124-74.129,45.897-101.527h-61.25v-13.372h75.606L349.693,239.696L349.693,239.696z"/>
	<g>
		<path fill="#070001" d="M424,431h-49c-3.869,0-7-3.131-7-7s3.131-7,7-7h42v-56c0-3.865,3.131-7,7-7c3.869,0,7,3.135,7,7v63
			C431,427.869,427.868,431,424,431z"/>
	</g>
	<g>
		<path fill="#070001" d="M347,431h-14c-3.869,0-7-3.131-7-7s3.131-7,7-7h14c3.869,0,7,3.131,7,7S350.868,431,347,431z"/>
	</g>
	<g>
		<path fill="#070001" d="M123,130c-7.731,0-14-6.268-14-14V53c0-7.731,6.268-14,14-14s14,6.268,14,14v63
			C137,123.732,130.731,130,123,130z"/>
	</g>
	<g>
		<path fill="#070001" d="M374.999,130c-7.731,0-14-6.268-14-14V53c0-7.731,6.268-14,14-14c7.731,0,14,6.268,14,14v63
			C388.999,123.732,382.731,130,374.999,130z"/>
	</g>
	<g>
		<path fill="#070001" d="M312,130c-7.731,0-14-6.268-14-14V53c-0.001-7.731,6.268-14,14-14c7.731,0,14,6.268,14,14v63
			C326,123.732,319.73,130,312,130z"/>
	</g>
	<g>
		<path fill="#070001" d="M249,130c-7.731,0-14-6.268-14-14V53c0-7.731,6.268-14,14-14c7.731,0,14,6.268,14,14v63
			C262.999,123.732,256.731,130,249,130z"/>
	</g>
	<g>
		<path fill="#070001" d="M185.999,130c-7.731,0-14-6.268-14-14V53c0-7.731,6.268-14,14-14s14,6.268,14,14v63
			C200,123.732,193.731,130,185.999,130z"/>
	</g>
</g>
</svg>
