<?xml version="1.0" encoding="utf-8"?>
<!-- Generator: Adobe Illustrator 17.0.0, SVG Export Plug-In . SVG Version: 6.00 Build 0)  -->
<!DOCTYPE svg PUBLIC "-//W3C//DTD SVG 1.1//EN" "http://www.w3.org/Graphics/SVG/1.1/DTD/svg11.dtd">
<svg version="1.1" id="图层_1" xmlns="http://www.w3.org/2000/svg" xmlns:xlink="http://www.w3.org/1999/xlink" x="0px" y="0px"
	 width="512px" height="512px" viewBox="0 0 512 512" enable-background="new 0 0 512 512" xml:space="preserve">
<g id="Refresh_2_">
	<g>
		<path fill="#070001" d="M256,32C132.483,32,31.997,132.486,31.997,256.003C31.997,379.514,132.483,480,256,480
			c123.518,0,224.003-100.486,224.003-223.997C480.004,132.486,379.519,32,256,32z M256,452.415
			c-108.304,0-196.418-88.107-196.418-196.412S147.696,59.584,256,59.584s196.419,88.114,196.419,196.419
			S364.305,452.415,256,452.415z M256,147.524c-59.419,0-107.823,48.021-108.464,107.291l-21.337,7.7
			c-4.957,1.791-8.466,5.913-9.382,11.032c-1.05,5.832,1.273,11.966,6.156,16.095l47.094,38.38c2.964,2.498,6.276,3.825,9.577,3.825
			c6.654,0,11.867-5.098,13.253-12.795l12.231-58.732c0.922-5.165-0.499-10.607-3.798-14.553c-4.007-4.795-10.405-6.6-16.176-4.525
			l-23.629,8.527c3.222-49.317,44.359-88.452,94.476-88.452c52.213,0,94.688,42.474,94.688,94.687
			c0,52.206-42.475,94.681-94.688,94.681c-3.811,0-6.896,3.084-6.896,6.896c0,3.812,3.084,6.896,6.896,6.896
			c59.817,0,108.48-48.663,108.48-108.473C364.48,196.186,315.817,147.524,256,147.524z M190.124,254.145
			c0.094,0,0.343,0.127,0.633,0.477c0.525,0.627,1.044,1.859,0.835,3.078l-12.231,58.719c-0.081,0.472-0.188,0.849-0.296,1.145
			c-0.061-0.047-0.129-0.102-0.195-0.162l-47.088-38.373c-1.104-0.936-1.535-2.236-1.387-3.044c0.04-0.236,0.06-0.343,0.491-0.499
			L190.124,254.145z M301.835,88.698c-3.63-0.977-7.462,1.158-8.472,4.836c-1.004,3.676,1.159,7.467,4.835,8.471
			c69.142,18.904,117.436,82.229,117.436,153.998c0,3.812,3.084,6.896,6.896,6.896s6.896-3.084,6.896-6.896
			C429.428,178.031,376.959,109.238,301.835,88.698z M256,96.361c2.984,0,5.961,0.08,8.917,0.243
			c0.128,0.013,0.255,0.013,0.384,0.013c3.637,0,6.681-2.849,6.875-6.519c0.209-3.806-2.7-7.058-6.505-7.26
			c-3.213-0.175-6.432-0.27-9.671-0.27c-3.811,0-6.896,3.085-6.896,6.896C249.105,93.277,252.189,96.361,256,96.361z"/>
	</g>
</g>
</svg>
