<?xml version="1.0" encoding="utf-8"?>
<!-- Generator: Adobe Illustrator 17.0.0, SVG Export Plug-In . SVG Version: 6.00 Build 0)  -->
<!DOCTYPE svg PUBLIC "-//W3C//DTD SVG 1.1//EN" "http://www.w3.org/Graphics/SVG/1.1/DTD/svg11.dtd">
<svg version="1.1" id="图层_1" xmlns="http://www.w3.org/2000/svg" xmlns:xlink="http://www.w3.org/1999/xlink" x="0px" y="0px"
	 width="512px" height="512px" viewBox="0 0 512 512" enable-background="new 0 0 512 512" xml:space="preserve">
<path fill="#070001" d="M462.557,63.426C451.29,52.152,436.309,45.95,420.374,45.95c-15.934,0-30.916,6.201-42.184,17.476
	c-0.405,0.405-0.786,0.839-1.131,1.297L182.92,323.29l-49.38-43.333c-11.232-11.083-26.095-17.177-41.887-17.177
	c-15.935,0-30.917,6.202-42.184,17.469C38.202,291.512,32,306.493,32,322.427c0,15.934,6.202,30.916,17.833,42.535l90.951,83.659
	c11.238,11.238,26.208,17.428,42.16,17.428c0.619,0,1.232-0.012,1.851-0.03c16.554,0.441,32.303-5.739,43.969-17.393
	c0.357-0.363,0.697-0.744,1.006-1.142l233.354-300.269C485.814,123.907,485.623,86.491,462.557,63.426z M418.39,176.461
	l-69.378,89.038c-1.391,1.792-3.424,2.79-5.519,2.926c-1.799,0.117-3.646-0.398-5.179-1.597c-3.325-2.584-3.919-7.381-1.328-10.699
	l69.378-89.038c2.582-3.331,7.38-3.927,10.698-1.328C420.387,168.347,420.981,173.144,418.39,176.461z M449.51,131.801
	l-14.468,19.953c-1.383,1.918-3.492,2.996-5.684,3.138c-1.709,0.111-3.463-0.35-4.959-1.44c-3.414-2.473-4.171-7.237-1.698-10.644
	l14.468-19.954c2.466-3.406,7.236-4.179,10.644-1.698C451.226,123.629,451.983,128.394,449.51,131.801z"/>
</svg>
