<?xml version="1.0" encoding="utf-8"?>
<!-- Generator: Adobe Illustrator 17.0.0, SVG Export Plug-In . SVG Version: 6.00 Build 0)  -->
<!DOCTYPE svg PUBLIC "-//W3C//DTD SVG 1.1//EN" "http://www.w3.org/Graphics/SVG/1.1/DTD/svg11.dtd">
<svg version="1.1" id="图层_1" xmlns="http://www.w3.org/2000/svg" xmlns:xlink="http://www.w3.org/1999/xlink" x="0px" y="0px"
	 width="512px" height="512px" viewBox="0 0 512 512" enable-background="new 0 0 512 512" xml:space="preserve">
<path fill="#070001" d="M458.691,352.815l-99.831-99.84l93.781-93.79c13.737-13.73,21.308-31.995,21.308-51.423
	c0-19.427-7.571-37.695-21.308-51.423c-13.729-13.739-31.996-21.309-51.424-21.309c-19.437,0-37.694,7.571-51.424,21.308
	l-93.789,93.781l-93.79-93.781c-13.729-13.738-31.996-21.308-51.423-21.308c-19.437,0-37.695,7.571-51.432,21.308
	C45.621,70.066,38.05,88.333,38.05,107.761c0,19.429,7.571,37.694,21.309,51.423l93.781,93.79l-99.823,99.832
	C39.571,366.544,32,384.802,32,404.238c0,19.429,7.571,37.695,21.308,51.425c13.738,13.737,31.997,21.308,51.424,21.308
	c19.428,0,37.695-7.572,51.425-21.308l99.848-99.83l99.84,99.83c13.73,13.737,31.995,21.308,51.423,21.308
	s37.694-7.572,51.424-21.308C472.43,441.933,480,423.667,480,404.238C479.999,384.802,472.429,366.544,458.691,352.815z
	 M404.978,133.967l17.91-17.911c3.299-3.298,8.642-3.298,11.94,0c3.298,3.298,3.298,8.641,0,11.94l-17.911,17.911
	c-1.65,1.649-3.81,2.473-5.97,2.473c-2.16,0-4.321-0.824-5.97-2.473C401.679,142.609,401.679,137.265,404.978,133.967z
	 M333.327,229.498c-1.649,1.649-3.81,2.473-5.97,2.473c-2.16,0-4.321-0.824-5.971-2.473c-3.298-3.299-3.298-8.642,0-11.94
	l59.702-59.701c3.298-3.298,8.641-3.298,11.94,0c3.298,3.298,3.298,8.641,0,11.94L333.327,229.498z"/>
</svg>
