<?xml version="1.0" encoding="utf-8"?>
<!-- Generator: Adobe Illustrator 17.0.0, SVG Export Plug-In . SVG Version: 6.00 Build 0)  -->
<!DOCTYPE svg PUBLIC "-//W3C//DTD SVG 1.1//EN" "http://www.w3.org/Graphics/SVG/1.1/DTD/svg11.dtd">
<svg version="1.1" id="图层_1" xmlns="http://www.w3.org/2000/svg" xmlns:xlink="http://www.w3.org/1999/xlink" x="0px" y="0px"
	 width="512px" height="512px" viewBox="0 0 512 512" enable-background="new 0 0 512 512" xml:space="preserve">
<path fill="#040000" d="M256,0C114.615,0,0,114.615,0,256s114.615,256,256,256s256-114.615,256-256S397.385,0,256,0z
	 M385.336,383.403C376.576,392.169,364.92,397,352.523,397s-24.052-4.831-32.813-13.597l-63.707-63.701l-63.712,63.701
	C183.53,392.169,171.874,397,159.477,397c-12.397,0-24.047-4.831-32.813-13.597c-8.766-8.761-13.596-20.417-13.596-32.814
	c0-12.402,4.831-24.052,13.602-32.818l63.696-63.702l-59.841-59.847c-8.766-8.761-13.597-20.416-13.597-32.813
	c0-12.397,4.831-24.053,13.597-32.813C139.29,119.831,150.94,115,163.343,115c12.397,0,24.053,4.831,32.813,13.597l59.846,59.841
	l59.846-59.841C324.61,119.831,336.26,115,348.663,115c12.397,0,24.053,4.831,32.813,13.597c8.765,8.76,13.596,20.417,13.596,32.813
	c0,12.397-4.831,24.052-13.596,32.813l-59.841,59.847l63.702,63.707c8.766,8.761,13.597,20.411,13.597,32.813
	C398.933,362.987,394.102,374.642,385.336,383.403z"/>
</svg>
