<?xml version="1.0" encoding="utf-8"?>
<!-- Generator: Adobe Illustrator 17.0.0, SVG Export Plug-In . SVG Version: 6.00 Build 0)  -->
<!DOCTYPE svg PUBLIC "-//W3C//DTD SVG 1.1//EN" "http://www.w3.org/Graphics/SVG/1.1/DTD/svg11.dtd">
<svg version="1.1" id="图层_1" xmlns="http://www.w3.org/2000/svg" xmlns:xlink="http://www.w3.org/1999/xlink" x="0px" y="0px"
	 width="512px" height="512px" viewBox="0 0 512 512" enable-background="new 0 0 512 512" xml:space="preserve">
<path fill="#070001" d="M427.55,244.973c0-31.985-43.99-57.023-100.149-57.023c-15.382,0-29.784,1.941-42.686,5.317v-43.762
	c0-0.538-0.081-1.044-0.163-1.566c0.032-0.62,0.163-1.207,0.163-1.827V89.023c0-31.97-43.975-57.023-100.133-57.023
	S84.433,57.054,84.433,89.023v57.072c0,0.636,0.13,1.223,0.163,1.843c-0.081,0.506-0.163,1.027-0.163,1.566v57.072
	c0,0.619,0.13,1.223,0.163,1.827c-0.081,0.522-0.163,1.027-0.163,1.566v57.072c0,0.619,0.13,1.223,0.163,1.827
	c-0.081,0.522-0.163,1.027-0.163,1.566v57.072c0,31.97,43.99,57.023,100.149,57.023c14.957,0,29.441-1.859,42.686-5.334v43.779
	c0,31.985,43.99,57.023,100.149,57.023s100.149-25.054,100.149-57.023v-57.072c0-0.538-0.081-1.044-0.163-1.566
	c0.032-0.62,0.163-1.207,0.163-1.827v-57.073c0-0.538-0.081-1.044-0.163-1.566c0.032-0.62,0.163-1.207,0.163-1.827v-57.072H427.55z
	 M110.693,127.811c0.734,0.457,1.435,0.93,2.186,1.37c2.431,1.419,4.975,2.756,7.666,4.028c0.098,0.032,0.196,0.066,0.294,0.114
	c2.61,1.207,5.334,2.333,8.156,3.392c0.946,0.359,1.974,0.668,2.952,1.011c2.006,0.702,4.045,1.37,6.149,1.99
	c1.207,0.359,2.446,0.669,3.67,0.995c2.006,0.522,4.028,1.027,6.1,1.484c1.321,0.277,2.642,0.555,3.996,0.799
	c2.12,0.408,4.273,0.766,6.459,1.093c1.338,0.196,2.675,0.408,4.045,0.57c2.397,0.294,4.861,0.522,7.324,0.717
	c1.207,0.098,2.382,0.228,3.588,0.31c3.719,0.228,7.471,0.375,11.303,0.375s7.584-0.147,11.287-0.359
	c1.207-0.081,2.397-0.212,3.588-0.31c2.479-0.196,4.926-0.424,7.324-0.717c1.37-0.163,2.691-0.375,4.028-0.57
	c2.186-0.326,4.355-0.685,6.476-1.093c1.37-0.277,2.691-0.538,3.996-0.832c2.088-0.457,4.111-0.946,6.116-1.484
	c1.223-0.326,2.446-0.636,3.654-0.978c2.12-0.619,4.175-1.305,6.198-2.006c0.963-0.326,1.974-0.636,2.92-0.995
	c2.887-1.076,5.676-2.218,8.319-3.458c0.032-0.017,0.066-0.032,0.098-0.049c2.707-1.256,5.252-2.626,7.699-4.045
	c0.734-0.424,1.403-0.881,2.12-1.338c1.648-1.027,3.262-2.055,4.779-3.148c0.277-0.196,0.604-0.375,0.865-0.57v21.987
	c0,17.208-32.638,36.374-79.484,36.374s-79.484-19.165-79.484-36.357v-21.987c0.277,0.196,0.619,0.375,0.897,0.57
	C107.48,125.771,109.062,126.8,110.693,127.811z M280.931,295.667c1.191,0.342,2.414,0.668,3.654,0.978
	c2.006,0.522,4.045,1.027,6.116,1.484c1.305,0.294,2.626,0.555,3.979,0.816c2.12,0.408,4.29,0.766,6.476,1.093
	c1.338,0.196,2.675,0.408,4.028,0.57c2.414,0.294,4.861,0.522,7.34,0.717c1.207,0.098,2.382,0.228,3.588,0.31
	c3.703,0.228,7.471,0.359,11.287,0.359c3.833,0,7.584-0.147,11.287-0.359c1.207-0.081,2.397-0.212,3.588-0.31
	c2.479-0.196,4.926-0.424,7.324-0.717c1.37-0.163,2.691-0.375,4.028-0.57c2.186-0.326,4.355-0.685,6.476-1.093
	c1.338-0.261,2.659-0.522,3.979-0.815c2.088-0.457,4.111-0.946,6.116-1.484c1.223-0.326,2.446-0.636,3.654-0.978
	c2.12-0.62,4.175-1.305,6.198-2.006c0.962-0.342,1.974-0.636,2.92-0.995c2.887-1.076,5.676-2.218,8.319-3.458
	c0.032-0.017,0.066-0.032,0.098-0.049c2.707-1.256,5.252-2.626,7.699-4.045c0.734-0.424,1.403-0.881,2.12-1.338
	c1.648-1.027,3.262-2.055,4.779-3.148c0.277-0.196,0.604-0.375,0.865-0.57v21.987c0,17.208-32.638,36.374-79.484,36.374
	c-20.323,0-37.956-3.621-51.429-9.102c-0.114-0.049-0.196-0.163-0.326-0.212c-15.023-6.198-25.217-15.054-27.256-23.699
	c-0.032-0.114-0.081-0.228-0.114-0.342c-0.098-0.489-0.114-0.962-0.163-1.452c0-0.032,0.017-0.066,0-0.098l-0.082-23.325
	c0.93,0.668,1.81,1.37,2.789,2.023c0,0,0.017,0,0.017,0.017c0.13,0.081,0.277,0.114,0.408,0.196
	c0.277,0.228,0.538,0.473,0.848,0.668l0,0c0.865,0.555,1.761,1.093,2.659,1.614c0.017,0,0.017,0,0.032,0.017
	c0.881,0.506,1.761,1.012,2.675,1.501c0.147,0.081,0.31,0.114,0.473,0.179c0.31,0.212,0.604,0.44,0.946,0.62
	c2.316,1.207,4.73,2.365,7.275,3.458c0.032,0.017,0.049,0.017,0.081,0.032c0.473,0.196,0.946,0.31,1.419,0.44
	c1.387,0.57,2.741,1.174,4.175,1.712c0.946,0.359,1.941,0.668,2.903,0.995C276.754,294.362,278.81,295.03,280.931,295.667z
	 M227.267,297.363c-12.804,3.964-27.402,6.051-42.686,6.051c-46.845,0-79.484-19.165-79.484-36.374v-21.987
	c18.17,13.424,46.763,21.938,79.484,21.938c14.908,0,29.409-1.81,42.686-5.285V297.363L227.267,297.363z M406.884,362.509
	c0,17.209-32.638,36.374-79.484,36.374c-45.442,0-77.412-18.04-79.304-34.807c0-0.032,0.017-0.066,0-0.114l-0.081-23.308
	c4.42,3.246,9.509,6.231,15.235,8.889c0.081,0.032,0.147,0.081,0.228,0.114c0.881,0.408,1.68,0.848,2.593,1.256
	c0.555,0.245,1.109,0.391,1.68,0.522c16.572,6.916,37.075,11.026,59.649,11.026c32.736,0,61.313-8.515,79.484-21.938
	C406.884,340.522,406.884,362.509,406.884,362.509z M234.672,223.115c-0.946,1.354-1.827,2.707-2.593,4.111
	c-0.375,0.653-0.668,1.338-1.011,2.006c-0.473,0.978-0.93,1.974-1.321,2.985c-0.391,1.012-0.702,2.023-0.995,3.05
	c-0.114,0.424-0.31,0.832-0.408,1.256c-13.114,4.208-28.104,6.41-43.762,6.41c-46.845,0-79.484-19.165-79.484-36.374v-21.971
	c18.154,13.424,46.747,21.938,79.484,21.938s61.313-8.515,79.484-21.938v15.871c-12.886,5.856-22.656,13.375-28.904,21.939
	C234.982,222.626,234.836,222.871,234.672,223.115z M406.884,244.973c0,17.209-32.638,36.374-79.484,36.374
	c-21.579,0-40.076-4.094-53.826-10.161c-0.017,0-0.032-0.017-0.049-0.032c-1.746-0.767-3.409-1.582-5.023-2.414l0,0h-0.017
	c-0.032-0.017-0.049-0.032-0.081-0.032c-0.245-0.13-0.473-0.261-0.717-0.391c-0.114-0.066-0.212-0.163-0.342-0.228l-2.202-1.223
	c-0.653-0.375-1.289-0.766-1.908-1.158c-0.017,0-0.017-0.017-0.032-0.017c-0.212-0.13-0.408-0.261-0.604-0.391
	c-0.098-0.066-0.179-0.163-0.277-0.228c-1.24-0.832-2.463-1.68-3.572-2.561c-0.017-0.017-0.032-0.017-0.049-0.032
	c-0.114-0.081-0.228-0.179-0.326-0.261c-0.081-0.066-0.13-0.147-0.212-0.212c-0.57-0.473-1.142-0.946-1.68-1.435l-0.017-0.017
	c-0.506-0.457-0.995-0.913-1.468-1.387l0,0c-0.066-0.066-0.13-0.13-0.196-0.196c-0.032-0.032-0.032-0.081-0.066-0.098
	c-0.489-0.506-0.962-1.027-1.419-1.533c-0.44-0.506-0.848-1.011-1.24-1.533l-0.017-0.017c-0.017-0.032-0.032-0.049-0.049-0.081
	c-0.375-0.522-0.75-1.061-1.093-1.599c-0.326-0.506-0.604-1.011-0.881-1.517v-0.018c-1.044-1.99-1.68-3.996-1.892-5.986
	c0-0.032,0-0.066,0-0.098c0-0.066-0.032-0.13-0.032-0.196c-0.032-0.423-0.145-0.848-0.145-1.272c0-0.081,0.032-0.163,0.032-0.245
	c0-0.066,0.032-0.13,0.032-0.212c0.033-1.239,0.261-2.479,0.636-3.719c0.017-0.049,0.032-0.098,0.049-0.147
	c2.724-8.791,13.473-17.566,29.344-23.634c0.163-0.066,0.277-0.163,0.44-0.228c13.13-4.959,29.833-8.188,48.966-8.188
	C374.245,208.599,406.884,227.764,406.884,244.973z M184.582,52.65c46.845,0,79.484,19.165,79.484,36.374
	s-32.638,36.374-79.484,36.374s-79.484-19.165-79.484-36.374S137.736,52.65,184.582,52.65z M105.082,327.506v-21.987
	c18.17,13.424,46.763,21.938,79.483,21.938c14.908,0,29.425-1.81,42.686-5.301v35.623c-12.837,3.996-27.435,6.1-42.686,6.1
	C137.736,363.879,105.082,344.714,105.082,327.506z M406.884,422.991c0,17.209-32.638,36.374-79.484,36.374
	s-79.484-19.165-79.484-36.374v-21.987c18.17,13.44,46.763,21.938,79.484,21.938s61.313-8.515,79.484-21.938V422.991z"/>
</svg>
