<?xml version="1.0" encoding="UTF-8" standalone="no"?>
<svg width="476px" height="448px" viewBox="0 0 476 448" version="1.1" xmlns="http://www.w3.org/2000/svg" xmlns:xlink="http://www.w3.org/1999/xlink">
    <!-- Generator: Sketch 3.6.1 (26313) - http://www.bohemiancoding.com/sketch -->
    <title>comment</title>
    <desc>Created with Sketch.</desc>
    <defs></defs>
    <g id="Page-1" stroke="none" stroke-width="1" fill="none" fill-rule="evenodd">
        <g id="comment">
            <path d="M59.5472864,0.484795534 C26.6760454,0.484795534 0.0626688846,28.2052562 0.0626688846,62.4307074 L0.0626688846,294.661623 C0.0626688846,328.861946 27.2906029,360.414426 60.8909669,360.414426 L151.545032,360.414426 C167.345231,377.289172 232.7296,445.241275 232.7296,445.241275 C235.633953,448.272924 240.355424,448.272924 243.243086,445.241275 C243.243086,445.241275 291.126223,390.768258 322.329053,360.414426 L415.090066,360.414426 C448.698774,360.414426 475.935813,328.861946 475.935813,294.661623 L475.935813,62.4307082 C475.936572,28.2052562 449.298158,0.484795534 416.452714,0.484795534 L59.5472864,0.484795534 Z" id="Shape" stroke="#000000" stroke-width="28"></path>
            <path d="M327.226547,183.303581 C327.226547,198.772038 339.261384,211.3115 354.11766,211.3115 C368.958842,211.3115 381.008088,198.772727 381.008088,183.303581 C381.008088,167.850961 368.958159,155.3115 354.11766,155.3115 C339.261384,155.3115 327.226547,167.850961 327.226547,183.303581 L327.226547,183.303581 Z" id="Path" fill="#000000"></path>
            <path d="M225.962176,155.3115 C211.105901,155.3115 199.071063,167.850961 199.071063,183.303581 C199.071063,198.772038 211.105901,211.3115 225.962176,211.3115 C240.817766,211.3115 252.85329,198.772727 252.85329,183.303581 C252.85329,167.850961 240.817766,155.3115 225.962176,155.3115 L225.962176,155.3115 L225.962176,155.3115 Z" id="Path" fill="#000000"></path>
            <path d="M89.2888371,183.303581 C89.2888371,198.772038 101.323675,211.3115 116.17995,211.3115 C131.036225,211.3115 143.071063,198.772727 143.071063,183.303581 C143.070377,167.850961 131.035539,155.3115 116.17995,155.3115 C101.324361,155.3115 89.2888371,167.850961 89.2888371,183.303581 L89.2888371,183.303581 Z" id="Path" fill="#000000"></path>
        </g>
    </g>
</svg>