<?xml version="1.0" encoding="utf-8"?>
<!-- Generator: Adobe Illustrator 17.0.0, SVG Export Plug-In . SVG Version: 6.00 Build 0)  -->
<!DOCTYPE svg PUBLIC "-//W3C//DTD SVG 1.1//EN" "http://www.w3.org/Graphics/SVG/1.1/DTD/svg11.dtd">
<svg version="1.1" id="图层_1" xmlns="http://www.w3.org/2000/svg" xmlns:xlink="http://www.w3.org/1999/xlink" x="0px" y="0px"
	 width="512px" height="512px" viewBox="0 0 512 512" enable-background="new 0 0 512 512" xml:space="preserve">
<g>
	<g>
		<path fill="#070001" d="M325.608,265.266c-1.476-37.218-32.029-66.959-69.608-66.959c-18.256,0-34.821,7.07-47.253,18.55
			l11.854,11.854c9.397-8.464,21.787-13.665,35.399-13.665c28.288,0,51.404,22.29,52.868,50.219h-19.388l27.9,34.875l27.9-34.875
			L325.608,265.266L325.608,265.266z"/>
		<path fill="#070001" d="M256,321.065c-27.811,0-50.573-21.559-52.727-48.825h19.247l-27.9-34.875l-27.9,34.875h19.795
			c2.18,36.556,32.381,65.564,69.484,65.564c18.256,0,34.821-7.07,47.253-18.55L291.399,307.4
			C282.002,315.864,269.612,321.065,256,321.065z"/>
	</g>
	<path fill="#070001" d="M444.16,135.229h-74.111l-41.793-34.61c-0.054-0.036-0.087-0.106-0.141-0.14l-0.086-0.07
		c-6.477-6.404-15.367-10.359-25.184-10.359h-89.6c-10.413,0-19.687,4.514-26.251,11.583l-0.034-0.104l-43.485,33.7H67.84
		C48.047,135.229,32,151.259,32,171.069v215.04c0,19.775,16.047,35.84,35.84,35.84h376.32c19.793,0,35.84-16.065,35.84-35.84
		v-215.04C480,151.259,463.953,135.229,444.16,135.229z M256,368.19c-54.443,0-98.56-44.135-98.56-98.596
		c0-54.407,44.117-98.524,98.56-98.524c54.425,0,98.56,44.117,98.56,98.524C354.56,324.054,310.425,368.19,256,368.19z"/>
</g>
</svg>
