<?xml version="1.0" encoding="utf-8"?>
<!-- Generator: Adobe Illustrator 17.0.0, SVG Export Plug-In . SVG Version: 6.00 Build 0)  -->
<!DOCTYPE svg PUBLIC "-//W3C//DTD SVG 1.1//EN" "http://www.w3.org/Graphics/SVG/1.1/DTD/svg11.dtd">
<svg version="1.1" id="图层_1" xmlns="http://www.w3.org/2000/svg" xmlns:xlink="http://www.w3.org/1999/xlink" x="0px" y="0px"
	 width="512px" height="512px" viewBox="0 0 512 512" enable-background="new 0 0 512 512" xml:space="preserve">
<path fill="#070001" d="M444.16,135.229h-74.111l-41.793-34.61c-0.054-0.036-0.088-0.106-0.141-0.14l-0.086-0.07
	c-6.477-6.404-15.367-10.359-25.184-10.359h-89.6c-10.413,0-19.687,4.514-26.251,11.583l-0.034-0.104l-43.485,33.7H67.84
	C48.047,135.229,32,151.259,32,171.069v215.04c0,19.775,16.047,35.84,35.84,35.84h376.32c19.793,0,35.84-16.065,35.84-35.84v-215.04
	C480,151.259,463.953,135.229,444.16,135.229z M256,368.19c-54.443,0-98.56-44.135-98.56-98.596
	c0-54.407,44.117-98.524,98.56-98.524c54.425,0,98.56,44.117,98.56,98.524C354.56,324.054,310.425,368.19,256,368.19z"/>
</svg>
