<?xml version="1.0" encoding="utf-8"?>
<!-- Generator: Adobe Illustrator 17.0.0, SVG Export Plug-In . SVG Version: 6.00 Build 0)  -->
<!DOCTYPE svg PUBLIC "-//W3C//DTD SVG 1.1//EN" "http://www.w3.org/Graphics/SVG/1.1/DTD/svg11.dtd">
<svg version="1.1" id="图层_1" xmlns="http://www.w3.org/2000/svg" xmlns:xlink="http://www.w3.org/1999/xlink" x="0px" y="0px"
	 width="512px" height="512px" viewBox="0 0 512 512" enable-background="new 0 0 512 512" xml:space="preserve">
<g>
	<circle fill="#B2B2B2" cx="256.286" cy="255.877" r="223.714"/>
	<g opacity="0.4" enable-background="new    ">
		<g>
			<g>
				<defs>
					<circle id="SVGID_1_" cx="255.714" cy="256.123" r="223.714"/>
				</defs>
				<clipPath id="SVGID_2_">
					<use xlink:href="#SVGID_1_"  overflow="visible"/>
				</clipPath>
				<path clip-path="url(#SVGID_2_)" fill="#231815" d="M402.409,128.808c1.388-6.63-9.068-12.666-14.439-16.556
					c-10.44,32.197-12.232,31.84-81.307,59.048l94.929,38.692C391.931,175.189,393.473,171.501,402.409,128.808z"/>
			</g>
		</g>
		<g>
			<g>
				<defs>
					<circle id="SVGID_3_" cx="255.714" cy="256.123" r="223.714"/>
				</defs>
				<clipPath id="SVGID_4_">
					<use xlink:href="#SVGID_3_"  overflow="visible"/>
				</clipPath>
				<path clip-path="url(#SVGID_4_)" fill="#231815" d="M110.446,128.808c-1.388-6.63,9.068-12.666,14.439-16.556
					c10.44,32.197,12.232,31.84,81.307,59.048l-94.929,38.692C120.924,175.189,119.382,171.501,110.446,128.808z"/>
			</g>
		</g>
		<g>
			<g>
				<defs>
					<circle id="SVGID_5_" cx="255.714" cy="256.123" r="223.714"/>
				</defs>
				<clipPath id="SVGID_6_">
					<use xlink:href="#SVGID_5_"  overflow="visible"/>
				</clipPath>
				<path clip-path="url(#SVGID_6_)" fill="#231815" d="M418.514,251.613c1.448-25.362-22.712-27.86-40.896-115.333
					c-9.933,14.897-83.688,41.977-121.194,48.996c-37.502-7.015-111.258-34.096-121.19-48.993
					c-18.18,87.473-42.34,89.971-40.896,115.333c-1.726,6.8-2.649,13.926-2.649,21.262c0,47.637,38.619,86.252,86.256,86.252
					c34.869,0,64.883-20.703,78.48-50.481c13.597,29.774,43.612,50.481,78.48,50.481c47.637,0,86.256-38.615,86.256-86.252
					C421.163,265.538,420.242,258.416,418.514,251.613z"/>
			</g>
		</g>
		<g>
			<g>
				<defs>
					<circle id="SVGID_7_" cx="255.714" cy="256.123" r="223.714"/>
				</defs>
				<clipPath id="SVGID_8_">
					<use xlink:href="#SVGID_7_"  overflow="visible"/>
				</clipPath>
				<path clip-path="url(#SVGID_8_)" fill="#231815" d="M332.643,511.472c-2.773-2.785-6.85-1.64-11.027-0.499
					c-8.122,2.223-16.616,4.448-16.616-22.205c0-1.747,0.031-12.225,0.085-13.749h-97.307c0.057,1.523,0.088,12.001,0.088,13.751
					c0,26.649-8.494,24.426-16.613,22.201c-4.176-1.145-8.254-2.286-11.03,0.499c0,0-57.795,18.915,28.898,8.825
					c86.697-10.087,0-13.871,32.667-25.224c9.781-3.397,8.876-5.097,13.401-5.813c3.119-0.719-2.29-1.123,1.256-1.123
					c3.703,0-1.565,0.435,1.665,1.217c4.57,0.77,3.57,2.467,12.929,5.718c32.667,11.349-54.008,15.133,32.686,25.224
					C390.423,530.391,332.643,511.472,332.643,511.472z"/>
			</g>
		</g>
		<g>
			<g>
				<defs>
					<circle id="SVGID_9_" cx="255.714" cy="256.123" r="223.714"/>
				</defs>
				<clipPath id="SVGID_10_">
					<use xlink:href="#SVGID_9_"  overflow="visible"/>
				</clipPath>
				<path clip-path="url(#SVGID_10_)" fill="#231815" d="M375.286,418.184c0,38.102-53.216,68.987-118.859,68.987
					s-118.859-30.888-118.859-68.987S190.784,263.98,256.427,263.98S375.286,380.083,375.286,418.184z"/>
			</g>
		</g>
		<g>
			<g>
				<defs>
					<circle id="SVGID_11_" cx="255.714" cy="256.123" r="223.714"/>
				</defs>
				<clipPath id="SVGID_12_">
					<use xlink:href="#SVGID_11_"  overflow="visible"/>
				</clipPath>
				<ellipse clip-path="url(#SVGID_12_)" fill="#FFFFFF" cx="256.427" cy="394.039" rx="85.943" ry="93.131"/>
			</g>
		</g>
		<g>
			<g>
				<defs>
					<circle id="SVGID_13_" cx="255.714" cy="256.123" r="223.714"/>
				</defs>
				<clipPath id="SVGID_14_">
					<use xlink:href="#SVGID_13_"  overflow="visible"/>
				</clipPath>
				<circle clip-path="url(#SVGID_14_)" fill="#231815" cx="176.212" cy="274.205" r="87.703"/>
			</g>
		</g>
		<g>
			<g>
				<defs>
					<circle id="SVGID_15_" cx="255.714" cy="256.123" r="223.714"/>
				</defs>
				<clipPath id="SVGID_16_">
					<use xlink:href="#SVGID_15_"  overflow="visible"/>
				</clipPath>
				<circle clip-path="url(#SVGID_16_)" fill="#FFFFFF" cx="176.212" cy="274.205" r="72.866"/>
			</g>
		</g>
		<g>
			<g>
				<defs>
					<circle id="SVGID_17_" cx="255.714" cy="256.123" r="223.714"/>
				</defs>
				<clipPath id="SVGID_18_">
					<use xlink:href="#SVGID_17_"  overflow="visible"/>
				</clipPath>
				<ellipse clip-path="url(#SVGID_18_)" fill="#231815" cx="175.815" cy="274.205" rx="73.087" ry="10.225"/>
			</g>
		</g>
		<g>
			<g>
				<defs>
					<circle id="SVGID_19_" cx="255.714" cy="256.123" r="223.714"/>
				</defs>
				<clipPath id="SVGID_20_">
					<use xlink:href="#SVGID_19_"  overflow="visible"/>
				</clipPath>
				<circle clip-path="url(#SVGID_20_)" fill="#231815" cx="336.643" cy="274.205" r="87.703"/>
			</g>
		</g>
		<g>
			<g>
				<defs>
					<circle id="SVGID_21_" cx="255.714" cy="256.123" r="223.714"/>
				</defs>
				<clipPath id="SVGID_22_">
					<use xlink:href="#SVGID_21_"  overflow="visible"/>
				</clipPath>
				<path clip-path="url(#SVGID_22_)" fill="#231815" d="M256.024,367.413c22.977-10.771,29.361-37.963,0.114-37.963
					S239.31,358.796,256.024,367.413z"/>
			</g>
		</g>
		<g>
			<g>
				<defs>
					<circle id="SVGID_23_" cx="255.714" cy="256.123" r="223.714"/>
				</defs>
				<clipPath id="SVGID_24_">
					<use xlink:href="#SVGID_23_"  overflow="visible"/>
				</clipPath>
				<circle clip-path="url(#SVGID_24_)" fill="#FFFFFF" cx="336.643" cy="274.205" r="72.866"/>
			</g>
		</g>
		<g>
			<g>
				<defs>
					<circle id="SVGID_25_" cx="255.714" cy="256.123" r="223.714"/>
				</defs>
				<clipPath id="SVGID_26_">
					<use xlink:href="#SVGID_25_"  overflow="visible"/>
				</clipPath>
				<circle clip-path="url(#SVGID_26_)" fill="#231815" cx="290.214" cy="274.205" r="26.435"/>
			</g>
		</g>
	</g>
</g>
</svg>
