<?xml version="1.0" encoding="utf-8"?>
<!-- Generator: Adobe Illustrator 17.0.0, SVG Export Plug-In . SVG Version: 6.00 Build 0)  -->
<!DOCTYPE svg PUBLIC "-//W3C//DTD SVG 1.1//EN" "http://www.w3.org/Graphics/SVG/1.1/DTD/svg11.dtd">
<svg version="1.1" id="图层_1" xmlns="http://www.w3.org/2000/svg" xmlns:xlink="http://www.w3.org/1999/xlink" x="0px" y="0px"
	 width="512px" height="512px" viewBox="0 0 512 512" enable-background="new 0 0 512 512" xml:space="preserve">
<g>
	<path fill="#070001" d="M449.789,142.357L449.789,142.357c-9.639-15.76-21.452-30.652-35.478-44.665
		C370.513,53.893,317.969,32,256.214,32c-62.183,0-115.18,21.893-158.524,65.691c-15.333,15.333-27.585,31.532-37.664,48.611l0,0
		C41.2,179.143,32,215.501,32,256.22c0,45.986,11.826,86.718,35.905,122.623c8.32,12.706,18.399,24.519,29.785,35.906
		C141.047,458.108,194.031,480,256.214,480c61.743,0,114.299-21.892,158.098-65.251c11.386-11.386,21.452-23.213,29.785-35.906
		C468.174,342.937,480,302.205,480,256.22C480,213.741,469.934,176.089,449.789,142.357z M414.75,365.27
		c-7.013,10.506-15.333,20.586-24.958,29.786c-36.784,36.786-81.462,55.185-133.565,55.185c-52.557,0-97.221-18.399-134.005-55.185
		c-9.639-9.2-17.959-19.266-24.959-29.786c-20.585-30.213-30.651-64.811-30.211-103.797c0-33.719,7.439-64.371,22.772-91.53l0,0l0,0
		l0.88-1.32c8.319-14.453,18.826-28.465,31.531-41.172c36.784-36.786,81.462-55.185,134.005-55.185
		c52.117,0,96.781,18.399,133.565,55.185c11.826,11.826,21.452,24.092,29.785,37.665l1.319,1.746h-0.44
		c16.199,28.026,24.518,59.559,24.958,94.597C445.402,300.459,435.336,335.058,414.75,365.27z"/>
	<path fill="#070001" d="M374.58,181.142c1.173,5.093,1.96,10.36,1.96,15.959c0,18.372-6.266,33.599-19.266,46.599
		c-12.999,12.986-28.225,19.266-46.597,19.266c-18.372,0-34.052-6.267-47.051-19.266c-12.999-13-19.266-28.226-19.266-46.599
		s6.266-34.052,19.266-47.052c13-13,28.678-19.266,47.051-19.266c3.84,0,7.466,0.44,11.026,0.987
		c-19.492-10.48-41.078-15.627-65.237-15.627c-38.878,0-72.062,13.28-99.554,40.772s-40.771,60.692-40.771,99.557
		s13.279,71.118,40.771,98.611c27.492,27.492,60.69,40.772,99.554,40.772c38.878,0,71.116-13.28,98.607-40.772
		c27.492-27.492,40.771-59.732,40.771-98.611C395.858,228.381,388.806,203.288,374.58,181.142z"/>
</g>
</svg>
