<?xml version="1.0" encoding="UTF-8" standalone="no"?>
<svg width="448px" height="448px" viewBox="0 0 448 448" version="1.1" xmlns="http://www.w3.org/2000/svg" xmlns:xlink="http://www.w3.org/1999/xlink">
    <!-- Generator: Sketch 3.6.1 (26313) - http://www.bohemiancoding.com/sketch -->
    <title>girl</title>
    <desc>Created with Sketch.</desc>
    <defs></defs>
    <g id="Page-1" stroke="none" stroke-width="1" fill="none" fill-rule="evenodd">
        <g id="girl" fill="#000000">
            <path d="M272.649528,0.188614434 C176.162679,0.188614434 97.9392225,78.3269363 97.9392225,174.723701 C97.9392225,217.707515 113.504456,257.055064 139.297787,287.470551 L83.7125186,343.344008 L24.6288549,283.766938 C19.1692385,278.31948 10.3311333,278.31948 4.87151641,283.773621 C-0.588099978,289.221593 -0.588099978,298.064201 4.87151641,303.517828 L64.0061273,363.152479 L4.44849811,423.020017 C-1.00442819,428.47416 -1.00442819,437.317283 4.44849811,442.771425 C9.90811451,448.225564 18.7601143,448.225564 24.2192168,442.771425 L83.6816413,382.994365 L143.28147,443.098393 C148.741087,448.55202 157.599776,448.55202 163.059393,443.098393 C168.51901,437.650935 168.51901,428.808328 163.059393,423.354186 L103.387517,363.183838 L159.001089,307.275935 C189.553638,333.443372 229.251005,349.258789 272.649013,349.258789 C369.135348,349.258789 447.358804,271.113269 447.358804,174.723702 C447.359319,78.3274503 369.135863,0.188614434 272.649528,0.188614434 L272.649528,0.188614434 L272.649528,0.188614434 Z M272.649528,321.564973 C191.477292,321.564973 125.660839,255.821212 125.660839,174.723701 C125.660839,93.6195069 191.477292,27.8824285 272.649528,27.8824285 C353.82125,27.8824285 419.637703,93.6195069 419.637703,174.723701 C419.637703,255.821212 353.82125,321.564973 272.649528,321.564973 L272.649528,321.564973 L272.649528,321.564973 Z" id="Shape"></path>
        </g>
    </g>
</svg>