<?xml version="1.0" encoding="utf-8"?>
<!-- Generator: Adobe Illustrator 17.0.0, SVG Export Plug-In . SVG Version: 6.00 Build 0)  -->
<!DOCTYPE svg PUBLIC "-//W3C//DTD SVG 1.1//EN" "http://www.w3.org/Graphics/SVG/1.1/DTD/svg11.dtd">
<svg version="1.1" id="图层_1" xmlns="http://www.w3.org/2000/svg" xmlns:xlink="http://www.w3.org/1999/xlink" x="0px" y="0px"
	 width="512px" height="512px" viewBox="0 0 512 512" enable-background="new 0 0 512 512" xml:space="preserve">
<g>
	<g id="Gallery">
		<g>
			<path fill="#070001" d="M431.717,142.277H79.714c-26.351,0-47.714,21.39-47.714,47.775v242.174C32,458.61,53.363,480,79.714,480
				h352.002c26.351,0,47.715-21.39,47.715-47.774V190.052C479.43,163.667,458.067,142.277,431.717,142.277z M451.896,432.226
				c0,11.159-9.034,20.206-20.179,20.206H79.714c-11.145,0-20.179-9.047-20.179-20.206V190.052c0-11.16,9.034-20.206,20.179-20.206
				h352.002c11.145,0,20.179,9.047,20.179,20.206L451.896,432.226L451.896,432.226z M86.752,114.708h337.293
				c7.603,0,13.767-6.172,13.767-13.786c0-7.612-6.164-13.785-13.767-13.785H86.752c-7.603,0-13.767,6.172-13.767,13.785
				C72.985,108.535,79.149,114.708,86.752,114.708z M128.053,59.569h254.691c7.603,0,13.767-6.172,13.767-13.786
				c0-7.612-6.164-13.784-13.767-13.784H128.053c-7.603,0-13.767,6.172-13.767,13.785C114.287,53.397,120.451,59.569,128.053,59.569
				z"/>
		</g>
	</g>
	<g id="Picture">
		<g>
			<path fill="#070001" d="M242.996,339.639c-4.21-3.979-9.587-5.915-15.102-5.416c-5.527,0.485-10.473,3.313-13.932,7.969
				l-8.732,11.745l-52.333-52.398c-4.131-4.137-9.395-6.136-14.826-5.667c-5.431,0.477-10.264,3.38-13.602,8.169l-67.2,96.253
				c-1.354,1.941-0.881,4.609,1.053,5.965c0.748,0.523,1.604,0.773,2.448,0.773c1.349,0,2.678-0.635,3.509-1.828l67.204-96.256
				c1.867-2.677,4.474-4.292,7.34-4.542c2.895-0.284,5.719,0.882,8.025,3.191l53.218,53.287l-72.406,97.402
				c-1.412,1.894-1.019,4.58,0.877,5.989c0.765,0.573,1.663,0.849,2.548,0.849c1.308,0,2.594-0.598,3.434-1.727l86.3-116.091
				c1.984-2.66,4.758-4.279,7.82-4.547c3.091-0.26,6.074,0.841,8.48,3.116l46.792,44.192c1.717,1.628,4.424,1.54,6.05-0.175
				c1.62-1.723,1.541-4.434-0.176-6.057L242.996,339.639z M371.276,202.202c-20.382,0-36.963,16.601-36.963,37.01
				s16.58,37.014,36.963,37.014s36.967-16.606,36.967-37.014C408.243,218.804,391.658,202.202,371.276,202.202z M371.276,267.659
				c-15.666,0-28.407-12.762-28.407-28.448s12.742-28.444,28.407-28.444c15.665,0,28.411,12.758,28.411,28.444
				S386.941,267.659,371.276,267.659z"/>
		</g>
	</g>
	<g id="Picture_2_">
		<g>
			<path fill="#070001" d="M478.862,367.239l-25.371-21.032c-3.574-2.763-8.137-4.109-12.816-3.762
				c-4.691,0.337-8.888,2.301-11.824,5.535l-6.849,7.542l-53.916-53.984c-4.131-4.137-9.395-6.136-14.826-5.667
				c-5.431,0.477-10.264,3.38-13.602,8.169l-67.2,96.253c-1.354,1.941-0.881,4.61,1.053,5.965c0.748,0.523,1.604,0.773,2.448,0.773
				c1.349,0,2.677-0.635,3.509-1.828l67.204-96.256c1.867-2.677,4.474-4.292,7.34-4.542c2.895-0.284,5.719,0.882,8.026,3.191
				l54.203,54.272l-60.629,66.757c-1.199,1.316-0.865,3.181,0.745,4.161c0.649,0.398,1.411,0.59,2.163,0.59
				c1.11,0,2.202-0.416,2.915-1.2l73.24-80.643c1.684-1.848,4.038-2.972,6.637-3.158c2.624-0.18,5.155,0.584,7.197,2.165
				l29.126,22.102c-9.206-9.788,0,0,1.379-1.192C480.386,370.25,480.319,368.367,478.862,367.239z"/>
		</g>
	</g>
</g>
</svg>
