<?xml version="1.0" encoding="utf-8"?>
<!-- Generator: Adobe Illustrator 17.0.0, SVG Export Plug-In . SVG Version: 6.00 Build 0)  -->
<!DOCTYPE svg PUBLIC "-//W3C//DTD SVG 1.1//EN" "http://www.w3.org/Graphics/SVG/1.1/DTD/svg11.dtd">
<svg version="1.1" id="图层_1" xmlns="http://www.w3.org/2000/svg" xmlns:xlink="http://www.w3.org/1999/xlink" x="0px" y="0px"
	 width="512px" height="512px" viewBox="0 0 512 512" enable-background="new 0 0 512 512" xml:space="preserve">
<path fill="#070001" d="M214.249,32c0,0,31.641,77.343-6.262,127.981c-34.358,45.903-78.586,85.975-78.586,161.277
	c0,78.348,32.309,119.456,122.516,158.742c0,0,130.681-24.606,130.681-161.72C382.599,181.173,214.249,32,214.249,32z
	 M251.514,473.475c0,0-42.492-31.943-42.492-89.198c0-57.261,47.012-92.618,47.012-92.618s45.201,43.697,45.201,92.915
	C301.235,433.8,251.514,473.475,251.514,473.475z"/>
</svg>
