<?xml version="1.0" encoding="utf-8"?>
<!-- Generator: Adobe Illustrator 17.0.0, SVG Export Plug-In . SVG Version: 6.00 Build 0)  -->
<!DOCTYPE svg PUBLIC "-//W3C//DTD SVG 1.1//EN" "http://www.w3.org/Graphics/SVG/1.1/DTD/svg11.dtd">
<svg version="1.1" id="图层_1" xmlns="http://www.w3.org/2000/svg" xmlns:xlink="http://www.w3.org/1999/xlink" x="0px" y="0px"
	 width="512px" height="512px" viewBox="0 0 512 512" enable-background="new 0 0 512 512" xml:space="preserve">
<g>
	<path fill="#070001" d="M256.018,248.066c23.402,0,42.363-18.952,42.363-42.381c0-23.402-18.961-42.363-42.363-42.363
		s-42.381,18.961-42.381,42.363C213.637,229.114,232.616,248.066,256.018,248.066z"/>
	<path fill="#070001" d="M256.018,267.184c-36.606,0-66.262,29.695-66.262,66.31c0,0,29.656,146.506,66.262,146.506
		c36.588,0,66.301-146.506,66.301-146.506C322.318,296.88,292.606,267.184,256.018,267.184z"/>
	<path fill="#070001" d="M256.018,32c-89.279,0-161.935,72.637-161.935,161.926h18.884c0-78.892,64.17-143.051,143.051-143.051
		c78.893,0,143.042,64.159,143.042,143.051h18.857C417.917,104.637,345.288,32,256.018,32z"/>
	<path fill="#070001" d="M256.018,94.496c-54.805,0-99.449,44.606-99.449,99.43h11.589c0-48.428,39.394-87.842,87.86-87.842
		c48.458,0,87.833,39.415,87.833,87.842h11.589C355.441,139.102,310.881,94.496,256.018,94.496z"/>
</g>
</svg>
