<?xml version="1.0" encoding="utf-8"?>
<!-- Generator: Adobe Illustrator 17.0.0, SVG Export Plug-In . SVG Version: 6.00 Build 0)  -->
<!DOCTYPE svg PUBLIC "-//W3C//DTD SVG 1.1//EN" "http://www.w3.org/Graphics/SVG/1.1/DTD/svg11.dtd">
<svg version="1.1" id="图层_1" xmlns="http://www.w3.org/2000/svg" xmlns:xlink="http://www.w3.org/1999/xlink" x="0px" y="0px"
	 width="512px" height="512px" viewBox="0 0 512 512" enable-background="new 0 0 512 512" xml:space="preserve">
<g>
	<path fill="#040000" d="M374.565,265.365c2.545,0,5.075-1.033,6.906-3.068c3.461-3.81,3.17-9.699-0.655-13.159L143.688,34.416
		c-3.81-3.461-9.713-3.17-13.159,0.655c-3.461,3.81-3.17,9.699,0.655,13.159l237.131,214.722
		C370.087,264.565,372.326,265.365,374.565,265.365z"/>
	<path fill="#040000" d="M137.436,480c2.225,0,4.464-0.785,6.253-2.414l237.129-214.634c3.81-3.446,4.115-9.349,0.655-13.159
		c-3.446-3.81-9.349-4.115-13.159-0.654l-237.13,214.635c-3.81,3.446-4.115,9.349-0.655,13.159
		C132.361,478.967,134.892,480,137.436,480z"/>
</g>
</svg>
