<?xml version="1.0" encoding="utf-8"?>
<!-- Generator: Adobe Illustrator 17.0.0, SVG Export Plug-In . SVG Version: 6.00 Build 0)  -->
<!DOCTYPE svg PUBLIC "-//W3C//DTD SVG 1.1//EN" "http://www.w3.org/Graphics/SVG/1.1/DTD/svg11.dtd">
<svg version="1.1" id="图层_1" xmlns="http://www.w3.org/2000/svg" xmlns:xlink="http://www.w3.org/1999/xlink" x="0px" y="0px"
	 width="512px" height="512px" viewBox="0 0 512 512" enable-background="new 0 0 512 512" xml:space="preserve">
<g>
	<path fill="#070001" d="M184.883,124.361c-2.692,0-5.422-1.04-7.497-3.114c-4.154-4.114-4.154-10.844,0-14.958l71.096-71.173
		c3.961-3.961,10.997-3.961,14.956,0l71.175,71.173c4.114,4.114,4.114,10.844,0,14.958c-4.154,4.152-10.844,4.152-14.996,0
		L255.942,57.57l-63.561,63.676C190.305,123.321,187.614,124.361,184.883,124.361z"/>
	<path fill="#070001" d="M398.368,480H113.71c-45.104,0-81.749-36.644-81.749-81.71c0-5.806,4.768-10.574,10.573-10.574
		c5.845,0,10.614,4.768,10.614,10.574c0,33.415,27.186,60.525,60.562,60.525h284.659c33.337,0,60.483-27.109,60.483-60.525
		c0-5.806,4.768-10.574,10.614-10.574c5.806,0,10.574,4.768,10.574,10.574C480.039,443.356,443.395,480,398.368,480z"/>
	<path fill="#070001" d="M256.056,408.94c-5.843,0-10.611-4.766-10.611-10.611V42.611c0-5.843,4.769-10.611,10.611-10.611
		c5.807,0,10.576,4.768,10.576,10.611v355.718C266.633,404.174,261.865,408.94,256.056,408.94z"/>
</g>
</svg>
