<?xml version="1.0" encoding="utf-8"?>
<!-- Generator: Adobe Illustrator 17.0.0, SVG Export Plug-In . SVG Version: 6.00 Build 0)  -->
<!DOCTYPE svg PUBLIC "-//W3C//DTD SVG 1.1//EN" "http://www.w3.org/Graphics/SVG/1.1/DTD/svg11.dtd">
<svg version="1.1" id="图层_1" xmlns="http://www.w3.org/2000/svg" xmlns:xlink="http://www.w3.org/1999/xlink" x="0px" y="0px"
	 width="512px" height="512px" viewBox="0 0 512 512" enable-background="new 0 0 512 512" xml:space="preserve">
<g>
	<path fill="#070001" d="M398.343,480H113.735C68.639,480,32,443.356,32,398.29c0-5.806,4.767-10.574,10.574-10.574
		c5.882,0,10.609,4.768,10.609,10.574c0,33.415,27.219,60.525,60.552,60.525h284.609c33.331,0,60.473-27.109,60.473-60.525
		c0-5.806,4.806-10.574,10.572-10.574c5.884,0,10.612,4.768,10.612,10.574C480,443.356,443.323,480,398.343,480z"/>
	<path fill="#070001" d="M256.019,408.904c-2.807,0-5.458-1.114-7.421-3.114l-71.161-71.136c-4.151-4.114-4.151-10.844,0-14.958
		c4.037-4.113,10.765-4.19,14.956,0l63.626,63.639l63.626-63.639c4.154-4.152,10.842-4.152,14.993,0
		c4.114,4.114,4.114,10.844,0,14.958l-71.084,71.136C261.557,407.789,258.826,408.904,256.019,408.904z"/>
	<path fill="#070001" d="M255.943,408.94c-5.805,0-10.573-4.766-10.573-10.611V42.611c0-5.843,4.768-10.611,10.573-10.611
		c5.882,0,10.611,4.768,10.611,10.611v355.718C266.554,404.174,261.824,408.94,255.943,408.94z"/>
</g>
</svg>
