<?xml version="1.0" encoding="UTF-8" standalone="no"?>
<svg width="490px" height="448px" viewBox="0 0 490 448" version="1.1" xmlns="http://www.w3.org/2000/svg" xmlns:xlink="http://www.w3.org/1999/xlink">
    <!-- Generator: Sketch 3.6.1 (26313) - http://www.bohemiancoding.com/sketch -->
    <title>Shape</title>
    <desc>Created with Sketch.</desc>
    <defs></defs>
    <g id="Page-1" stroke="none" stroke-width="1" fill="none" fill-rule="evenodd">
        <g id="home" fill="#000000">
            <path d="M485.780251,225.714015 L269.273254,10.1035158 C255.894461,-3.21984543 234.125088,-3.22037099 220.745769,10.1035158 L4.23877112,225.714015 C-0.915201913,230.846635 -0.915201913,239.168807 4.23877112,244.300902 C9.39274416,249.434047 17.7495403,249.434047 22.9029856,244.300902 L40.7732251,226.504701 L40.7732251,412.914521 C40.7732251,431.756909 56.1665164,447.086424 75.0872948,447.086424 L412.948902,447.086424 C431.869682,447.086424 447.262974,431.756909 447.262974,412.914521 L447.262974,224.530616 L467.115509,244.300902 C469.692761,246.867474 473.069793,248.150234 476.447881,248.150234 C479.825968,248.150234 483.203002,246.867474 485.780251,244.300902 C490.933697,239.168282 490.933697,230.846635 485.780251,225.714015 L485.780251,225.714015 L485.780251,225.714015 Z M304.727607,420.800345 L183.308591,420.800345 L183.308591,288.844235 C183.308591,284.495992 186.860889,280.958412 191.227222,280.958412 L296.808975,280.958412 C301.175309,280.958412 304.727607,284.495992 304.727607,288.844235 L304.727607,420.800345 L304.727607,420.800345 L304.727607,420.800345 Z M420.867534,412.914521 C420.867534,417.262764 417.315237,420.800345 412.948902,420.800345 L331.123044,420.800345 L331.123044,288.844235 C331.123044,270.00185 315.729754,254.672335 296.808975,254.672335 L191.227222,254.672335 C172.306444,254.672335 156.913152,270.00185 156.913152,288.844235 L156.913152,420.800345 L75.0872941,420.800345 C70.7209606,420.800345 67.1686627,417.262764 67.1686627,412.914521 L67.1686632,200.218623 L239.409983,28.6909269 C242.497194,25.6159815 247.521303,25.6159815 250.608513,28.6909269 L420.867534,198.244539 L420.867534,412.914521 L420.867534,412.914521 L420.867534,412.914521 Z" id="Shape"></path>
        </g>
    </g>
</svg>