<?xml version="1.0" encoding="UTF-8" standalone="no"?>
<svg width="448px" height="448px" viewBox="0 0 448 448" version="1.1" xmlns="http://www.w3.org/2000/svg" xmlns:xlink="http://www.w3.org/1999/xlink">
    <!-- Generator: Sketch 3.6.1 (26313) - http://www.bohemiancoding.com/sketch -->
    <title>label</title>
    <desc>Created with Sketch.</desc>
    <defs></defs>
    <g id="Page-1" stroke="none" stroke-width="1" fill="none" fill-rule="evenodd">
        <g id="label" fill="#000000">
            <path d="M223.972811,447.357837 C100.715078,447.357837 0.444601086,347.08786 0.444601086,223.826635 C0.444601086,100.568902 100.714579,0.298425372 223.972811,0.298425372 C347.234037,0.298425372 447.504014,100.568403 447.504014,223.826635 C447.504014,347.087362 347.233538,447.357837 223.972811,447.357837 L223.972811,447.357837 L223.972811,447.357837 L223.972811,447.357837 Z M223.972811,32.3744218 C118.404644,32.3744218 32.5210962,118.257969 32.5210962,223.826136 C32.5210962,329.380834 118.404644,415.281342 223.972811,415.281342 C329.527509,415.281342 415.428017,329.380834 415.428017,223.826136 C415.427519,118.257969 329.527008,32.3744218 223.972811,32.3744218 L223.972811,32.3744218 L223.972811,32.3744218 L223.972811,32.3744218 Z" id="Shape"></path>
            <path d="M331.234702,164.545286 C324.976154,158.335129 314.85272,158.397989 308.660523,164.672003 L192.264994,282.34369 L140.739854,229.400709 C134.578589,223.061341 124.470122,222.949091 118.165676,229.081421 C111.840776,235.228717 111.697595,245.351153 117.846388,251.656597 L180.722225,316.273552 C180.754153,316.319948 180.817014,316.319948 180.848942,316.36834 C180.880871,316.400269 180.897334,316.463627 180.929263,316.495057 C181.93552,317.486848 183.180245,318.093496 184.362111,318.763502 C184.98572,319.099752 185.480118,319.658007 186.118195,319.913437 C188.050388,320.712157 190.109298,321.109771 192.152743,321.109771 C194.179724,321.109771 196.209201,320.712655 198.123932,319.945366 C198.747542,319.689437 199.225476,319.177578 199.817158,318.858789 C201.013491,318.188284 202.26071,317.599097 203.281934,316.592842 C203.313363,316.560913 203.330824,316.495057 203.376723,316.463627 C203.408651,316.416733 203.457043,316.39977 203.505935,316.36834 L331.34745,187.135926 C337.559603,180.845948 337.49375,170.739976 331.234702,164.545286 L331.234702,164.545286 L331.234702,164.545286 L331.234702,164.545286 Z" id="Shape"></path>
        </g>
    </g>
</svg>