<?xml version="1.0" encoding="utf-8"?>
<!-- Generator: Adobe Illustrator 17.0.0, SVG Export Plug-In . SVG Version: 6.00 Build 0)  -->
<!DOCTYPE svg PUBLIC "-//W3C//DTD SVG 1.1//EN" "http://www.w3.org/Graphics/SVG/1.1/DTD/svg11.dtd">
<svg version="1.1" id="图层_1" xmlns="http://www.w3.org/2000/svg" xmlns:xlink="http://www.w3.org/1999/xlink" x="0px" y="0px"
	 width="512px" height="512px" viewBox="0 0 512 512" enable-background="new 0 0 512 512" xml:space="preserve">
<g id="Trash">
	<g>
		<path fill="#040000" d="M169.846,412.122c3.81,0,6.892-3.04,6.892-6.787v-13.577c0-3.748-3.083-6.787-6.892-6.787
			c-3.81,0-6.892,3.04-6.892,6.787v13.577C162.953,409.082,166.036,412.122,169.846,412.122z M169.846,364.607
			c3.81,0,6.892-3.04,6.892-6.787V242.425c0-3.748-3.083-6.787-6.892-6.787c-3.81,0-6.892,3.04-6.892,6.787v115.394
			C162.953,361.567,166.036,364.607,169.846,364.607z M252.553,412.122c3.81,0,6.892-3.04,6.892-6.787v-162.91
			c0-3.748-3.083-6.787-6.892-6.787c-3.809,0-6.892,3.04-6.892,6.787v162.91C245.661,409.082,248.744,412.122,252.553,412.122z
			 M335.261,412.122c3.81,0,6.892-3.04,6.892-6.787v-162.91c0-3.748-3.083-6.787-6.892-6.787s-6.892,3.04-6.892,6.787v162.91
			C328.369,409.082,331.451,412.122,335.261,412.122z M423.138,93.091h-60.509C360.761,51.747,345.143,32,291.7,32h-82.708
			c-49.418,0-64.837,15.652-66.549,61.091H88.862c-31.406,0-56.862,25.073-56.862,56v3.394c0,28.043,20.93,51.271,48.247,55.36
			v206.821c0,56.255,17.042,65.334,66.715,65.334h206.77c53.55,0,71.13-13.433,71.13-65.334V208.442
			C455.468,207.542,480,182.843,480,152.485v-3.394C479.999,118.164,454.543,93.091,423.138,93.091z M208.991,59.152h82.708
			c33.019,0,42.071,3.385,43.382,33.939H169.905C170.393,63.524,174.664,59.152,208.991,59.152z M397.291,414.667
			c0,37.112-4.84,38.182-43.562,38.182H146.96c-40.062,0-39.147-2.5-39.147-38.182V208.484h289.477L397.291,414.667L397.291,414.667
			z M452.43,152.485c0,15.932-13.111,28.849-29.292,28.849H88.86c-16.181,0-29.292-12.917-29.292-28.849v-3.394
			c0-15.933,13.111-28.849,29.292-28.849h334.278c16.181,0,29.292,12.916,29.292,28.849L452.43,152.485L452.43,152.485z"/>
	</g>
</g>
</svg>
