<?xml version="1.0" encoding="utf-8"?>
<!-- Generator: Adobe Illustrator 17.0.0, SVG Export Plug-In . SVG Version: 6.00 Build 0)  -->
<!DOCTYPE svg PUBLIC "-//W3C//DTD SVG 1.1//EN" "http://www.w3.org/Graphics/SVG/1.1/DTD/svg11.dtd">
<svg version="1.1" id="图层_1" xmlns="http://www.w3.org/2000/svg" xmlns:xlink="http://www.w3.org/1999/xlink" x="0px" y="0px"
	 width="512px" height="512px" viewBox="0 0 512 512" enable-background="new 0 0 512 512" xml:space="preserve">
<g id="Flash">
	<g>
		<path fill="#070001" d="M421.903,44.101C418.171,36.407,410.03,32,399.579,32H241.701c-15.743,0-33.411,10.478-41.086,24.354
			L92.034,251.887c-4.924,8.886-5.232,18.264-0.838,25.73c4.355,7.399,12.579,11.643,22.559,11.643h26.443
			c-0.039,0.144-0.092,0.301-0.158,0.465c-0.164,0.425-0.308,0.858-0.425,1.304L95.944,452.62
			c-1.422,3.804-4.498,13.143,0.727,20.713c2.921,4.237,7.602,6.667,12.834,6.667h0.007c5.121,0,10.177-2.246,15.907-7.059
			c0.176-0.143,0.346-0.295,0.51-0.452L366.64,248.535c11.86-10.124,9.993-19.895,8.631-23.647
			c-1.368-3.765-6.261-12.534-22.029-12.534h-47.89L417.503,69.36C424.051,61.043,425.655,51.835,421.903,44.101z M279.531,201.811
			c-6.548,8.33-8.153,17.544-4.394,25.277c3.733,7.682,11.873,12.088,22.324,12.088h39.861L129.04,432.962l36.312-134.357
			c3.183-8.893,2.266-17.949-2.553-24.956c-4.898-7.124-13.215-11.211-22.809-11.211h-23.13L224.072,69.353
			c2.941-5.311,11.676-10.53,17.629-10.53h149.981L279.531,201.811z M201.467,168.95c-3.235-1.815-7.321-0.629-9.116,2.606
			l-6.012,10.825c-1.801,3.235-0.628,7.322,2.607,9.116c1.034,0.576,2.147,0.844,3.248,0.844c2.357,0,4.643-1.244,5.868-3.451
			l6.012-10.825C205.873,174.83,204.708,170.745,201.467,168.95z M233.665,97.151l-28.394,51.131
			c-1.802,3.235-0.629,7.321,2.606,9.115c1.034,0.577,2.148,0.845,3.248,0.845c2.357,0,4.643-1.244,5.874-3.452l28.395-51.137
			c3.49-6.307,12.77-11.833,19.869-11.833h17.537c3.706,0,6.706-2.999,6.706-6.706c0-3.706-2.999-6.706-6.706-6.706h-17.537
			C253.358,78.41,239.48,86.648,233.665,97.151z"/>
	</g>
</g>
</svg>
