<?xml version="1.0" encoding="UTF-8" standalone="no"?>
<svg width="554px" height="448px" viewBox="0 0 554 448" version="1.1" xmlns="http://www.w3.org/2000/svg" xmlns:xlink="http://www.w3.org/1999/xlink">
    <!-- Generator: Sketch 3.6.1 (26313) - http://www.bohemiancoding.com/sketch -->
    <title>Shape</title>
    <desc>Created with Sketch.</desc>
    <defs></defs>
    <g id="Page-1" stroke="none" stroke-width="1" fill="none" fill-rule="evenodd">
        <g id="like-copy-2" stroke-width="30" stroke="#000000">
            <g id="究极好奇红">
                <g>
                    <g id="商品详情-copy-2">
                        <g id="底部">
                            <g id="like-+-点赞">
                                <g id="like-+-赞">
                                    <g id="like">
                                        <g id="图层_1">
                                            <path d="M553.806033,135.407315 C549.727692,60.7857118 487.492807,0.130671221 405.691034,0.130671221 C351.547288,0.130671221 304.204899,26.6881461 278.380766,66.3075073 C277.968975,65.6885783 277.523794,65.0990145 277.100872,64.4902503 L277.100872,64.2135394 C277.079852,64.2575873 277.035332,64.3072824 277.014311,64.3513301 C276.971031,64.3072824 276.948771,64.2575873 276.90549,64.2135394 L276.90549,64.4902503 C276.493699,65.1001439 276.038624,65.6885783 275.647856,66.3075073 C249.81383,26.6881461 202.459075,0.130671221 148.316565,0.130671221 C66.5160299,0.130671221 4.28485233,60.7857118 0.196618534,135.407315 C-8.38793016,292.24934 269.031992,447.130671 274.172581,447.130671 C274.651148,447.130671 275.170525,447.047094 275.647856,447.031282 C276.049754,447.041447 276.493699,447.101306 276.90549,447.115989 L276.90549,447.130671 C276.948771,447.130671 276.971031,447.125024 277.014311,447.125024 C277.035332,447.125024 277.079852,447.130671 277.079852,447.130671 L277.100872,447.115989 C277.523794,447.102436 277.967739,447.041447 278.380766,447.031282 C278.846968,447.047094 279.379946,447.130671 279.835018,447.130671 C284.975609,447.130671 562.395528,292.24934 553.806033,135.407315 L553.806033,135.407315 Z" id="Shape"></path>
                                        </g>
                                    </g>
                                </g>
                            </g>
                        </g>
                    </g>
                </g>
            </g>
        </g>
    </g>
</svg>