<?xml version="1.0" encoding="UTF-8" standalone="no"?>
<svg width="554px" height="447px" viewBox="0 0 554 447" version="1.1" xmlns="http://www.w3.org/2000/svg" xmlns:xlink="http://www.w3.org/1999/xlink">
    <!-- Generator: Sketch 3.6.1 (26313) - http://www.bohemiancoding.com/sketch -->
    <title>Shape</title>
    <desc>Created with Sketch.</desc>
    <defs></defs>
    <g id="Page-1" stroke="none" stroke-width="1" fill="none" fill-rule="evenodd">
        <path d="M405.689597,0 C351.545851,0 304.203462,26.5574747 278.379328,66.1768355 C277.967537,65.5579066 277.522357,64.9683428 277.099437,64.3595789 C276.492261,64.9694725 276.037188,65.5579066 275.646419,66.1768355 C249.812393,26.5574747 202.457638,0 148.315128,0 C66.5145928,0 4.28341528,60.6550403 0.195181568,135.276642 C-8.38936724,292.118668 269.030554,447 274.171143,447 C276.048318,446.910773 276.492261,446.970634 276.904052,446.985317 C278.84553,446.916421 279.378509,447 279.833582,447 C284.974171,447 562.394091,292.118668 553.804596,135.276642 C549.726256,60.6550403 487.49137,0 405.689597,0 Z" id="Shape" fill="#000000"></path>
    </g>
</svg>