<?xml version="1.0" encoding="UTF-8" standalone="no"?>
<svg width="490px" height="448px" viewBox="0 0 490 448" version="1.1" xmlns="http://www.w3.org/2000/svg" xmlns:xlink="http://www.w3.org/1999/xlink">
    <!-- Generator: Sketch 3.6.1 (26313) - http://www.bohemiancoding.com/sketch -->
    <title>LIKE</title>
    <desc>Created with Sketch.</desc>
    <defs></defs>
    <g id="Page-1" stroke="none" stroke-width="1" fill="none" fill-rule="evenodd">
        <g id="LIKE" fill="#000000">
            <path d="M233.717566,442.344004 C236.607342,445.499306 240.766174,447.30021 245.108483,447.30021 L245.123773,447.30021 C249.466082,447.30021 253.624914,445.484424 256.51469,442.329122 L458.095696,222.48494 C478.385289,198.373669 489.562148,168.085746 489.562148,137.172716 C489.562148,61.9663898 425.451928,0.795204162 346.632898,0.795204162 C307.827331,0.795204162 271.651613,15.3810343 244.925005,41.3527421 C218.198397,15.3959178 182.02268,0.795204162 143.217112,0.795204162 C64.4133726,0.795204162 0.2878614,61.9663898 0.2878614,137.172716 C0.2878614,168.10063 11.4647209,198.418319 32.3047474,223.154697 C34.2618449,225.476523 186.976582,391.516851 233.717566,442.344004 L233.717566,442.344004 L233.717566,442.344004 Z M143.201823,30.5622045 C178.689499,30.5622045 211.363847,46.0112779 232.830756,72.9206459 C238.625599,80.183794 251.193832,80.183794 256.988674,72.9206459 C278.455583,45.9963943 311.129932,30.5622045 346.617608,30.5622045 C408.571963,30.5622045 458.967215,78.3828906 458.967215,137.172716 C458.967215,161.581657 450.481367,184.561781 434.855169,203.151273 L245.108483,410.091459 C175.14226,334.02189 59.1078048,207.824692 55.4382475,203.672195 C39.3686452,184.576664 30.882794,161.581657 30.882794,137.172716 C30.8675043,78.3977742 81.262756,30.5622045 143.201823,30.5622045 L143.201823,30.5622045 L143.201823,30.5622045 Z" id="Shape"></path>
        </g>
    </g>
</svg>