<?xml version="1.0" encoding="utf-8"?>
<!-- Generator: Adobe Illustrator 17.0.0, SVG Export Plug-In . SVG Version: 6.00 Build 0)  -->
<!DOCTYPE svg PUBLIC "-//W3C//DTD SVG 1.1//EN" "http://www.w3.org/Graphics/SVG/1.1/DTD/svg11.dtd">
<svg version="1.1" id="图层_1" xmlns="http://www.w3.org/2000/svg" xmlns:xlink="http://www.w3.org/1999/xlink" x="0px" y="0px"
	 width="512px" height="512px" viewBox="0 0 512 512" enable-background="new 0 0 512 512" xml:space="preserve">
<g>
	<g>
		<path fill="#070001" d="M402.981,189.625c-2.172,0-4.352-0.502-6.359-1.519c-4.737-2.392-7.72-7.253-7.72-12.559V83.04
			c0-5.307,2.983-10.167,7.72-12.559c4.73-2.393,10.414-1.938,14.697,1.216l62.94,46.25c3.609,2.654,5.74,6.86,5.74,11.342
			c0,4.482-2.13,8.689-5.74,11.343l-62.94,46.257C408.852,188.704,405.923,189.625,402.981,189.625z M417.06,110.853v36.873
			l25.092-18.437L417.06,110.853z"/>
	</g>
	<g>
		<path fill="#070001" d="M402.981,443.038c-2.172,0-4.352-0.502-6.359-1.519c-4.737-2.392-7.72-7.253-7.72-12.559v-92.507
			c0-5.307,2.983-10.167,7.72-12.559c4.73-2.393,10.414-1.932,14.697,1.216l62.94,46.25c3.609,2.654,5.74,6.861,5.74,11.342
			c0,4.482-2.13,8.689-5.74,11.343l-62.94,46.257C408.852,442.117,405.923,443.038,402.981,443.038z M417.06,364.266v36.874
			l25.092-18.437L417.06,364.266z"/>
	</g>
	<g>
		<path fill="#070001" d="M83.404,434.981c-25.236,0-42.311-7.947-43.391-8.462c-7.012-3.355-9.988-11.756-6.634-18.774
			c3.355-7.019,11.756-9.989,18.774-6.634c1.148,0.53,30.722,13.824,68.008-1.829c41.445-17.405,77.115-65.093,103.134-137.911
			C282.655,95.263,393.598,112.627,398.3,113.472c7.658,1.333,12.779,8.627,11.439,16.291c-1.327,7.623-8.586,12.718-16.203,11.46
			c-3.912-0.626-92.788-12.924-143.72,129.62c-29.333,82.065-69.553,134.124-119.55,154.733
			C113.086,432.658,97.049,434.981,83.404,434.981z"/>
	</g>
	<g>
		<path fill="#070001" d="M377.883,401.661c-39.479,0-123.352-16.601-155.029-151.055c-18.533-78.689-48.284-127.27-88.43-144.386
			c-41.17-17.578-80.731,5.314-81.136,5.54c-6.675,3.946-15.309,1.767-19.275-4.902c-3.967-6.661-1.829-15.26,4.819-19.255
			c2.083-1.258,51.708-30.453,106.235-7.459c49.047,20.692,84.437,75.871,105.189,164.006
			c35.286,149.749,138.193,129.188,142.565,128.253c7.555-1.643,15.082,3.134,16.76,10.696c1.685,7.562-3.032,15.055-10.587,16.773
			C398.671,399.95,390.559,401.661,377.883,401.661z"/>
	</g>
	<g>
		<path fill="#070001" d="M363.131,359.633c-0.502,0-1.004-0.055-1.512-0.164c-27.854-6.104-66.178-25.524-90.568-83.351
			c-1.506-3.581,0.172-7.713,3.753-9.225c3.574-1.485,7.713,0.172,9.225,3.753c22.038,52.272,55.997,69.677,80.601,75.074
			c3.801,0.832,6.2,4.585,5.369,8.38C369.276,357.391,366.369,359.633,363.131,359.633z"/>
	</g>
	<g>
		<path fill="#070001" d="M197.682,231.002c-2.805,0-5.452-1.685-6.544-4.448c-41.218-104.152-85.977-96.982-121.998-91.18
			l-5.548,0.873c-3.925,0.571-7.438-2.062-8.015-5.898c-0.584-3.849,2.055-7.438,5.898-8.015l5.43-0.859
			c36.633-5.878,91.944-14.78,137.32,99.897c1.431,3.616-0.337,7.706-3.953,9.136C199.42,230.843,198.547,231.002,197.682,231.002z"
			/>
	</g>
</g>
</svg>
