<?xml version="1.0" encoding="utf-8"?>
<!-- Generator: Adobe Illustrator 17.0.0, SVG Export Plug-In . SVG Version: 6.00 Build 0)  -->
<!DOCTYPE svg PUBLIC "-//W3C//DTD SVG 1.1//EN" "http://www.w3.org/Graphics/SVG/1.1/DTD/svg11.dtd">
<svg version="1.1" id="图层_1" xmlns="http://www.w3.org/2000/svg" xmlns:xlink="http://www.w3.org/1999/xlink" x="0px" y="0px"
	 width="512px" height="512px" viewBox="0 0 512 512" enable-background="new 0 0 512 512" xml:space="preserve">
<g id="Location">
	<g>
		<path fill="#040000" d="M256.812,118.692c-16.792,0-32.588,6.542-44.462,18.416c-24.509,24.509-24.509,64.387,0,88.896
			c11.88,11.874,27.676,18.416,44.468,18.416c16.792,0,32.582-6.542,44.448-18.416c24.51-24.509,24.51-64.387,0-88.896
			C289.4,125.233,273.609,118.692,256.812,118.692z M281.916,206.654c-6.702,6.702-15.615,10.397-25.098,10.397
			c-9.488,0-18.402-3.695-25.118-10.397c-13.838-13.839-13.838-36.357,0-50.195c6.716-6.71,15.629-10.397,25.112-10.397
			c9.481,0,18.395,3.687,25.104,10.397C295.754,170.296,295.754,192.815,281.916,206.654z M353.994,159.005
			c-0.487-2.064-0.809-3.561-1.062-4.717c-0.522-2.432-0.836-3.902-1.691-5.893c-1.496-3.475-5.539-5.038-8.993-3.582
			c-3.468,1.497-5.072,5.52-3.581,8.994c0.32,0.735,0.441,1.257,0.888,3.354c0.261,1.223,0.602,2.807,1.117,4.985
			c0.749,3.154,3.555,5.273,6.655,5.273c0.521,0,1.049-0.059,1.577-0.18C352.584,166.368,354.863,162.68,353.994,159.005z
			 M340.717,127.478c-16.331-25.739-42.991-42.858-73.154-46.974c-3.762-0.494-7.19,2.111-7.704,5.86
			c-0.507,3.742,2.111,7.19,5.86,7.704c26.154,3.561,49.273,18.415,63.439,40.747c1.303,2.052,3.522,3.174,5.786,3.174
			c1.257,0,2.519-0.34,3.662-1.063C341.793,134.902,342.742,130.672,340.717,127.478z M256.004,32
			c-81.019,0-146.93,65.911-146.93,146.924c0,52.861,76.208,220.705,96.681,261.058C223.422,474.802,245.238,480,256.671,480
			c19.818,0,37.867-14.232,50.83-40.078c19.419-38.722,95.426-208.726,95.426-260.998C402.927,97.91,337.015,32,256.004,32z
			 M283.031,427.653c-7.838,15.642-17.693,24.977-26.36,24.977c-8.774,0-18.436-9.12-26.508-25.036
			c-27.203-53.61-93.721-207.135-93.721-248.67c0-65.925,53.636-119.555,119.561-119.555c65.924,0,119.554,53.63,119.554,119.555
			C375.557,221.087,306.813,380.245,283.031,427.653z"/>
	</g>
</g>
</svg>
