<?xml version="1.0" encoding="utf-8"?>
<!-- Generator: Adobe Illustrator 17.0.0, SVG Export Plug-In . SVG Version: 6.00 Build 0)  -->
<!DOCTYPE svg PUBLIC "-//W3C//DTD SVG 1.1//EN" "http://www.w3.org/Graphics/SVG/1.1/DTD/svg11.dtd">
<svg version="1.1" id="图层_1" xmlns="http://www.w3.org/2000/svg" xmlns:xlink="http://www.w3.org/1999/xlink" x="0px" y="0px"
	 width="512px" height="512px" viewBox="0 0 512 512" enable-background="new 0 0 512 512" xml:space="preserve">
<g>
	<g id="Lock_24_">
		<g>
			<path fill="#070001" d="M465.909,188.466H47.875C39.6,188.466,32,195.173,32,203.448v201.24c0,62.023,29.857,73.78,83.298,73.78
				h298.171c61.608,0,66.531-20.236,66.531-73.78v-201.24C480,195.173,474.184,188.466,465.909,188.466z M413.469,448.503H115.298
				c-45.577,0-53.332-5.736-53.332-43.814V218.431h388.068v186.258C450.034,448.503,450.926,448.503,413.469,448.503z
				 M137.773,261.217h-37.457c-4.141,0-8.383,3.35-8.383,7.492v82.405c0,4.141,3.351,7.492,7.492,7.492
				c4.133,0,7.492-3.351,7.492-7.492v-74.914h30.858c4.133,0,7.492-3.351,7.492-7.492
				C145.264,264.567,141.906,261.217,137.773,261.217z M99.423,373.589c-4.14,0-7.492,3.351-7.492,7.492v7.492
				c0,4.141,3.351,7.491,7.492,7.491c4.133,0,7.492-3.35,7.492-7.491v-7.492C106.915,376.94,103.557,373.589,99.423,373.589z"/>
		</g>
	</g>
	<path fill="#070001" stroke="#070001" stroke-width="7" stroke-miterlimit="10" d="M305.442,33.531h-94.441
		c-49.619,0-93.778,43.066-93.778,92.164v78.103c0,5.877,4.822,10.642,10.77,10.642s10.77-4.764,10.77-10.642v-78.103
		c0-37.761,34.094-70.88,72.237-70.88h94.441c36.728,0,67.115,32.46,67.115,70.88v78.103c0,5.877,4.822,10.642,10.77,10.642
		s10.77-4.764,10.77-10.642v-78.103C394.098,74.878,354.682,33.531,305.442,33.531z"/>
	<g id="lock">
		<g>
			<path fill="#070001" d="M281.837,309.685c0-16.137-13.081-29.217-29.217-29.217c-16.138,0-29.217,13.081-29.217,29.217
				c0,12.72,8.131,23.537,19.478,27.549v21.147c0,5.38,4.361,9.741,9.74,9.741c5.378,0,9.739-4.361,9.739-9.741v-21.147
				C273.705,333.221,281.837,322.405,281.837,309.685z M252.62,319.424c-5.379,0-9.74-4.361-9.74-9.74s4.361-9.74,9.74-9.74
				c5.378,0,9.739,4.361,9.739,9.74C262.359,315.063,257.998,319.424,252.62,319.424z"/>
		</g>
	</g>
</g>
</svg>
