<?xml version="1.0" encoding="UTF-8" standalone="no"?>
<svg width="448px" height="448px" viewBox="0 0 448 448" version="1.1" xmlns="http://www.w3.org/2000/svg" xmlns:xlink="http://www.w3.org/1999/xlink">
    <!-- Generator: Sketch 3.6.1 (26313) - http://www.bohemiancoding.com/sketch -->
    <title>boy </title>
    <desc>Created with Sketch.</desc>
    <defs></defs>
    <g id="Page-1" stroke="none" stroke-width="1" fill="none" fill-rule="evenodd">
        <g id="boy-" fill="#000000">
            <path d="M446.89396,15.6647691 L447.440066,10.5587041 C447.49437,7.7265974 446.838633,5.20752345 445.008719,3.39622119 C443.191614,1.57828033 440.651149,0.468621664 437.823287,0.550326875 L432.714691,0.659096824 C432.61838,0.659096824 432.550758,0.69994918 432.441639,0.713226295 L304.146342,0.2776355 C298.491131,0.400193068 293.81901,5.05687965 293.68274,10.7011773 L293.668908,17.8565107 C294.529562,24.5011866 299.774939,28.3821839 305.416833,28.2596263 L399.489359,28.4501015 L287.537775,139.361857 C257.165407,113.98473 218.021543,98.6971754 175.291622,98.6971754 C78.728834,98.6971754 0.443155499,176.726159 0.443155499,272.987661 C0.443155499,369.242014 78.728834,447.277635 175.291622,447.277635 C271.854409,447.277635 350.140089,369.242523 350.140089,272.987661 C350.140089,229.363208 334.061743,189.483406 307.490597,158.913913 L419.737774,47.7090404 L419.32845,143.195874 C419.205501,148.826384 423.686024,153.728186 429.341235,153.59899 L436.512325,153.592351 C442.167537,153.463155 446.852979,150.106603 446.97644,144.476093 L447.277158,15.9303104 C447.276645,15.8348181 446.89396,15.7602619 446.89396,15.6647691 L446.89396,15.6647691 L446.89396,15.6647691 Z M322.395788,272.987662 C322.395788,353.970801 256.527088,419.621956 175.291109,419.621956 C94.0551298,419.621956 28.1859189,353.970801 28.1859189,272.987662 C28.1859189,191.996864 94.0546182,126.352346 175.290597,126.352346 C256.526577,126.352346 322.395788,191.996863 322.395788,272.987662 L322.395788,272.987662 L322.395788,272.987662 Z" id="Shape"></path>
        </g>
    </g>
</svg>