<?xml version="1.0" encoding="utf-8"?>
<!-- Generator: Adobe Illustrator 17.0.0, SVG Export Plug-In . SVG Version: 6.00 Build 0)  -->
<!DOCTYPE svg PUBLIC "-//W3C//DTD SVG 1.1//EN" "http://www.w3.org/Graphics/SVG/1.1/DTD/svg11.dtd">
<svg version="1.1" id="图层_1" xmlns="http://www.w3.org/2000/svg" xmlns:xlink="http://www.w3.org/1999/xlink" x="0px" y="0px"
	 width="512px" height="512px" viewBox="0 0 512 512" enable-background="new 0 0 512 512" xml:space="preserve">
<g id="Letter_4_">
	<g>
		<path fill="#070001" d="M432.226,80.246H79.775C53.39,80.246,32,101.637,32,128.02v255.959c0,26.384,21.39,47.775,47.775,47.775
			h352.451c26.384,0,47.774-21.39,47.774-47.774V128.02C480,101.637,458.61,80.246,432.226,80.246z M452.431,383.98
			c0,11.16-9.047,20.206-20.206,20.206H79.775c-11.16,0-20.206-9.047-20.206-20.206V128.02c0-11.159,9.046-20.205,20.206-20.205
			h352.451c11.159,0,20.206,9.046,20.206,20.205L452.431,383.98L452.431,383.98z M358.792,194.709l-108.54,86.43l-111.239-90.57
			c-2.955-2.41-7.303-1.945-9.699,0.99c-2.403,2.954-1.958,7.297,0.99,9.698l66.402,54.064l-33.994,38.296
			c-2.524,2.847-2.268,7.202,0.579,9.732c1.313,1.165,2.949,1.737,4.577,1.737c1.898,0,3.789-0.781,5.155-2.316l34.385-38.737
			l38.442,31.299c1.273,1.03,2.813,1.548,4.355,1.548c1.521,0,3.035-0.498,4.294-1.5l38.302-30.5
			c0.188,0.319,0.398,0.631,0.643,0.925l41.461,49.592c1.367,1.629,3.326,2.471,5.297,2.471c1.555,0,3.122-0.525,4.415-1.602
			c2.922-2.443,3.305-6.791,0.868-9.712l-41.461-49.593c-0.173-0.207-0.358-0.398-0.55-0.579l63.906-50.89
			c2.975-2.371,3.466-6.704,1.096-9.686C366.116,192.832,361.781,192.334,358.792,194.709z M157.704,310.385
			c-2.934-2.443-7.277-2.046-9.706,0.875l-3.015,3.614c-2.443,2.921-2.047,7.27,0.875,9.706c1.292,1.077,2.854,1.602,4.409,1.602
			c1.979,0,3.937-0.842,5.297-2.477l3.015-3.615C161.022,317.17,160.625,312.821,157.704,310.385z"/>
	</g>
</g>
</svg>
