<?xml version="1.0" encoding="utf-8"?>
<!-- Generator: Adobe Illustrator 17.0.0, SVG Export Plug-In . SVG Version: 6.00 Build 0)  -->
<!DOCTYPE svg PUBLIC "-//W3C//DTD SVG 1.1//EN" "http://www.w3.org/Graphics/SVG/1.1/DTD/svg11.dtd">
<svg version="1.1" id="图层_1" xmlns="http://www.w3.org/2000/svg" xmlns:xlink="http://www.w3.org/1999/xlink" x="0px" y="0px"
	 width="512px" height="512px" viewBox="0 0 512 512" enable-background="new 0 0 512 512" xml:space="preserve">
<g>
	<g>
		<path fill="#070001" d="M255.925,475.584c-64.149,0-128.311-0.865-192.417,0.458c-23.51,0.485-30.406-8.648-26.179-27.907
			c8.467-38.586,24.261-73.83,54.513-102.353c9.023-8.503,15.432-11.791,26.513-1.704c49.314,44.887,110.793,54.164,175.025,45.949
			c35.577-4.546,70.308-16.928,96.334-43.328c11.136-11.307,20.646-11.661,32.56,0.498c28.334,28.903,43.948,63.322,52.386,101.017
			c4.337,19.417-3.003,28.3-26.318,27.828C384.222,474.745,320.06,475.584,255.925,475.584z M256.064,457.804
			c59.992,0,119.997-0.616,179.961,0.354c19.492,0.314,24.177-7.822,19.019-22.575c-7.174-20.505-15.001-40.839-28.988-58.671
			c-11.832-15.094-22.022-20.046-40.235-6.459c-33.979,25.365-74.882,35.808-117.383,38.494
			c-51.97,3.288-100.449-9.302-142.298-38.599c-18.532-12.984-28.417-8.582-40.319,6.59c-14.014,17.871-21.675,38.245-28.877,58.749
			c-5.227,14.91-0.167,22.797,19.144,22.496C136.067,457.242,196.073,457.831,256.064,457.804z"/>
		<path fill="#070001" d="M61.756,479.986c-12.151,0-20.368-2.673-25.123-8.189c-4.7-5.437-5.812-13.429-3.392-24.461
			c9.649-43.997,27.848-78.128,55.64-104.344c4.672-4.402,10.232-9.093,17.073-9.093c4.936,0,9.802,2.332,15.307,7.35
			c43.391,39.516,99.101,54.099,171.55,44.887c39.735-5.084,71.295-19.246,93.845-42.11c13.152-13.377,25.248-13.22,38.678,0.511
			c26.485,27.003,43.962,60.65,53.401,102.877c2.447,10.914,1.348,18.867-3.35,24.317c-4.784,5.556-13.084,8.269-25.36,8.269
			l-1.78-0.026c-24.302-0.485-50.774-0.721-83.307-0.721c-18.171,0-36.328,0.066-54.486,0.144
			c-36.134,0.131-72.24,0.118-108.36-0.013c-18.421-0.079-36.829-0.144-55.237-0.144c-32.477,0-58.935,0.236-83.251,0.734
			L61.756,479.986z M105.953,341.773c-3.281,0-6.84,2.712-11.164,6.786c-26.61,25.104-44.059,57.937-53.374,100.375
			c-1.877,8.569-1.334,14.438,1.683,17.91c3.073,3.551,9.176,5.28,18.658,5.28l1.669-0.013c24.372-0.498,50.885-0.746,83.432-0.746
			c18.421,0,36.843,0.079,55.265,0.158c36.092,0.131,72.185,0.158,108.305,0c18.171-0.066,36.356-0.131,54.527-0.131
			c32.602,0,59.13,0.223,83.488,0.721l1.613,0.013c9.607,0,15.794-1.755,18.881-5.345c3.003-3.498,3.546-9.302,1.669-17.753
			c-9.134-40.773-25.929-73.215-51.372-99.143c-10.08-10.298-16.586-10.534-26.443-0.498
			c-23.886,24.239-57.128,39.215-98.822,44.534c-75.118,9.643-133.163-5.751-178.473-47.01
			C111.668,343.45,108.554,341.773,105.953,341.773z M75.019,462.116c-10.482,0-17.406-2.397-21.188-7.337
			c-3.685-4.795-3.949-11.451-0.834-20.334c7.452-21.226,15.321-41.782,29.474-59.85c6.131-7.835,13.875-15.84,24.706-15.84
			c6.409,0,13.236,2.686,21.452,8.438c40.458,28.313,87.783,41.141,139.531,37.838c47.52-3,85.156-15.316,115.075-37.656
			c7.925-5.909,14.904-8.791,21.341-8.791c10.831,0,18.63,8.084,24.845,15.998c14.445,18.408,22.536,39.621,29.599,59.771
			c3.142,8.962,2.864,15.644-0.82,20.452c-3.768,4.913-10.65,7.297-21.063,7.297l-1.168-0.013
			c-43.127-0.695-86.241-0.577-129.368-0.432c-16.851,0.039-33.687,0.092-50.537,0.092h-3.907c-15.947,0-31.88-0.039-47.827-0.079
			c-42.696-0.105-85.434-0.21-128.158,0.445L75.019,462.116L75.019,462.116z M107.177,366.615c-5.742,0-10.956,3.669-17.991,12.657
			c-13.43,17.138-21.035,37.053-28.265,57.649c-2.183,6.237-2.294,10.678-0.319,13.272c2.071,2.686,6.924,4.062,14.431,4.062
			c44.364-0.682,86.546-0.59,129.312-0.445c15.933,0.039,31.866,0.079,47.813,0.079h3.907c16.837,0,33.673-0.052,50.509-0.105
			c43.183-0.144,86.366-0.249,129.535,0.445c0.028,0,0.056,0,0.083,0c8.397,0,13.194-1.362,15.238-4.035
			c1.988-2.568,1.863-7.075-0.333-13.377c-7.132-20.36-14.668-40.079-28.39-57.557c-12.61-16.089-19.812-16.535-34.285-5.726
			c-31.282,23.348-70.433,36.228-119.705,39.345c-53.721,3.341-102.965-9.931-145.064-39.371
			C117.034,368.868,111.654,366.615,107.177,366.615z"/>
	</g>
	<g>
		<g>
			<path fill="#070001" d="M424.042,203.107c-3.798,94.456-71.171,167.323-167.404,167.767
				c-97.774,0.457-166.243-71.641-168.605-163.475C85.513,109.72,159.791,37.31,253.505,35.94
				C347.637,34.544,420.583,107.06,424.042,203.107z M255.294,354.346c82.749,3.718,149.311-68.719,151.896-144.274
				c3.185-93.674-73.467-157.396-150.172-158.075c-81.079-0.704-154.977,66.932-153.203,155.27
				C105.356,283.788,172.583,358.077,255.294,354.346z"/>
			<path fill="#070001" d="M255.711,374.775c-96.925,0-169.101-70.35-171.607-167.272c-1.214-47.105,15.286-90.908,46.472-123.35
				c31.629-32.911,75.269-51.422,122.864-52.126L256.181,32c94.406,0,168.253,73.507,171.777,170.963
				c-3.981,99.231-76.026,171.381-171.307,171.811L255.711,374.775L255.711,374.775z M256.181,39.84l-2.624,0.013
				c-45.48,0.665-87.148,18.328-117.329,49.713c-29.711,30.929-45.441,72.737-44.292,117.728
				c2.389,92.513,71.262,159.653,163.775,159.653v3.913l0.9-3.913c90.947-0.417,159.702-69.398,163.514-163.997
				C416.771,110.085,346.293,39.84,256.181,39.84z M261.429,358.404c-2.036,0-4.073-0.039-6.122-0.143
				c-80.439,3.614-153.736-68.393-155.408-150.914c-0.849-41.912,14.973-81.594,44.553-111.753
				c29.62-30.186,70.178-47.522,111.298-47.522l1.305,0.013c41.316,0.353,81.901,18.184,111.337,48.891
				c29.006,30.25,44.174,70.454,42.712,113.227C408.377,290.532,339.831,358.404,261.429,358.404z M255.294,350.42l0.183,0.013
				c1.984,0.091,3.968,0.143,5.953,0.143c66.196,0,138.986-56.509,141.844-140.621c1.383-40.647-13.015-78.842-40.533-107.553
				C334.74,73.208,296.205,56.264,256.99,55.925h-1.24c-39.018,0-77.554,16.462-105.711,45.16
				c-28.079,28.62-43.117,66.306-42.321,106.105c1.592,78.372,70.909,146.869,147.406,143.243L255.294,350.42z"/>
		</g>
		<g>
			<path fill="#070001" d="M210.362,305.781c-41.499-23.519-67.267-67.689-67.267-115.289c0-3.509-2.845-6.352-6.357-6.352
				s-6.357,2.844-6.357,6.352c0,52.153,28.248,100.561,73.703,126.338c0.992,0.561,2.062,0.822,3.133,0.822
				c2.219,0,4.36-1.148,5.535-3.222C214.486,311.391,213.416,307.503,210.362,305.781z M245.033,323.183
				c-2.481-0.639-4.908-1.344-7.336-2.113c-3.368-1.07-6.919,0.782-7.989,4.122c-1.057,3.34,0.783,6.913,4.125,7.983
				c2.65,0.835,5.3,1.605,8.015,2.309c0.535,0.143,1.07,0.209,1.592,0.209c2.832,0,5.404-1.905,6.149-4.761
				C250.477,327.527,248.427,324.057,245.033,323.183z"/>
		</g>
		<g>
			<g>
				<path fill="#070001" d="M243.44,339.58c-0.966,0-1.841-0.117-2.676-0.353c-2.676-0.678-5.404-1.448-8.12-2.322
					c-5.391-1.722-8.381-7.5-6.683-12.888c1.71-5.323,7.637-8.388,12.924-6.666c2.336,0.744,4.713,1.409,7.128,2.048
					c2.637,0.678,4.869,2.348,6.253,4.696c1.396,2.374,1.788,5.14,1.096,7.801C252.226,336.423,248.14,339.58,243.44,339.58z
					 M236.104,324.787c-1.553,0-2.363,0.652-2.663,1.592c-0.404,1.278,0.313,2.648,1.593,3.052c2.572,0.809,5.156,1.565,7.78,2.23
					l0.627,0.091c1.109,0,2.075-0.757,2.349-1.813c0.17-0.652,0.079-1.305-0.261-1.865c-0.326-0.561-0.849-0.952-1.475-1.109
					c-2.572-0.678-5.052-1.396-7.545-2.179C236.378,324.787,236.234,324.787,236.104,324.787z M207.229,321.565
					c-1.775,0-3.524-0.457-5.064-1.344c-46.694-26.455-75.686-76.181-75.686-129.729c0-5.674,4.608-10.266,10.273-10.266
					c5.666,0,10.273,4.605,10.273,10.266c0,46.191,25.024,89.056,65.283,111.884c2.376,1.344,4.099,3.535,4.83,6.183
					c0.731,2.648,0.392,5.414-0.966,7.814C214.343,319.583,210.923,321.565,207.229,321.565z M136.737,188.054
					c-1.345,0-2.441,1.096-2.441,2.453c0,50.757,27.478,97.848,71.731,122.933c1.175,0.639,2.689,0.209,3.328-0.926
					c0.313-0.561,0.392-1.213,0.222-1.852c-0.183-0.626-0.574-1.148-1.136-1.461c-42.725-24.198-69.264-69.685-69.264-118.694
					C139.179,189.149,138.081,188.054,136.737,188.054z"/>
			</g>
		</g>
	</g>
</g>
</svg>
