<?xml version="1.0" encoding="utf-8"?>
<!-- Generator: Adobe Illustrator 17.0.0, SVG Export Plug-In . SVG Version: 6.00 Build 0)  -->
<!DOCTYPE svg PUBLIC "-//W3C//DTD SVG 1.1//EN" "http://www.w3.org/Graphics/SVG/1.1/DTD/svg11.dtd">
<svg version="1.1" id="图层_1" xmlns="http://www.w3.org/2000/svg" xmlns:xlink="http://www.w3.org/1999/xlink" x="0px" y="0px"
	 width="512px" height="512px" viewBox="0 0 512 512" enable-background="new 0 0 512 512" xml:space="preserve">
<g>
	<g>
		<g>
			<path fill="#060001" d="M332.378,346.125l-39.491-13.002c-13.756,5.502-28.472,8.291-43.783,8.291
				c-56.862,0-103.123-39.368-103.123-87.766s46.261-87.774,103.123-87.774s103.123,39.376,103.123,87.774
				c0,22.186-9.617,43.141-27.169,59.371L332.378,346.125z M249.104,177.679c-50.354,0-91.32,34.081-91.32,75.97
				s40.967,75.962,91.32,75.962c14.494,0,28.375-2.759,41.259-8.207l2.04-0.868l23.976,7.899l-4.353-19.695l2.678-2.298
				c16.587-14.255,25.721-33.005,25.721-52.793C340.424,211.76,299.457,177.679,249.104,177.679z"/>
		</g>
		<circle fill="#060001" cx="207.737" cy="254.512" r="12.26"/>
		<circle fill="#060001" cx="247.571" cy="254.512" r="12.26"/>
		<circle fill="#060001" cx="287.411" cy="254.512" r="12.26"/>
	</g>
	<g id="Refresh_2_">
		<g>
			<path fill="#060001" d="M256,32C132.482,32,31.997,132.486,31.997,256.003C31.997,379.514,132.483,480,256,480
				c123.519,0,224.004-100.486,224.004-223.997C480.003,132.486,379.518,32,256,32z M256,452.416
				c-108.304,0-196.418-88.107-196.418-196.412S147.696,59.585,256,59.585c108.305,0,196.418,88.114,196.418,196.419
				S364.305,452.416,256,452.416z M301.836,88.698c-3.63-0.976-7.462,1.158-8.472,4.836c-1.004,3.677,1.158,7.468,4.835,8.471
				c69.143,18.904,117.436,82.229,117.436,153.998c0,3.811,3.084,6.896,6.896,6.896c3.812,0,6.896-3.084,6.896-6.896
				C429.427,178.031,376.959,109.238,301.836,88.698z M265.671,82.839c-3.213-0.175-6.432-0.269-9.671-0.269
				c-3.812,0-6.896,3.085-6.896,6.896c0,3.812,3.084,6.896,6.896,6.896c2.984,0,5.961,0.081,8.917,0.243
				c0.128,0.013,0.255,0.013,0.384,0.013c3.637,0,6.681-2.849,6.875-6.518C272.385,86.293,269.475,83.041,265.671,82.839z"/>
		</g>
	</g>
</g>
</svg>
