<?xml version="1.0" encoding="UTF-8" standalone="no"?>
<svg width="337px" height="448px" viewBox="0 0 337 448" version="1.1" xmlns="http://www.w3.org/2000/svg" xmlns:xlink="http://www.w3.org/1999/xlink">
    <!-- Generator: Sketch 3.6.1 (26313) - http://www.bohemiancoding.com/sketch -->
    <title>news</title>
    <desc>Created with Sketch.</desc>
    <defs></defs>
    <g id="Page-1" stroke="none" stroke-width="1" fill="none" fill-rule="evenodd">
        <g id="news" fill="#000000">
            <path d="M212.852989,370.792497 L124.55621,370.792497 C119.627573,370.792497 114.933913,372.882266 111.668271,376.587502 C108.373256,380.292737 106.741236,385.264233 107.207451,390.235188 C108.700087,405.751813 115.726425,420.128363 127.043759,430.64194 C138.406486,441.281709 153.221769,447.139808 168.736107,447.139808 C184.233891,447.139808 199.049173,441.281163 210.397481,430.674032 C221.729769,420.128363 228.756106,405.752356 230.264229,390.141091 C230.575041,385.105407 228.941418,380.197548 225.755881,376.587502 C222.475286,372.882266 217.781626,370.792497 212.852989,370.792497 L212.852989,370.792497 L212.852989,370.792497 Z M192.582507,410.787495 C179.492701,422.947539 157.82304,422.915992 144.795717,410.819586 C140.831553,407.11435 137.800353,402.618245 135.841501,397.678295 L201.505215,397.678295 C199.562384,402.649794 196.56109,407.113807 192.582507,410.787495 L192.582507,410.787495 L192.582507,410.787495 Z" id="Shape"></path>
            <path d="M330.142691,296.249936 L297.388003,252.170588 L297.388003,232.91718 L297.388003,225.982646 L297.388003,169.791118 C297.388003,132.187226 284.750528,97.322554 261.80505,71.6252378 C248.234609,56.4094063 231.89625,45.1996024 213.241769,38.2329773 C211.516291,28.1632453 206.603142,18.9637978 199.189626,12.0771302 C182.463021,-3.47104085 154.77582,-3.47104085 138.080189,12.0771302 C130.587636,19.0116635 125.67502,28.2268849 123.996538,38.265069 C105.358077,45.1996024 89.019184,56.4094063 75.4487437,71.6410117 C52.5187534,97.3856498 39.8652565,132.250322 39.8652565,169.791118 L39.9587133,252.012848 L7.43793402,295.838728 C2.86763686,300.810227 0.349647444,307.270455 0.349647444,314.047249 L0.349647444,335.485067 C0.349647444,350.178729 12.0712481,362.084759 26.4657089,362.084759 L310.789689,362.084759 C325.199102,362.084759 336.889194,350.178183 336.889194,335.485067 L336.889194,314.047249 C336.888659,307.269909 334.386158,300.809681 330.142691,296.249936 L330.142691,296.249936 L330.142691,296.249936 Z M182.539388,31.2978998 C178.684168,30.9492422 172.466363,30.2845627 168.673625,30.2845627 C164.864866,30.2845627 158.398199,30.949786 154.557932,31.2978998 C161.039552,20.5319408 177.720763,22.5265235 182.539388,31.2978998 L182.539388,31.2978998 L182.539388,31.2978998 Z M26.8384665,335.484524 L26.7759839,314.204443 L59.2967633,270.379109 C63.8360866,265.407065 66.3546098,258.978929 66.3546098,252.170588 L66.3546105,169.791118 C66.3546105,138.931928 76.5520666,110.495936 95.0506094,89.7227969 C104.222179,79.4311423 115.042323,71.4511802 127.167122,65.9727414 C152.661563,54.4142795 184.73108,54.4142795 210.195615,65.9727414 C222.366342,71.5142761 233.154978,79.4942381 242.31106,89.7227969 C260.811204,110.495936 270.992639,138.931928 270.992639,169.791118 L270.992639,225.983192 L270.992639,232.917726 L270.992639,252.171131 C270.992639,259.010476 273.511164,265.502797 277.754096,269.998903 L310.523203,314.046706 L310.78862,335.199506 L26.8384665,335.484524 L26.8384665,335.484524 L26.8384665,335.484524 Z" id="Shape"></path>
        </g>
    </g>
</svg>