<?xml version="1.0" encoding="utf-8"?>
<!-- Generator: Adobe Illustrator 17.0.0, SVG Export Plug-In . SVG Version: 6.00 Build 0)  -->
<!DOCTYPE svg PUBLIC "-//W3C//DTD SVG 1.1//EN" "http://www.w3.org/Graphics/SVG/1.1/DTD/svg11.dtd">
<svg version="1.1" id="图层_1" xmlns="http://www.w3.org/2000/svg" xmlns:xlink="http://www.w3.org/1999/xlink" x="0px" y="0px"
	 width="512px" height="512px" viewBox="0 0 512 512" enable-background="new 0 0 512 512" xml:space="preserve">
<g id="Document">
	<g>
		<path fill="#070001" d="M430.898,195.625L270.65,36.375c-2.632-2.666-6.214-4.375-9.96-4.375h-140.8
			C94.768,32,74,51.304,74,79.408v350.956C74,456.566,92.662,480,119.89,480h266.964C412.523,480,438,458.904,438,430.364V205.57
			C438,201.886,433.488,198.243,430.898,195.625z M270,74.787L398.392,200H295.211C279.4,200,270,185.877,270,171.05V74.787z
			 M410,430.364c0,10.965-11.97,21.635-23.146,21.635H119.89c-11.895,0-17.89-10.704-17.89-21.635V79.408
			C102,68.545,108.549,60,119.89,60h134.949L256,61.132V171.05c0,22.299,15.908,42.95,39.211,42.95H410V430.364z M144.868,277h56
			c3.869,0,7-3.132,7-7c0-3.869-3.131-7.001-7-7.001h-56c-3.862,0-7,3.132-7,7.001C137.868,273.868,141.007,277,144.868,277z
			 M221.868,270c0,3.868,3.139,7,7.007,7h70c3.869,0,7-3.132,7-7c0-3.869-3.131-7.001-7-7.001h-70
			C225.007,262.999,221.868,266.131,221.868,270z M326.875,277h28c3.869,0,7-3.132,7-7c0-3.869-3.131-7.001-7-7.001h-28
			c-3.868,0-7,3.132-7,7.001C319.875,273.868,323.007,277,326.875,277z M144.868,311.999h28c3.869,0,7-3.131,7-7
			c0-3.868-3.131-7-7-7h-28c-3.862,0-7,3.132-7,7C137.868,308.869,141.007,311.999,144.868,311.999z M193.868,305
			c0,3.869,3.138,7,7,7h56.007c3.869,0,7-3.131,7-7c0-3.868-3.131-7-7-7h-56.007C197.007,298,193.868,301.131,193.868,305z
			 M354.875,298h-70c-3.869,0-7,3.132-7,7c0,3.869,3.132,7,7,7h70c3.869,0,7-3.131,7-7S358.744,298,354.875,298z M144.868,354h70
			c3.87,0,7-3.131,7-7c0-3.868-3.13-7-7-7h-70c-3.862,0-7,3.132-7,7C137.868,350.869,141.007,354,144.868,354z M312.875,340h-70
			c-3.869,0-7,3.132-7,7c0,3.869,3.132,7,7,7h70c3.869,0,7-3.131,7-7S316.744,340,312.875,340z M354.875,340h-14
			c-3.869,0-7,3.132-7,7c0,3.869,3.131,7,7,7h14c3.869,0,7-3.131,7-7S358.744,340,354.875,340z M172.868,375h-28
			c-3.862,0-7,3.131-7,7c0,3.868,3.138,7,7,7h28c3.869,0,7-3.132,7-7C179.868,378.131,176.738,375,172.868,375z M249.875,375
			h-49.007c-3.862,0-7,3.131-7,7c0,3.868,3.138,7,7,7h49.007c3.862,0,7-3.132,7-7C256.875,378.131,253.738,375,249.875,375z"/>
	</g>
</g>
</svg>
