<?xml version="1.0" encoding="utf-8"?>
<!-- Generator: Adobe Illustrator 17.0.0, SVG Export Plug-In . SVG Version: 6.00 Build 0)  -->
<!DOCTYPE svg PUBLIC "-//W3C//DTD SVG 1.1//EN" "http://www.w3.org/Graphics/SVG/1.1/DTD/svg11.dtd">
<svg version="1.1" id="图层_1" xmlns="http://www.w3.org/2000/svg" xmlns:xlink="http://www.w3.org/1999/xlink" x="0px" y="0px"
	 width="512px" height="512px" viewBox="0 0 512 512" enable-background="new 0 0 512 512" xml:space="preserve">
<g>
	<path fill="#070001" d="M279.463,480C155.95,480,55.468,379.511,55.468,256S155.95,32,279.463,32
		c65.424,0,127.416,28.515,170.075,78.221l6.994,8.152L322.397,256l134.135,137.627l-6.994,8.152
		C406.866,451.484,344.876,480,279.463,480z M279.463,55.483C168.902,55.483,78.95,145.433,78.95,256
		s89.952,200.517,200.513,200.517c54.979,0,107.259-22.496,145.062-62.089L289.604,256l134.92-138.429
		C386.733,77.979,334.453,55.483,279.463,55.483z"/>
	<path fill="#070001" d="M332.533,158.803c-19.561,0-35.476-15.904-35.476-35.454c0-19.561,15.916-35.475,35.476-35.475
		c19.561,0,35.476,15.914,35.476,35.475C368.009,142.899,352.094,158.803,332.533,158.803z M332.533,99.615
		c-13.089,0-23.735,10.651-23.735,23.734c0,13.071,10.645,23.712,23.735,23.712c13.088,0,23.735-10.641,23.735-23.712
		C356.268,110.267,345.621,99.615,332.533,99.615z"/>
</g>
</svg>
