<?xml version="1.0" encoding="utf-8"?>
<!-- Generator: Adobe Illustrator 17.0.0, SVG Export Plug-In . SVG Version: 6.00 Build 0)  -->
<!DOCTYPE svg PUBLIC "-//W3C//DTD SVG 1.1//EN" "http://www.w3.org/Graphics/SVG/1.1/DTD/svg11.dtd">
<svg version="1.1" id="图层_1" xmlns="http://www.w3.org/2000/svg" xmlns:xlink="http://www.w3.org/1999/xlink" x="0px" y="0px"
	 width="512px" height="512px" viewBox="0 0 512 512" enable-background="new 0 0 512 512" xml:space="preserve">
<g>
	<g id="Diagramm_4_">
		<g>
			<path fill="#070001" d="M381.763,70.636C344.573,45.358,301.103,32,256.037,32c-59.709,0-115.949,23.26-158.375,65.523
				C55.317,139.881,32,196.158,32,256c0,123.518,100.507,224,224.037,224c117.544,0,215.666-91.789,223.376-208.718
				C479.81,266.523,480,261.524,480,256C480,181.722,443.273,112.422,381.763,70.636z M451.664,243.386l-178.953,5.147
				l122.991-130.074C428.582,151.844,448.626,196.086,451.664,243.386z M256.037,59.931c39.441,0,77.491,11.687,110.031,33.807
				c6.859,4.659,13.361,9.713,19.494,15.114L255.902,245.984L122.41,112.476C158.913,78.542,206.086,59.931,256.037,59.931z
				 M451.564,269.195c-6.757,102.549-92.64,182.875-195.527,182.875c-108.135,0-196.111-87.957-196.111-196.07
				c0-50.04,18.646-97.229,52.604-133.658l138.573,138.595c0.018,0.017,0.037,0.032,0.055,0.05c0.059,0.058,0.123,0.111,0.185,0.167
				c0.104,0.095,0.206,0.191,0.316,0.279c0.067,0.054,0.138,0.102,0.207,0.153c0.109,0.081,0.216,0.164,0.328,0.239
				c0.113,0.074,0.233,0.141,0.349,0.209c0.074,0.042,0.144,0.089,0.219,0.13c0.787,0.42,1.662,0.693,2.588,0.784
				c0.228,0.023,0.458,0.034,0.689,0.034h0.205l195.821-5.632C452.035,261.546,451.883,265.391,451.564,269.195z M89.099,275.946
				c3.846-0.321,6.709-3.689,6.388-7.536c-0.334-4.112-0.505-8.292-0.505-12.411c0-3.859-3.13-6.982-6.982-6.982
				c-3.859,0-6.982,3.124-6.982,6.982c0,4.501,0.184,9.063,0.552,13.556c0.3,3.649,3.355,6.409,6.955,6.409
				C88.717,275.966,88.908,275.959,89.099,275.946z M155.204,375.583c-25.294-18.773-43.688-44.452-53.206-74.278
				c-1.172-3.676-5.092-5.715-8.774-4.534c-3.668,1.173-5.7,5.107-4.526,8.775c10.411,32.629,30.53,60.729,58.189,81.247
				c1.248,0.927,2.706,1.376,4.152,1.376c2.133,0,4.24-0.974,5.611-2.823C158.947,382.252,158.299,377.88,155.204,375.583z"/>
		</g>
	</g>
</g>
</svg>
