<?xml version="1.0" encoding="utf-8"?>
<!-- Generator: Adobe Illustrator 17.0.0, SVG Export Plug-In . SVG Version: 6.00 Build 0)  -->
<!DOCTYPE svg PUBLIC "-//W3C//DTD SVG 1.1//EN" "http://www.w3.org/Graphics/SVG/1.1/DTD/svg11.dtd">
<svg version="1.1" id="图层_1" xmlns="http://www.w3.org/2000/svg" xmlns:xlink="http://www.w3.org/1999/xlink" x="0px" y="0px"
	 width="512px" height="512px" viewBox="0 0 512 512" enable-background="new 0 0 512 512" xml:space="preserve">
<g>
	<g>
		<path fill="#070001" d="M425.197,444.754c-1.381,0-2.77-0.206-4.116-0.618L41.956,328.208c-5.305-1.622-9.167-6.212-9.848-11.723
			c-0.688-5.504,1.931-10.905,6.686-13.778L458.648,48.904c4.563-2.769,10.342-2.693,14.849,0.185
			c4.515,2.887,7.003,8.081,6.418,13.4l-40.728,369.731c-0.461,4.164-2.756,7.909-6.254,10.218
			C430.611,443.964,427.918,444.754,425.197,444.754z M80.307,310.507l332.76,101.75l35.747-324.52L80.307,310.507z"/>
	</g>
	<g>
		<path fill="#070001" d="M204.296,465.122c-1.506,0-3.017-0.24-4.481-0.734c-4.77-1.602-8.322-5.628-9.318-10.562l-18.863-93.676
			c-1.532-7.621,3.402-15.036,11.022-16.575c7.594-1.519,15.036,3.402,16.575,11.022l14.039,69.728l53.339-47.175
			c5.834-5.161,14.719-4.591,19.866,1.216c5.147,5.821,4.604,14.719-1.216,19.867L213.62,461.59
			C211.009,463.899,207.677,465.122,204.296,465.122z"/>
	</g>
	<g>
		<path fill="#070001" d="M224.326,371.446c-1.615,0-3.244-0.55-4.563-1.683c-2.962-2.522-3.312-6.961-0.79-9.916L369.095,183.75
			c2.514-2.962,6.968-3.319,9.916-0.79c2.962,2.522,3.312,6.962,0.79,9.916L229.679,368.973
			C228.292,370.608,226.312,371.446,224.326,371.446z"/>
	</g>
	<g>
		<path fill="#070001" d="M401.296,289.177c-0.288,0-0.577-0.013-0.872-0.055c-3.856-0.475-6.597-3.986-6.116-7.847l1.306-10.555
			c0.48-3.848,3.999-6.631,7.847-6.116c3.856,0.475,6.597,3.986,6.117,7.848l-1.306,10.555
			C407.831,286.565,404.801,289.177,401.296,289.177z"/>
	</g>
	<g>
		<path fill="#070001" d="M392.047,364.409c-0.329,0-0.667-0.02-1.003-0.069c-3.848-0.556-6.522-4.116-5.972-7.965l6.748-47.085
			c0.564-3.848,4.151-6.514,7.965-5.971c3.848,0.556,6.521,4.116,5.971,7.964l-6.748,47.085
			C398.499,361.881,395.49,364.409,392.047,364.409z"/>
	</g>
</g>
</svg>
