<?xml version="1.0" encoding="utf-8"?>
<!-- Generator: Adobe Illustrator 17.0.0, SVG Export Plug-In . SVG Version: 6.00 Build 0)  -->
<!DOCTYPE svg PUBLIC "-//W3C//DTD SVG 1.1//EN" "http://www.w3.org/Graphics/SVG/1.1/DTD/svg11.dtd">
<svg version="1.1" id="图层_1" xmlns="http://www.w3.org/2000/svg" xmlns:xlink="http://www.w3.org/1999/xlink" x="0px" y="0px"
	 width="512px" height="512px" viewBox="0 0 512 512" enable-background="new 0 0 512 512" xml:space="preserve">
<path fill="#070001" d="M256,32C132.291,32,32,132.291,32,256s100.291,224,224,224s224-100.291,224-224S379.709,32,256,32z
	 M350.892,321.816c-4.207,0.919-12.26-6.059-20.143-16.842c-1.709,11.923-7.457,22.824-16.117,31.679
	c14.628,4.725,24.468,13.618,23.341,22.538c-1.437,11.315-19.897,18.28-41.232,15.574c-14.927-1.903-27.16-8.078-32.753-15.483
	c-2.343,0.181-4.725,0.298-7.133,0.298c-1.385,0-2.745-0.116-4.104-0.168c-5.204,7.806-18.293,14.279-34.436,16.026
	c-22.008,2.369-41.193-4.894-42.864-16.234c-1.347-8.971,8.777-17.748,23.923-22.228c-9.217-9.321-15.211-20.934-16.622-33.646
	c-8.855,10.745-17.878,16.661-21.334,14.81c-6.745-3.599-8.376-25.645,2.576-47.459c3.961-7.897,8.816-14.719,13.787-20.079
	c-1.502-2.887-2.447-6.538-2.447-10.577c0-6.978,2.706-12.932,6.538-15.405c-0.621-3.896-1.023-7.858-1.023-11.923
	c0-42.319,34.565-76.6,77.183-76.6c42.643,0,77.195,34.293,77.195,76.6c0,3.637-0.349,7.185-0.842,10.693
	c5.722,0.078,10.37,7.483,10.37,16.635c0,6.628-2.46,12.298-5.981,14.978c4.311,5.67,8.389,12.57,11.561,20.312
	C359.41,297.543,355.864,320.729,350.892,321.816z"/>
</svg>
