<?xml version="1.0" encoding="utf-8"?>
<!-- Generator: Adobe Illustrator 17.0.0, SVG Export Plug-In . SVG Version: 6.00 Build 0)  -->
<!DOCTYPE svg PUBLIC "-//W3C//DTD SVG 1.1//EN" "http://www.w3.org/Graphics/SVG/1.1/DTD/svg11.dtd">
<svg version="1.1" id="图层_1" xmlns="http://www.w3.org/2000/svg" xmlns:xlink="http://www.w3.org/1999/xlink" x="0px" y="0px"
	 width="512px" height="512px" viewBox="0 0 512 512" enable-background="new 0 0 512 512" xml:space="preserve">
<g>
	<g>
		<path fill="#040000" d="M255.998,32.002C379.719,32.002,480,132.282,480,256c0,123.733-100.281,223.998-224.002,223.998
			C132.281,479.998,32,379.733,32,256C32,132.282,132.281,32.002,255.998,32.002 M255.998,0.002C114.839,0.002,0,114.845,0,256
			s114.839,255.998,255.998,255.998S512,397.155,512,256S397.157,0.002,255.998,0.002L255.998,0.002z"/>
	</g>
	<g>
		<path fill="#040000" d="M126.659,117.532c-2.214,0-4.418-0.914-5.996-2.703c-2.93-3.305-2.617-8.367,0.695-11.289
			c17.332-15.329,36.945-27.485,58.293-36.133c4.094-1.664,8.758,0.312,10.418,4.406c1.66,4.094-0.313,8.766-4.41,10.422
			c-19.664,7.969-37.734,19.172-53.706,33.289C130.433,116.868,128.542,117.532,126.659,117.532z"/>
	</g>
	<g>
		<path fill="#040000" d="M86.995,165.829c-1.367,0-2.75-0.351-4.015-1.086c-3.821-2.219-5.114-7.118-2.891-10.938
			c3.798-6.524,8.031-12.945,12.582-19.07c2.641-3.539,7.648-4.282,11.191-1.649c3.547,2.633,4.286,7.649,1.653,11.195
			c-4.196,5.649-8.098,11.555-11.598,17.57C92.433,164.407,89.75,165.829,86.995,165.829z"/>
	</g>
	<g>
		<path fill="#040000" d="M329.345,445.178c-3.157,0-6.157-1.882-7.414-4.992c-1.656-4.094,0.313-8.766,4.406-10.422
			c19.664-7.969,37.734-19.172,53.711-33.289c3.312-2.922,8.367-2.618,11.289,0.695c2.93,3.305,2.617,8.367-0.695,11.289
			c-17.328,15.328-36.945,27.484-58.289,36.133C331.369,444.991,330.345,445.178,329.345,445.178z"/>
	</g>
	<g>
		<path fill="#040000" d="M412.899,380.491c-1.656,0-3.328-0.515-4.765-1.578c-3.547-2.633-4.282-7.648-1.649-11.195
			c4.203-5.656,8.102-11.562,11.594-17.57c2.226-3.828,7.125-5.109,10.938-2.89c3.82,2.219,5.117,7.118,2.89,10.938
			c-3.789,6.515-8.023,12.938-12.578,19.07C417.758,379.374,415.345,380.491,412.899,380.491z"/>
	</g>
	<g>
		<path fill="#040000" d="M257.353,230.563c6.653,0,13.305,2.531,18.383,7.61c10.152,10.156,10.152,26.625,0,36.773
			c-5.078,5.07-11.73,7.61-18.383,7.61c-6.656,0-13.312-2.539-18.386-7.61c-10.152-10.148-10.152-26.617,0-36.773
			C244.041,233.094,250.697,230.563,257.353,230.563 M257.353,214.563c-11.218,0-21.765,4.367-29.699,12.297
			c-7.934,7.938-12.301,18.485-12.301,29.703c0,11.218,4.367,21.765,12.301,29.695c7.934,7.93,18.481,12.297,29.699,12.297
			c11.215,0,21.762-4.367,29.696-12.297c7.934-7.93,12.301-18.477,12.301-29.695c0-11.218-4.367-21.765-12.298-29.703
			C279.115,218.93,268.568,214.563,257.353,214.563L257.353,214.563z"/>
	</g>
	<g>
		<g>
			<path fill="#040000" d="M290.975,266.015c-1.402,0-2.821-0.367-4.11-1.14c-3.789-2.274-5.015-7.188-2.742-10.977l36.433-60.656
				l-58.972,35.007c-3.785,2.25-8.703,1-10.961-2.797c-2.254-3.805-1.004-8.71,2.797-10.969l86.238-51.195
				c3.157-1.851,7.164-1.359,9.758,1.242c2.586,2.594,3.07,6.617,1.187,9.758l-52.761,87.843
				C296.342,264.633,293.689,266.015,290.975,266.015z"/>
		</g>
		<g>
			<path fill="#040000" d="M168.26,353.655c-2.078,0-4.133-0.805-5.675-2.359c-2.582-2.594-3.074-6.618-1.188-9.758l55.277-92.046
				c2.274-3.789,7.195-5.015,10.977-2.742c3.789,2.274,5.015,7.188,2.742,10.977l-38.949,64.859l63.238-37.546
				c3.801-2.274,8.706-1,10.965,2.789c2.253,3.797,1.004,8.711-2.794,10.961l-90.51,53.742
				C171.073,353.288,169.659,353.655,168.26,353.655z"/>
		</g>
	</g>
</g>
</svg>
