<?xml version="1.0" encoding="utf-8"?>
<!-- Generator: Adobe Illustrator 17.0.0, SVG Export Plug-In . SVG Version: 6.00 Build 0)  -->
<!DOCTYPE svg PUBLIC "-//W3C//DTD SVG 1.1//EN" "http://www.w3.org/Graphics/SVG/1.1/DTD/svg11.dtd">
<svg version="1.1" id="图层_1" xmlns="http://www.w3.org/2000/svg" xmlns:xlink="http://www.w3.org/1999/xlink" x="0px" y="0px"
	 width="512px" height="512px" viewBox="0 0 512 512" enable-background="new 0 0 512 512" xml:space="preserve">
<g>
	<path fill="#070001" d="M216.957,74.647c42.893,1.489,79.557,21.149,101.316,63.719c20.985,41.049,19.888,83.067-6.848,120.589
		c-14.153,19.867-10.989,27.42,8.529,38.848c32.853,19.242,55.757,48.559,69.645,84.052c9.881,25.247,2.799,45.357-16.591,52.916
		c-7.103,2.773-14.91,4.755-19.989-1.923c-6.663-8.763,1.32-12.589,7.744-16.125c13.75-7.559,12.032-18.647,6.8-30.314
		c-16.151-36.028-42.474-62.393-77.214-80.616c-12.97-6.812-25.999-5.709-39.218-0.222c-23.614,9.795-48.294,10.713-71.426,1.012
		c-23.233-9.736-42.13-3.726-60.905,9.065c-21.954,14.958-40.534,33.187-53.17,56.838c-8.9,16.655-21.86,33.819,4.632,47.409
		c3.976,2.035,5.752,7.173,3.111,11.841c-3.159,5.587-8.635,5.63-14.226,4.962c-22.364-2.688-33.797-27.505-23.09-53.664
		c14.355-35.063,36.203-65.23,69.312-84.401c20.428-11.83,23.349-20.137,8.73-40.9c-26.562-37.714-27.123-80.5-5.242-120.736
		C130.642,96.931,165.827,75.187,216.957,74.647z M214.244,96.575c-53.367-0.456-97.224,42.051-97.855,94.849
		c-0.651,53.987,44.106,100.119,96.912,99.879c52.28-0.228,95.766-44.079,96.688-97.495
		C310.9,141.302,267.303,97.026,214.244,96.575z"/>
	<path fill="#070001" d="M405.538,204.125c-0.498-32.694-19.999-57.469-52.98-72.932c-8.105-3.799-23.82-2.708-16.506-17.507
		c5.502-11.143,17.672-5.163,26.694-1.543c58.194,23.348,82.965,92.071,50.302,145.93c-11.916,19.644-9.6,28.656,9.159,39.993
		c24.5,14.799,41.356,37.736,52.366,63.926c7.691,18.292,9.826,37.348-11.482,49.709c-5.666,3.286-12.228,4.505-17.687-0.387
		c-6.68-5.973-2.932-11.825,2.22-15.918c13.262-10.521,9-21.557,2.508-33.499c-15.727-28.921-39.108-49.216-69.273-61.604
		c-18.42-7.564-22.443-16.013-5.571-30.304C393.882,254.232,405.511,234.313,405.538,204.125z"/>
</g>
</svg>
