<?xml version="1.0" encoding="utf-8"?>
<!-- Generator: Adobe Illustrator 17.0.0, SVG Export Plug-In . SVG Version: 6.00 Build 0)  -->
<!DOCTYPE svg PUBLIC "-//W3C//DTD SVG 1.1//EN" "http://www.w3.org/Graphics/SVG/1.1/DTD/svg11.dtd">
<svg version="1.1" id="图层_1" xmlns="http://www.w3.org/2000/svg" xmlns:xlink="http://www.w3.org/1999/xlink" x="0px" y="0px"
	 width="512px" height="512px" viewBox="0 0 512 512" enable-background="new 0 0 512 512" xml:space="preserve">
<g>
	<path fill="#070001" d="M278.254,131.396H226.69c-21.383,0-24.054,2.818-24.356,21.486H305.28
		C304.462,133.584,298.818,131.396,278.254,131.396z"/>
	<path fill="#070001" d="M163.617,356.438c0,22.59-0.569,24.174,24.407,24.174h128.903c24.14,0,27.156-0.681,27.156-24.174V225.924
		H163.617V356.438z M301.118,247.402c0-2.37,1.922-4.299,4.299-4.299c2.378,0,4.299,1.93,4.299,4.299v103.126
		c0,2.37-1.921,4.299-4.299,4.299c-2.378,0-4.299-1.922-4.299-4.299V247.402z M249.556,247.402c0-2.37,1.922-4.299,4.299-4.299
		c2.377,0,4.299,1.93,4.299,4.299v103.126c0,2.37-1.922,4.299-4.299,4.299c-2.377,0-4.299-1.922-4.299-4.299V247.402z
		 M197.993,247.402c0-2.37,1.921-4.299,4.299-4.299s4.299,1.93,4.299,4.299v73.05c0,2.369-1.921,4.299-4.299,4.299
		c-2.377,0-4.299-1.921-4.299-4.299V247.402z M197.993,341.938c0-2.369,1.921-4.299,4.299-4.299s4.299,1.921,4.299,4.299v8.598
		c0,2.369-1.921,4.299-4.299,4.299c-2.377,0-4.299-1.922-4.299-4.299V341.938z"/>
	<path fill="#070001" d="M256,32C132.292,32,32,132.292,32,256s100.292,224,224,224s224-100.292,224-224S379.708,32,256,32z
		 M395.646,190.471c0,19.204-15.301,34.763-34.375,35.34v130.626c0,32.85-10.958,41.354-44.343,41.354H188.025
		c-30.964,0-41.595-5.746-41.595-41.354V225.381c-17.007-2.602-30.076-17.17-30.076-34.91v-2.146
		c0-19.574,15.87-35.452,35.452-35.452h33.402c1.068-28.758,10.683-38.674,41.492-38.674h51.563
		c33.307,0,43.042,12.51,44.214,38.674h37.727c19.574,0,35.452,15.87,35.452,35.452v2.145
		C395.655,190.471,395.646,190.471,395.646,190.471z"/>
	<path fill="#070001" d="M360.194,170.062H151.806c-10.089,0-18.265,8.176-18.265,18.265v2.145c0,10.089,8.176,18.265,18.265,18.265
		h208.398c10.089,0,18.265-8.176,18.265-18.265v-2.145C378.459,178.238,370.283,170.062,360.194,170.062z"/>
</g>
</svg>
