<?xml version="1.0" encoding="UTF-8" standalone="no"?>
<svg width="252px" height="448px" viewBox="0 0 252 448" version="1.1" xmlns="http://www.w3.org/2000/svg" xmlns:xlink="http://www.w3.org/1999/xlink">
    <!-- Generator: Sketch 3.6.1 (26313) - http://www.bohemiancoding.com/sketch -->
    <title>return</title>
    <desc>Created with Sketch.</desc>
    <defs></defs>
    <g id="Page-1" stroke="none" stroke-width="1" fill="none" fill-rule="evenodd">
        <g id="return" fill="#000000">
            <path d="M233.57684,447.912488 C228.760885,447.912488 224.210643,446.085029 220.763767,442.766959 L18.33682,248.581094 C13.186762,244.166008 9.70198935,241.161372 7.68299942,239.396058 C6.78871952,238.614276 6.16233182,238.057662 5.76724562,237.695142 C5.43793481,237.392967 4.83855366,236.842657 4.36418921,236.028452 C1.51364524,232.709932 0.0387152028,228.442556 0.20598446,223.990543 C0.0121441013,218.891848 1.93660978,214.167833 5.62872606,210.68404 C7.03700975,209.344743 29.8622695,187.856552 34.0557576,184.359699 L220.799486,5.20151764 C224.250282,1.90326287 228.798346,0.0879620276 233.607767,0.0879620276 C238.41806,0.0879620276 242.963946,1.90191183 246.408208,5.19566327 C249.987504,8.64162778 251.949431,13.2188341 251.935493,18.0874076 C251.921553,22.9438218 249.944815,27.4917564 246.369439,30.8935879 L45.0619755,223.988742 L246.383814,417.127578 C249.975309,420.563634 251.946382,425.144894 251.932009,430.025628 C251.917633,434.878438 249.937846,439.415115 246.356372,442.798932 C242.933454,446.093583 238.391924,447.912488 233.57684,447.912488 L233.57684,447.912488 L233.57684,447.912488 Z" id="Shape"></path>
        </g>
    </g>
</svg>