<?xml version="1.0" encoding="utf-8"?>
<!-- Generator: Adobe Illustrator 17.0.0, SVG Export Plug-In . SVG Version: 6.00 Build 0)  -->
<!DOCTYPE svg PUBLIC "-//W3C//DTD SVG 1.1//EN" "http://www.w3.org/Graphics/SVG/1.1/DTD/svg11.dtd">
<svg version="1.1" id="图层_1" xmlns="http://www.w3.org/2000/svg" xmlns:xlink="http://www.w3.org/1999/xlink" x="0px" y="0px"
	 width="512px" height="512px" viewBox="0 0 512 512" enable-background="new 0 0 512 512" xml:space="preserve">
<g id="User_1_">
	<g>
		<path fill="#090103" d="M267.116,85.046c0-3.695-2.999-6.692-6.692-6.692c-36.797,0-66.734,29.936-66.734,66.734
			c0,3.695,2.993,6.692,6.692,6.692c3.692,0,6.692-2.997,6.692-6.692c0-29.417,23.931-53.351,53.35-53.351
			C264.116,91.738,267.116,88.742,267.116,85.046z M197.977,166.023c-1.267,1.274-1.941,3.013-1.941,4.753s0.674,3.481,1.941,4.752
			c1.274,1.27,2.947,1.941,4.751,1.941c1.745,0,3.483-0.67,4.686-1.941c1.274-1.271,2.006-2.944,2.006-4.752
			c0-1.74-0.732-3.479-2.006-4.753C204.937,163.55,200.454,163.55,197.977,166.023z M320.275,276.191
			c28.5-39.057,46.21-97.199,46.21-134.263C366.485,81.315,317.167,32,256.556,32c-60.617,0-109.929,49.315-109.929,109.929
			c0,37.11,17.755,95.351,46.317,134.41c-58.518,25.356-98.1,84.801-98.1,150.128C94.844,476.141,218.197,480,256,480
			c37.804,0,161.156-3.859,161.156-53.533C417.157,361.34,378.08,301.886,320.275,276.191z M173.393,141.929
			c0-45.855,37.307-83.163,83.163-83.163s83.163,37.307,83.163,83.163c0,51.952-42.751,148.557-83.163,148.557
			C216.138,290.486,173.393,193.881,173.393,141.929z M256,453.234c-93.069,0-134.389-19.396-134.389-26.767
			c0-56.808,35.693-108.276,87.737-127.909c14.122,13.141,30.289,20.036,47.208,20.036c16.527,0,32.609-7.021,46.933-20.405
			c51.547,19.886,86.9,71.495,86.9,128.279C390.389,433.838,349.063,453.234,256,453.234z"/>
	</g>
</g>
</svg>
