<?xml version="1.0" encoding="utf-8"?>
<!-- Generator: Adobe Illustrator 17.0.0, SVG Export Plug-In . SVG Version: 6.00 Build 0)  -->
<!DOCTYPE svg PUBLIC "-//W3C//DTD SVG 1.1//EN" "http://www.w3.org/Graphics/SVG/1.1/DTD/svg11.dtd">
<svg version="1.1" id="图层_1" xmlns="http://www.w3.org/2000/svg" xmlns:xlink="http://www.w3.org/1999/xlink" x="0px" y="0px"
	 width="512px" height="512px" viewBox="0 0 512 512" enable-background="new 0 0 512 512" xml:space="preserve">
<g id="Contacts">
	<g>
		<path fill="#070001" d="M396.479,32H115.521C88.725,32,67,53.724,67,80.521v350.957C67,458.276,88.725,480,115.521,480h280.957
			C423.276,480,445,458.276,445,431.479V80.521C445,53.724,423.276,32,396.479,32z M270,60h70v110.906l-31.979-15.319
			c-0.95-0.459-1.989-0.691-3.021-0.691s-2.071,0.233-3.021,0.691L270,170.906V60z M158,452h-42.479
			C104.188,452,95,442.812,95,431.479V80.521C95,69.188,104.188,60,115.521,60H158V452z M417,431.479
			c0,11.333-9.188,20.521-20.521,20.521H172V60h84v122.021c0,2.406,1.237,4.641,3.268,5.926c2.037,1.278,4.587,1.436,6.753,0.383
			L305,169.655l38.979,18.677c0.957,0.465,1.989,0.69,3.021,0.69c1.299,0,2.598-0.362,3.733-1.074
			c2.03-1.285,3.268-3.52,3.268-5.926V60h42.479C407.812,60,417,69.188,417,80.521V431.479z M396,361c-3.868,0-7,3.131-7,7v22.292
			C389,410.766,375.738,424,364.691,424H249.875c-3.869,0-7,3.132-7,7c0,3.869,3.131,7,7,7h114.817
			c19.55,0,38.308-18.723,38.308-47.708V368C403,364.131,399.869,361,396,361z M390.716,339.652c1.818,0,3.637-0.704,4.97-2.03
			c1.258-1.333,2.03-3.083,2.03-4.97c0-1.824-0.772-3.643-2.105-4.97c-2.584-2.591-7.273-2.523-9.863,0
			c-1.265,1.326-2.031,3.146-2.031,4.97c0,1.887,0.766,3.706,2.031,4.97C387.072,338.947,388.822,339.652,390.716,339.652z"/>
	</g>
</g>
</svg>
