<?xml version="1.0" encoding="utf-8"?>
<!-- Generator: Adobe Illustrator 17.0.0, SVG Export Plug-In . SVG Version: 6.00 Build 0)  -->
<!DOCTYPE svg PUBLIC "-//W3C//DTD SVG 1.1//EN" "http://www.w3.org/Graphics/SVG/1.1/DTD/svg11.dtd">
<svg version="1.1" id="图层_1" xmlns="http://www.w3.org/2000/svg" xmlns:xlink="http://www.w3.org/1999/xlink" x="0px" y="0px"
	 width="512px" height="512px" viewBox="0 0 512 512" enable-background="new 0 0 512 512" xml:space="preserve">
<g id="PC">
	<g>
		<path fill="#070001" d="M351.834,442.662h-183.27c-7.501,0-13.581,6.08-13.581,13.581s6.08,13.581,13.581,13.581h183.27
			c7.501,0,13.581-6.08,13.581-13.581C365.415,448.742,359.335,442.662,351.834,442.662z M432.947,42.176H79.053
			C53.069,42.176,32,63.245,32,89.229v252.083c0,25.984,21.069,47.053,47.053,47.053h353.894c25.984,0,47.053-21.069,47.053-47.053
			V89.229C480,63.245,458.932,42.176,432.947,42.176z M452.851,341.311c0,10.995-8.909,19.904-19.904,19.904H79.053
			c-10.995,0-19.904-8.909-19.904-19.904v-27.609h393.702V341.311z M452.851,300.108H59.149v-183.27h393.702V300.108z
			 M452.851,103.27H59.149V89.229c0-10.995,8.909-19.904,19.904-19.904h353.894c10.995,0,19.904,8.909,19.904,19.904V103.27z
			 M229.812,215.386c0.806,0.32,1.639,0.461,2.457,0.461c2.714,0,5.286-1.639,6.336-4.327l1.843-4.723
			c1.356-3.495-0.358-7.437-3.853-8.794c-3.481-1.37-7.437,0.358-8.794,3.866l-1.843,4.723
			C224.589,210.086,226.317,214.016,229.812,215.386z M203.93,281.856c0.806,0.32,1.639,0.461,2.457,0.461
			c2.714,0,5.286-1.651,6.336-4.327l19.251-49.433c1.356-3.495-0.371-7.437-3.866-8.794c-3.495-1.382-7.424,0.371-8.781,3.853
			l-19.251,49.433C198.707,276.557,200.435,280.499,203.93,281.856z M176.423,235.686c0.806,0.32,1.639,0.461,2.457,0.461
			c2.714,0,5.286-1.639,6.336-4.327l28.147-72.308c1.356-3.495-0.371-7.424-3.866-8.781c-3.495-1.37-7.424,0.371-8.794,3.866
			l-28.147,72.308C171.201,230.399,172.928,234.329,176.423,235.686z M163.201,269.606c0.806,0.32,1.639,0.461,2.457,0.461
			c2.714,0,5.286-1.639,6.336-4.327l4.134-10.624c1.37-3.495-0.358-7.437-3.853-8.794c-3.469-1.37-7.424,0.358-8.794,3.853
			l-4.134,10.624C157.978,264.307,159.706,268.249,163.201,269.606z"/>
	</g>
</g>
</svg>
