<?xml version="1.0" encoding="UTF-8" standalone="no"?>
<svg width="448px" height="448px" viewBox="0 0 448 448" version="1.1" xmlns="http://www.w3.org/2000/svg" xmlns:xlink="http://www.w3.org/1999/xlink">
    <!-- Generator: Sketch 3.6.1 (26313) - http://www.bohemiancoding.com/sketch -->
    <title>search</title>
    <desc>Created with Sketch.</desc>
    <defs></defs>
    <g id="Page-1" stroke="none" stroke-width="1" fill="none" fill-rule="evenodd">
        <g id="search" fill="#000000">
            <path d="M167.501504,335.918795 C207.810082,335.918795 245.881625,321.629732 276.17947,295.63818 L423.460275,443.296485 C426.18666,446.036853 429.779899,447.407035 433.359155,447.407035 C436.924428,447.407035 440.503686,446.050833 443.230072,443.324448 C448.696827,437.871672 448.710808,429.021404 443.258035,423.554648 L295.851397,275.784493 C351.036259,209.875844 347.82052,111.180648 285.99446,49.214774 C254.340414,17.4768373 212.25619,0 167.487523,0 C122.718856,0 80.634632,17.4768373 48.9805842,49.214774 C-16.3268614,114.689997 -16.3268614,221.242779 48.9805842,286.718003 C80.6486136,318.441958 122.732838,335.918795 167.501504,335.918795 L167.501504,335.918795 L167.501504,335.918795 Z M68.7923273,68.9566095 C95.1613794,42.5176498 130.212924,27.9629398 167.501504,27.9629398 C204.790085,27.9629398 239.84163,42.5176498 266.210682,68.9566095 C320.668507,123.554249 320.668507,212.378527 266.210682,266.976167 C239.84163,293.415127 204.790085,307.969838 167.501504,307.969838 C130.212924,307.969838 95.1613794,293.415127 68.7923273,266.976167 C14.3484835,212.378527 14.3484835,123.554249 68.7923273,68.9566095 L68.7923273,68.9566095 L68.7923273,68.9566095 Z" id="Shape"></path>
        </g>
    </g>
</svg>