<?xml version="1.0" encoding="UTF-8" standalone="no"?>
<svg width="448px" height="448px" viewBox="0 0 448 448" version="1.1" xmlns="http://www.w3.org/2000/svg" xmlns:xlink="http://www.w3.org/1999/xlink">
    <!-- Generator: Sketch 3.6.1 (26313) - http://www.bohemiancoding.com/sketch -->
    <title>customer service</title>
    <desc>Created with Sketch.</desc>
    <defs></defs>
    <g id="Page-1" stroke="none" stroke-width="1" fill="none" fill-rule="evenodd">
        <g id="customer-service" fill="#000000">
            <path d="M98.0354236,349.901601 L84.0393597,349.901601 C36.1588246,349.901601 0.0629755,313.805753 0.0629755,265.925218 C0.0629755,218.044682 36.1588246,181.948833 84.0393597,181.948833 L98.035424,181.948833 L98.0354236,349.901601 L98.0354236,349.901601 L98.0354236,349.901601 Z M70.0432954,211.480528 C45.0463252,217.218914 28.0551036,238.366966 28.0551036,265.925218 C28.0551036,293.483467 45.0463252,314.617524 70.0432958,320.383903 L70.0432954,211.480528 L70.0432954,211.480528 L70.0432954,211.480528 Z" id="Shape"></path>
            <path d="M363.960641,349.901601 L349.964577,349.901601 L349.964577,181.948833 L363.960641,181.948833 C411.841176,181.948833 447.937025,218.044682 447.937025,265.925218 C447.937025,313.805753 411.841176,349.901601 363.960641,349.901601 M377.956705,211.480528 L377.956705,320.355909 C402.953674,314.617524 419.944896,293.469469 419.944896,265.91122 C419.944896,238.338975 402.953674,217.23291 377.956705,211.480528" id="Shape"></path>
            <path d="M377.956705,419.881921 L377.956705,391.889794 C384.926745,391.889794 391.95277,387.537017 391.95277,377.89373 L419.944896,377.89373 C419.944896,401.826999 401.889974,419.881921 377.956705,419.881921" id="Shape"></path>
            <path d="M321.972448,391.889794 L377.956705,391.889794 L377.956705,419.881921 L321.972448,419.881921 L321.972448,391.889794 L321.972448,391.889794 L321.972448,391.889794 Z" id="Shape"></path>
            <path d="M287.33219,448.000013 C264.196697,448.000013 245.343997,429.161311 245.343997,406.011823 C245.343997,382.876328 264.196697,364.02363 287.33219,364.02363 C310.48168,364.02363 329.320383,382.876328 329.320383,406.011823 C329.320383,429.161311 310.523667,448.000013 287.33219,448.000013 M287.33219,392.015758 C279.620358,392.015758 273.336125,398.285996 273.336125,406.011823 C273.336125,413.73765 279.620358,420.007887 287.33219,420.007887 C295.072012,420.007887 301.328254,413.73765 301.328254,406.011823 C301.328254,398.285996 295.072012,392.015758 287.33219,392.015758" id="Shape"></path>
            <path d="M377.956705,154.040681 L349.964577,154.040681 C349.964577,84.5362267 293.462465,27.992128 224,27.992128 C154.537534,27.992128 98.0354236,84.5362267 98.0354236,154.040681 L70.0432954,154.040681 C70.0432954,69.112564 139.113872,0 224,0 C308.872133,0 377.956705,69.112564 377.956705,154.040681" id="Shape"></path>
        </g>
    </g>
</svg>