<?xml version="1.0" encoding="UTF-8" standalone="no"?>
<svg width="470px" height="448px" viewBox="0 0 470 448" version="1.1" xmlns="http://www.w3.org/2000/svg" xmlns:xlink="http://www.w3.org/1999/xlink">
    <!-- Generator: Sketch 3.6.1 (26313) - http://www.bohemiancoding.com/sketch -->
    <title>set up</title>
    <desc>Created with Sketch.</desc>
    <defs></defs>
    <g id="Page-1" stroke="none" stroke-width="1" fill="none" fill-rule="evenodd">
        <g id="set-up" fill="#000000">
            <path d="M305.520282,447.935804 L305.518622,447.935804 C296.973593,447.935246 288.669248,444.368785 283.304538,438.396206 C275.995563,430.309551 252.838672,409.280446 233.884025,409.280446 C215.06051,409.280446 191.545639,430.430721 184.792168,437.840045 C179.440183,443.711556 171.19338,447.216594 162.730793,447.216594 C158.700621,447.216594 154.896745,446.435958 151.424843,444.895909 L150.81733,444.626762 L93.2020233,412.11206 L92.6299201,411.70834 C82.1406277,404.297898 78.1491859,389.804791 83.3456958,377.995325 C83.3849796,377.903747 88.6595035,365.622439 88.6595035,354.423854 C88.6595035,320.437784 61.2621894,292.787246 27.5866815,292.787246 L25.5450375,292.787246 C25.4210999,292.790039 25.2971631,292.791715 25.1737792,292.791715 C15.5271492,292.791715 7.67318265,284.143872 5.16400741,270.760293 C4.96316283,269.689293 0.246909716,244.301369 0.246909716,224.29915 C0.246909716,204.29749 4.96205604,178.909007 5.16290116,177.838008 C7.70361375,164.283561 15.7291006,155.576529 25.5444842,155.810496 L27.5866815,155.810496 C61.2627429,155.810496 88.6595035,128.160518 88.6595035,94.1738889 C88.6595035,82.9775379 83.3877464,70.6990202 83.3340769,70.5761739 C78.1436537,58.7778744 82.1611,44.286443 92.6935491,36.8994535 L93.2905499,36.4806579 L154.096133,2.77490109 L154.728544,2.50296346 C158.15231,1.0299209 161.902516,0.282790588 165.875147,0.282790588 C174.317262,0.282790588 182.581771,3.71188572 187.982998,9.45608115 C195.179655,17.0614023 217.927665,36.8391468 236.33898,36.8391468 C254.577667,36.8391468 277.186244,17.45172 284.358558,9.98097126 C289.728802,4.35292189 297.934108,0.983574451 306.294336,0.983574451 C310.347193,0.983574451 314.167114,1.75750782 317.646208,3.28359772 L318.262022,3.55386013 L376.988891,36.4823332 L377.569293,36.8910772 C388.075735,44.2920265 392.07769,58.7851336 386.876755,70.6035346 C386.838025,70.6939946 381.563502,82.9758621 381.563502,94.1738885 C381.563502,128.160517 408.960814,155.810495 442.636322,155.810495 L444.677966,155.810495 C454.480625,155.590488 462.518284,164.282444 465.059549,177.83689 C465.259841,178.908448 469.976093,204.296373 469.976093,224.298592 C469.976093,244.300811 465.259841,269.688736 465.058998,270.759733 C462.517178,284.31474 454.482284,292.989386 444.677415,292.786688 L442.636322,292.786688 C408.960814,292.786688 381.563502,320.437224 381.563502,354.423294 C381.563502,365.619645 386.834706,377.897605 386.888374,378.020451 C392.076032,389.810933 388.067991,404.303482 377.551035,411.698847 L376.962887,412.112617 L317.24452,445.42359 L316.62096,445.694968 C313.204387,447.18253 309.468566,447.935804 305.520282,447.935804 L305.520282,447.935804 L305.520282,447.935804 Z M303.706592,419.540928 C303.97328,419.717381 304.72686,420.016679 305.519726,420.016679 C305.552372,420.016679 305.582249,420.016121 305.609913,420.015004 L361.404893,388.892376 C360.058736,385.73466 353.898946,370.410665 353.898946,354.424972 C353.898946,306.619775 391.208469,267.442878 437.98259,264.990412 C438.655945,261.239682 442.31154,240.136313 442.31154,224.300268 C442.31154,208.467575 438.657605,187.371463 437.983143,183.610123 C391.209022,181.157659 353.898946,141.980761 353.898946,94.1755649 C353.898946,78.1680941 360.076441,62.8223203 361.412639,59.6902907 L306.523399,28.91275 C306.459769,28.9082833 306.383417,28.9049327 306.294336,28.9049327 C305.35872,28.9049327 304.483966,29.2489035 304.194043,29.4454574 C303.273367,30.4008692 295.315935,38.5439233 283.887706,46.6579416 C266.970278,58.6695473 250.972973,64.7599465 236.33898,64.7599465 C221.562234,64.7599465 205.436565,58.5494921 188.410139,46.3011279 C176.911644,38.0296428 168.918248,29.7313551 167.995358,28.7586331 C167.702667,28.5570528 166.819061,28.2030314 165.8757,28.2030314 C165.800452,28.2030314 165.735164,28.2052649 165.679282,28.2091734 L108.825858,59.7243521 C110.187507,62.921714 116.324611,78.2189081 116.324611,94.1744478 C116.324611,141.979644 79.0139813,181.156541 32.2398599,183.609007 C31.5659514,187.363645 27.9120173,208.464783 27.9120173,224.299152 C27.9120173,240.131844 31.5659514,261.227956 32.2409667,264.989296 C79.0150874,267.44176 116.324611,306.618659 116.324611,354.423854 C116.324611,370.462037 110.123325,385.835173 108.802619,388.927556 L162.611836,419.294118 C162.647247,419.295793 162.687084,419.296911 162.730794,419.296911 C163.517574,419.296911 164.26341,419.005987 164.527884,418.833444 C165.533767,417.742342 173.57198,409.157598 185.147382,400.595191 C202.402871,387.832547 218.800205,381.360764 233.884027,381.360764 C249.111704,381.360764 265.633529,387.955951 282.99027,400.962614 C294.632619,409.688073 302.701815,418.434751 303.706592,419.540928 L303.706592,419.540928 L303.706592,419.540928 Z" id="Shape"></path>
            <path d="M234.082657,306.073107 C189.235095,306.073107 152.748869,269.250397 152.748869,223.989243 C152.748869,178.728088 189.235095,141.905378 234.082657,141.905378 C278.930219,141.905378 315.416445,178.728088 315.416445,223.989243 C315.416445,269.249839 278.930219,306.073107 234.082657,306.073107 L234.082657,306.073107 L234.082657,306.073107 Z M234.082657,169.82506 C204.489331,169.82506 180.413423,194.123001 180.413423,223.989243 C180.413423,253.855484 204.489331,278.153425 234.082657,278.153425 C263.675982,278.153425 287.751892,253.855484 287.751892,223.989243 C287.751892,194.123001 263.676538,169.82506 234.082657,169.82506 L234.082657,169.82506 L234.082657,169.82506 Z" id="Shape"></path>
        </g>
    </g>
</svg>