<?xml version="1.0" encoding="utf-8"?>
<!-- Generator: Adobe Illustrator 17.0.0, SVG Export Plug-In . SVG Version: 6.00 Build 0)  -->
<!DOCTYPE svg PUBLIC "-//W3C//DTD SVG 1.1//EN" "http://www.w3.org/Graphics/SVG/1.1/DTD/svg11.dtd">
<svg version="1.1" id="图层_1" xmlns="http://www.w3.org/2000/svg" xmlns:xlink="http://www.w3.org/1999/xlink" x="0px" y="0px"
	 width="512px" height="512px" viewBox="0 0 512 512" enable-background="new 0 0 512 512" xml:space="preserve">
<g>
	<g>
		<path fill="#070001" d="M385.5,60c30.926,0,56,25.074,56,56s-25.074,56-56,56s-56-25.074-56-56S354.574,60,385.5,60 M385.5,32
			c-46.317,0-84,37.679-84,84s37.683,84,84,84s84-37.679,84-84S431.817,32,385.5,32L385.5,32z"/>
	</g>
	<g>
		<path fill="#070001" d="M371.5,312c38.658,0,70,31.336,70,70s-31.342,70-70,70s-70-31.336-70-70S332.842,312,371.5,312 M371.5,284
			c-54.038,0-98,43.962-98,98s43.962,98,98,98s98-43.962,98-98S425.538,284,371.5,284L371.5,284z"/>
	</g>
	<g>
		<path fill="#070001" d="M154.5,179c46.388,0,84,37.611,84,84c0,46.388-37.612,84-84,84c-46.389,0-84-37.612-84-84
			C70.5,216.611,108.111,179,154.5,179 M154.5,151c-61.756,0-112,50.244-112,112s50.244,112,112,112s112-50.244,112-112
			S216.256,151,154.5,151L154.5,151z"/>
	</g>
	<g>
		<path fill="#070001" d="M142.729,212.387c-3.258,0-6.173-2.283-6.85-5.598c-0.775-3.787,1.664-7.485,5.451-8.258
			c4.317-0.881,8.75-1.333,13.17-1.333c3.866,0,7,3.131,7,7s-3.134,7-7,7c-3.48,0-6.966,0.355-10.36,1.046
			C143.665,212.339,143.193,212.387,142.729,212.387z"/>
	</g>
	<g>
		<path fill="#070001" d="M95.701,270c-3.866,0-7-3.131-7-7c0-14.376,4.549-28.034,13.156-39.478
			c2.321-3.09,6.706-3.705,9.803-1.395c3.09,2.325,3.712,6.713,1.388,9.803c-6.768,9.004-10.346,19.75-10.346,31.07
			C102.701,266.869,99.566,270,95.701,270z"/>
	</g>
	<g>
		<path fill="#070001" d="M324.835,396.779c-3.866,0-7-3.131-7-7c0-13.425,4.248-26.175,12.284-36.866
			c2.317-3.09,6.713-3.705,9.799-1.395c3.093,2.324,3.715,6.713,1.391,9.803c-6.197,8.251-9.474,18.088-9.474,28.458
			C331.835,393.649,328.7,396.779,324.835,396.779z"/>
	</g>
	<g>
		<path fill="#070001" d="M353.627,121.072c-0.642,0-1.296-0.089-1.942-0.274c-3.715-1.073-5.858-4.949-4.789-8.661
			c3.387-11.758,10.323-21.854,20.057-29.196c3.086-2.324,7.478-1.702,9.803,1.374c2.328,3.09,1.712,7.479-1.374,9.81
			c-7.294,5.496-12.493,13.071-15.033,21.882C359.465,119.076,356.666,121.072,353.627,121.072z"/>
	</g>
	<g>
		<path fill="#070001" d="M294.49,361c-2.105,0-4.241-0.472-6.251-1.476l-56-28c-6.914-3.46-9.718-11.868-6.262-18.785
			c3.463-6.918,11.877-9.721,18.785-6.262l56,28c6.914,3.46,9.718,11.867,6.262,18.785C304.569,358.17,299.623,361,294.49,361z"/>
	</g>
	<g>
		<path fill="#070001" d="M245.513,228c-4.702,0-9.293-2.365-11.935-6.666c-4.054-6.583-2-15.202,4.583-19.256l84-49
			c6.586-4.061,15.209-2.01,19.26,4.587c4.054,6.583,2,15.203-4.583,19.257l-84,49C250.549,227.33,248.016,228,245.513,228z"/>
	</g>
</g>
</svg>
