<?xml version="1.0" encoding="UTF-8" standalone="no"?>
<svg width="447px" height="447px" viewBox="0 0 447 447" version="1.1" xmlns="http://www.w3.org/2000/svg" xmlns:xlink="http://www.w3.org/1999/xlink">
    <!-- Generator: Sketch 3.6.1 (26313) - http://www.bohemiancoding.com/sketch -->
    <title>Press Collection</title>
    <desc>Created with Sketch.</desc>
    <defs></defs>
    <g id="Page-1" stroke="none" stroke-width="1" fill="none" fill-rule="evenodd">
        <path d="M444.693252,165.661644 C439.424048,149.956853 426.111846,138.675106 409.954016,136.202437 L307.425521,120.497646 L262.872254,25.2099169 C255.710286,9.88964894 240.263862,-1.44950718e-12 223.50338,-1.44950718e-12 C206.754871,-1.44950718e-12 191.308448,9.88964894 184.121535,25.2099169 L139.591215,120.496618 L37.0507497,136.201409 C20.8809455,138.674078 7.56874456,149.968162 2.31151274,165.686319 C-2.96966546,181.541219 0.949561439,198.773821 12.5246509,210.652915 L87.9109007,288.222762 L70.4400088,395.747375 C67.7151084,412.360011 74.7683199,429.344834 88.4427103,439.048389 C101.754911,448.453786 119.865371,449.522019 134.334981,441.582747 L223.50338,392.119081 L312.707698,441.595085 C319.110367,445.135988 326.333199,447 333.59195,447 C342.538921,447 351.172597,444.253846 358.587997,439.036052 C372.213495,429.356143 379.279679,412.372348 376.565753,395.772049 L359.069917,288.221733 L434.468141,210.651887 C446.0572,198.77485 449.963456,181.54019 444.693252,165.661644 L444.693252,165.661644 Z" id="Shape" stroke="#000000" stroke-width="25"></path>
    </g>
</svg>