<?xml version="1.0" encoding="utf-8"?>
<!-- Generator: Adobe Illustrator 17.0.0, SVG Export Plug-In . SVG Version: 6.00 Build 0)  -->
<!DOCTYPE svg PUBLIC "-//W3C//DTD SVG 1.1//EN" "http://www.w3.org/Graphics/SVG/1.1/DTD/svg11.dtd">
<svg version="1.1" id="图层_1" xmlns="http://www.w3.org/2000/svg" xmlns:xlink="http://www.w3.org/1999/xlink" x="0px" y="0px"
	 width="512px" height="512px" viewBox="0 0 512 512" enable-background="new 0 0 512 512" xml:space="preserve">
<g id="Sale_1_">
	<g>
		<path fill="#070001" d="M479.934,238.083L462.556,62.367c-0.312-6.169-4.797-11.42-10.905-12.65
			c-0.512-0.107-1.032-0.18-1.557-0.227L273.96,32.067c-4.098-0.405-8.09,1.039-10.978,3.926L55.359,243.673
			c-31.145,31.145-31.145,50.144,0,81.288l131.749,131.787C201.066,470.709,213.316,480,227.746,480
			c14.431,0,26.673-9.297,40.625-23.251l207.637-207.685C478.896,246.174,480.333,242.149,479.934,238.083z M249.104,437.475
			c-6.554,6.556-15.895,15.267-21.358,15.267c-5.469,0-14.816-8.711-21.37-15.267L74.626,305.689
			c-20.365-20.371-20.365-22.374,0-42.745L277.693,59.826l158.775,15.711l15.715,158.812L249.104,437.475z M174.533,198.047
			l-61.93,61.936c-15.635,15.646-19.926,26.247-2.022,44.162c1.331,1.331,3.074,1.997,4.817,1.997s3.486-0.666,4.817-1.997
			c2.662-2.663,2.662-6.975,0-9.636c-10.678-10.687-10.545-12.311,2.023-24.889l61.93-61.937c2.662-2.662,2.662-6.974,0-9.635
			C181.505,195.384,177.194,195.384,174.533,198.047z M193.914,178.647l-5.536,5.551c-2.654,2.662-2.654,6.981,0.014,9.635
			c1.331,1.325,3.067,1.99,4.81,1.99c1.744,0,3.493-0.665,4.824-2.003l5.535-5.551c2.655-2.662,2.655-6.981-0.013-9.636
			C200.888,175.986,196.575,175.972,193.914,178.647z M355.503,98.324c-31.158,0-56.5,25.348-56.5,56.507
			c0,31.157,25.343,56.507,56.5,56.507c31.145,0,56.486-25.35,56.486-56.507C411.99,123.671,386.648,98.324,355.503,98.324z
			 M355.503,184.078c-16.128,0-29.249-13.123-29.249-29.248c0-16.125,13.121-29.249,29.249-29.249
			c16.121,0,29.235,13.123,29.235,29.249C384.738,170.954,371.625,184.078,355.503,184.078z"/>
	</g>
</g>
</svg>
