<?xml version="1.0" encoding="utf-8"?>
<!-- Generator: Adobe Illustrator 17.0.0, SVG Export Plug-In . SVG Version: 6.00 Build 0)  -->
<!DOCTYPE svg PUBLIC "-//W3C//DTD SVG 1.1//EN" "http://www.w3.org/Graphics/SVG/1.1/DTD/svg11.dtd">
<svg version="1.1" id="图层_1" xmlns="http://www.w3.org/2000/svg" xmlns:xlink="http://www.w3.org/1999/xlink" x="0px" y="0px"
	 width="512px" height="512px" viewBox="0 0 512 512" enable-background="new 0 0 512 512" xml:space="preserve">
<g id="Timer_1_">
	<g>
		<path fill="#070001" d="M256,32.015C132.488,32.015,32,132.496,32,256s100.489,223.985,224,223.985
			c123.512,0,224-100.482,224-223.985S379.512,32.015,256,32.015z M256,450.405c-107.204,0-194.42-87.208-194.42-194.405
			c0-107.198,87.216-194.407,194.42-194.407c107.205,0,194.421,87.209,194.421,194.407C450.421,363.197,363.205,450.405,256,450.405
			z M180.079,390.243c-48.283-27.384-78.275-78.824-78.275-134.243c0-4.089-3.307-7.395-7.395-7.395s-7.395,3.307-7.395,7.395
			c0,60.726,32.865,117.097,85.771,147.111c1.148,0.65,2.405,0.96,3.64,0.96c2.578,0,5.077-1.343,6.442-3.747
			C184.882,396.77,183.632,392.257,180.079,390.243z M220.412,410.506c-2.881-0.751-5.712-1.559-8.529-2.462
			c-3.922-1.249-8.052,0.917-9.294,4.802c-1.235,3.893,0.91,8.052,4.802,9.294c3.077,0.975,6.167,1.871,9.323,2.679
			c0.621,0.165,1.243,0.237,1.856,0.237c3.286,0,6.29-2.209,7.15-5.546C226.745,415.561,224.37,411.524,220.412,410.506z
			 M269.909,253.248V135.009c0-8.168-6.622-14.79-14.79-14.79c-8.167,0-14.79,6.623-14.79,14.79v124.616
			c0,4.073,2.116,7.958,5.077,10.753l43.28,40.442c2.859,2.701,6.506,4.037,10.153,4.037c3.929,0,7.626-1.553,10.529-4.637
			c5.618-5.943,5.12-15.302-0.816-20.906L269.909,253.248z"/>
	</g>
</g>
</svg>
