<?xml version="1.0" encoding="utf-8"?>
<!-- Generator: Adobe Illustrator 17.0.0, SVG Export Plug-In . SVG Version: 6.00 Build 0)  -->
<!DOCTYPE svg PUBLIC "-//W3C//DTD SVG 1.1//EN" "http://www.w3.org/Graphics/SVG/1.1/DTD/svg11.dtd">
<svg version="1.1" id="图层_1" xmlns="http://www.w3.org/2000/svg" xmlns:xlink="http://www.w3.org/1999/xlink" x="0px" y="0px"
	 width="512px" height="512px" viewBox="0 0 512 512" enable-background="new 0 0 512 512" xml:space="preserve">
<g>
	<g id="Cascad_4_">
		<g>
			<path fill="#070001" d="M430.303,92.183H148.56c-25.599,0-46.357,20.758-46.357,46.343v295.129
				c0,25.599,20.758,46.344,46.357,46.344h281.743c25.599,0,46.357-20.746,46.357-46.343v-295.13
				C476.66,112.929,455.902,92.183,430.303,92.183z M449.901,433.656c0,10.826-8.773,19.599-19.599,19.599H148.56
				c-10.826,0-19.598-8.773-19.598-19.599V138.527c0-10.826,8.773-19.599,19.598-19.599h281.743
				c10.826,0,19.599,8.773,19.599,19.599V433.656z M313.629,45.373c0-7.386-5.987-13.373-13.373-13.373H79.137
				C53.579,32,35.34,52.785,35.34,78.343v201.055c0,7.386,5.987,13.373,13.373,13.373s13.373-5.987,13.373-13.373V78.343
				c0-10.799,6.239-19.598,17.052-19.598h221.12C307.644,58.745,313.629,52.758,313.629,45.373z M409.784,359.647
				c-3.693,0-6.68,2.986-6.68,6.68v28.292c0,18.518-10.84,18.518-14.386,18.518h-95.141c-3.693,0-6.693,2.986-6.693,6.68
				c0,3.693,2.986,6.68,6.693,6.68h95.141c7.573,0,27.758-3.107,27.758-31.891v-28.292
				C416.477,362.633,413.478,359.647,409.784,359.647z M409.784,332.902c-3.693,0-6.68,2.986-6.68,6.68v6.693
				c0,3.693,2.986,6.693,6.68,6.693s6.693-2.986,6.693-6.693v-6.693C416.477,335.888,413.478,332.902,409.784,332.902z"/>
		</g>
	</g>
</g>
</svg>
