<?xml version="1.0" encoding="utf-8"?>
<!-- Generator: Adobe Illustrator 17.0.0, SVG Export Plug-In . SVG Version: 6.00 Build 0)  -->
<!DOCTYPE svg PUBLIC "-//W3C//DTD SVG 1.1//EN" "http://www.w3.org/Graphics/SVG/1.1/DTD/svg11.dtd">
<svg version="1.1" id="图层_1" xmlns="http://www.w3.org/2000/svg" xmlns:xlink="http://www.w3.org/1999/xlink" x="0px" y="0px"
	 width="512px" height="512px" viewBox="0 0 512 512" enable-background="new 0 0 512 512" xml:space="preserve">
<g>
	<g>
		<path fill="#040000" d="M200.498,318.671v-65.075c-1.097-18.428,9.206-27.664,30.908-27.664h71.578
			c8.681,1.097,13.021-4.31,13.021-16.265v-56.935c1.066-9.762-5.437-14.643-19.524-14.643H150.05v-17.902h159.437
			c36.855-2.163,54.217,14.102,52.054,48.795v53.691c3.259,28.22-14.102,40.686-52.054,37.426h-47.189
			c-11.94,0-17.361,4.881-16.265,14.643v43.929C246.033,318.671,200.498,318.671,200.498,318.671z M200.498,390.249v-53.691h45.551
			v53.691H200.498z"/>
	</g>
	<g id="Refresh_2_">
		<g>
			<path fill="#060001" d="M474.82,208.24C448.484,87.579,328.898,10.842,208.237,37.177
				C87.582,63.511,10.844,183.098,37.18,303.759c26.336,120.662,145.923,197.398,266.577,171.064
				C424.418,448.488,501.155,328.901,474.82,208.24z M297.876,447.877c-105.8,23.092-210.657-44.198-233.749-149.999
				S108.318,87.216,214.118,64.125c105.8-23.092,210.663,44.198,233.755,149.997C470.965,319.922,403.676,424.785,297.876,447.877z
				 M422.675,257.859c-3.805-0.197-7.048,2.724-7.244,6.529c-3.725,71.575-55.289,132.252-125.398,147.555
				c-3.724,0.813-6.079,4.483-5.266,8.207c0.813,3.724,4.483,6.079,8.206,5.266c76.169-16.625,132.184-82.547,136.232-160.313
				C429.386,261.35,426.483,258.062,422.675,257.859z M413.611,230.725c0.015,0.128,0.042,0.253,0.069,0.378
				c0.775,3.552,4.207,5.919,7.834,5.326c3.763-0.607,6.318-4.143,5.705-7.903c-0.514-3.176-1.108-6.34-1.799-9.505
				c-0.813-3.724-4.484-6.079-8.206-5.266c-3.724,0.813-6.079,4.484-5.266,8.206C412.583,224.877,413.139,227.802,413.611,230.725z"
				/>
		</g>
	</g>
</g>
</svg>
