<?xml version="1.0" encoding="utf-8"?>
<!-- Generator: Adobe Illustrator 17.0.0, SVG Export Plug-In . SVG Version: 6.00 Build 0)  -->
<!DOCTYPE svg PUBLIC "-//W3C//DTD SVG 1.1//EN" "http://www.w3.org/Graphics/SVG/1.1/DTD/svg11.dtd">
<svg version="1.1" id="图层_1" xmlns="http://www.w3.org/2000/svg" xmlns:xlink="http://www.w3.org/1999/xlink" x="0px" y="0px"
	 width="512px" height="512px" viewBox="0 0 512 512" enable-background="new 0 0 512 512" xml:space="preserve">
<g id="Link_2_">
	<g>
		<path fill="#070001" d="M242.966,377.2c-6.211-4.252-14.71-2.739-19.019,3.394l-29.071,41.494
			c-22.788,32.525-68.022,40.601-100.817,18.018l-3.649-2.513c-32.807-22.596-40.966-67.444-18.471-99.578L167.1,212.11
			c11.04-15.762,27.604-26.314,46.643-29.719c19.018-3.42,38.27,0.741,54.174,11.695l3.649,2.507
			c13.682,9.419,23.415,22.768,28.138,38.596c2.147,7.184,9.753,11.253,16.977,9.148c7.238-2.124,11.367-9.664,9.226-16.834
			c-6.416-21.499-20.186-40.384-38.764-53.169l-3.649-2.508c-21.887-15.068-48.377-20.803-74.601-16.1
			c-26.223,4.69-49.038,19.223-63.947,40.535L49.784,322.166c-31.373,44.802-20.14,106.57,25.042,137.68l3.649,2.513
			C95.787,474.278,115.605,480,135.239,480c31.607,0,62.726-14.824,82.078-42.453l29.072-41.487
			C250.691,389.914,249.157,381.474,242.966,377.2z M437.142,52.181l-3.616-2.474c-21.886-15.074-48.39-20.796-74.606-16.114
			c-26.23,4.69-49.045,19.223-64.241,40.932l-29.065,41.487c-4.302,6.144-2.768,14.585,3.429,18.852
			c6.197,4.266,14.709,2.752,19.012-3.401l29.065-41.487c11.041-15.762,27.604-26.313,46.643-29.718
			c19.045-3.393,38.278,0.747,54.208,11.728l3.622,2.474c32.808,22.596,40.966,67.444,18.465,99.579l-95.154,125.917
			c-22.788,32.525-68.022,40.614-100.804,18.044l-3.676-2.539c-13.681-9.426-23.408-22.768-28.124-38.584
			c-2.135-7.177-9.719-11.271-16.978-9.148c-7.231,2.124-11.367,9.657-9.226,16.835c6.404,21.478,20.16,40.349,38.725,53.135
			l3.676,2.54c17.344,11.939,37.202,17.655,56.855,17.655c31.54,0,62.546-14.731,81.705-42.089l95.154-125.918
			C493.591,145.09,482.363,83.323,437.142,52.181z M378.331,219.261c-3.008-2.236-7.297-1.641-9.559,1.355l-3.742,4.947
			c-2.269,2.991-1.655,7.237,1.368,9.479c1.227,0.914,2.661,1.356,4.089,1.356c2.082,0,4.129-0.933,5.47-2.713l3.742-4.947
			C381.967,225.751,381.353,221.504,378.331,219.261z M380.653,204.901c-2.269,2.991-1.655,7.237,1.368,9.48
			c1.228,0.912,2.662,1.355,4.089,1.355c2.082,0,4.129-0.933,5.47-2.713l30.379-40.19c9.473-13.52,13.062-29.893,10.113-46.098
			c-2.948-16.207-12.08-30.302-25.722-39.695l-2.348-1.614c-3.115-2.138-7.364-1.363-9.506,1.713
			c-2.147,3.069-1.374,7.29,1.728,9.425l2.341,1.607c10.641,7.322,17.764,18.322,20.066,30.97c2.302,12.64-0.5,25.414-7.744,35.766
			L380.653,204.901z"/>
	</g>
</g>
</svg>
