<?xml version="1.0" encoding="utf-8"?>
<!-- Generator: Adobe Illustrator 17.0.0, SVG Export Plug-In . SVG Version: 6.00 Build 0)  -->
<!DOCTYPE svg PUBLIC "-//W3C//DTD SVG 1.1//EN" "http://www.w3.org/Graphics/SVG/1.1/DTD/svg11.dtd">
<svg version="1.1" id="图层_1" xmlns="http://www.w3.org/2000/svg" xmlns:xlink="http://www.w3.org/1999/xlink" x="0px" y="0px"
	 width="512px" height="512px" viewBox="0 0 512 512" enable-background="new 0 0 512 512" xml:space="preserve">
<g id="Phone">
	<g>
		<path fill="#070001" d="M364.979,32H147.021C120.225,32,98.5,53.724,98.5,80.521v350.957c0,26.797,21.725,48.521,48.521,48.521
			h217.957c26.797,0,48.521-21.724,48.521-48.521V80.521C413.5,53.724,391.776,32,364.979,32z M385.5,431.479
			c0,11.333-9.188,20.521-20.521,20.521H147.021c-11.334,0-20.521-9.188-20.521-20.521V389h259V431.479z M385.5,375h-259V109h259
			V375z M385.5,95h-259V80.521C126.5,69.188,135.688,60,147.021,60h217.957c11.334,0,20.521,9.188,20.521,20.521V95z M257.75,431
			h3.5c6.765,0,12.25-5.482,12.25-12.25v-3.5c0-6.767-5.486-12.249-12.25-12.249h-3.5c-6.764,0-12.25,5.482-12.25,12.249v3.5
			C245.5,425.518,250.986,431,257.75,431z M285.319,232.977c0.766,0.274,1.552,0.396,2.317,0.396c2.892,0,5.592-1.798,6.604-4.676
			l1.901-5.408c1.285-3.65-0.636-7.649-4.28-8.927c-3.664-1.306-7.642,0.635-8.928,4.279l-1.9,5.408
			C279.755,227.699,281.669,231.699,285.319,232.977z M258.632,308.985c0.766,0.275,1.552,0.397,2.317,0.397
			c2.892,0,5.592-1.798,6.604-4.683l19.851-56.532c1.285-3.644-0.636-7.643-4.28-8.922c-3.658-1.305-7.649,0.636-8.928,4.287
			l-19.85,56.533C253.068,303.708,254.982,307.706,258.632,308.985z M230.263,256.199c0.766,0.274,1.552,0.397,2.318,0.397
			c2.892,0,5.598-1.798,6.604-4.683l29.025-82.681c1.279-3.643-0.636-7.642-4.286-8.921c-3.65-1.299-7.649,0.628-8.921,4.286
			l-29.025,82.68C224.699,250.921,226.612,254.92,230.263,256.199z M216.632,294.985c0.766,0.274,1.552,0.397,2.317,0.397
			c2.892,0,5.592-1.798,6.604-4.676l4.272-12.148c1.279-3.65-0.635-7.649-4.286-8.928c-3.657-1.293-7.642,0.635-8.921,4.279
			l-4.272,12.147C211.068,289.708,212.982,293.707,216.632,294.985z"/>
	</g>
</g>
</svg>
