<?xml version="1.0" encoding="utf-8"?>
<!-- Generator: Adobe Illustrator 17.0.0, SVG Export Plug-In . SVG Version: 6.00 Build 0)  -->
<!DOCTYPE svg PUBLIC "-//W3C//DTD SVG 1.1//EN" "http://www.w3.org/Graphics/SVG/1.1/DTD/svg11.dtd">
<svg version="1.1" id="图层_1" xmlns="http://www.w3.org/2000/svg" xmlns:xlink="http://www.w3.org/1999/xlink" x="0px" y="0px"
	 width="512px" height="512px" viewBox="0 0 512 512" enable-background="new 0 0 512 512" xml:space="preserve">
<g>
	<g id="User_1_">
		<g>
			<path fill="#090103" d="M265.727,113.944c0-3.233-2.624-5.855-5.855-5.855c-32.197,0-58.392,26.194-58.392,58.392
				c0,3.233,2.619,5.855,5.855,5.855c3.231,0,5.856-2.622,5.856-5.855c0-25.74,20.94-46.682,46.681-46.682
				C263.102,119.8,265.727,117.178,265.727,113.944z M205.23,184.799c-1.109,1.115-1.698,2.636-1.698,4.159s0.59,3.046,1.698,4.158
				c1.115,1.111,2.579,1.698,4.157,1.698c1.527,0,3.048-0.586,4.1-1.698c1.115-1.112,1.755-2.576,1.755-4.158
				c0-1.523-0.64-3.044-1.755-4.159C211.32,182.635,207.397,182.635,205.23,184.799z M312.241,281.196
				c24.938-34.175,40.434-85.049,40.434-117.48c0-53.036-43.153-96.187-96.188-96.187c-53.04,0-96.188,43.151-96.188,96.188
				c0,32.471,15.536,83.432,40.527,117.609c-51.203,22.186-85.838,74.201-85.838,131.362c0,43.465,107.934,55.154,141.012,55.154
				c33.078,0,141.011-11.689,141.011-55.154C397.012,355.701,362.82,303.679,312.241,281.196z M183.719,163.717
				c0-40.123,32.644-72.768,72.768-72.768c40.124,0,72.768,32.644,72.768,72.768c0,45.458-37.407,129.987-72.768,129.987
				C221.121,293.704,183.719,209.175,183.719,163.717z M256,475.716c-81.435,0-117.59-56.579-117.59-63.029
				c0-49.707,31.231-94.741,76.77-111.92c12.357,11.498,26.503,17.532,41.307,17.532c14.461,0,28.533-6.143,41.066-17.854
				c45.104,17.4,76.038,62.558,76.038,112.244C373.59,419.137,337.43,475.716,256,475.716z"/>
		</g>
	</g>
	<g>
		<g id="x">
			<g>
				<path fill="#070001" d="M256,32C132.288,32,32,132.291,32,256.002S132.288,480,256,480s224-100.287,224-223.998
					S379.712,32,256,32z M256,452.002c-108.247,0-196-87.751-196-196S147.753,60,256,60s196,87.753,196,196.002
					S364.247,452.002,256,452.002z"/>
			</g>
		</g>
	</g>
</g>
</svg>
