<?xml version="1.0" encoding="UTF-8" standalone="no"?>
<svg width="424px" height="448px" viewBox="0 0 424 448" version="1.1" xmlns="http://www.w3.org/2000/svg" xmlns:xlink="http://www.w3.org/1999/xlink">
    <!-- Generator: Sketch 3.6.1 (26313) - http://www.bohemiancoding.com/sketch -->
    <title>USER</title>
    <desc>Created with Sketch.</desc>
    <defs></defs>
    <g id="Page-1" stroke="none" stroke-width="1" fill="none" fill-rule="evenodd">
        <g id="USER" fill="#000000">
            <path d="M275.186046,245.788636 C313.671582,222.85745 339.650123,180.619168 339.650123,132.191069 C339.650123,59.4847786 281.166256,0.312697987 209.307298,0.312697987 C137.41619,0.312697987 78.9323222,59.4847786 78.9323222,132.191069 C78.9323222,181.420957 105.811109,224.396886 145.454104,247.039428 C66.7468437,272.632555 8.29512797,342.452403 0.450123222,429.238121 C-0.417971563,438.667167 6.59109006,447.069924 16.0758294,447.903786 C25.5927203,448.769718 33.9521517,441.810184 34.7880948,432.316994 C43.1153744,340.207392 119.379109,270.74033 212.168796,270.74033 C304.990634,270.74033 381.190067,340.207392 389.485194,432.316994 C390.321138,441.264966 397.876778,447.967928 406.686332,447.967928 C407.232911,447.967928 407.715185,447.967928 408.261763,447.903786 C417.714351,447.069924 424.755563,438.667167 423.887468,429.238121 C415.913858,341.073324 355.6938,270.387545 275.186046,245.788636 L275.186046,245.788636 L275.186046,245.788636 Z M113.398901,132.191069 C113.398901,78.4390873 156.41782,34.6934407 209.275147,34.6934407 C262.132474,34.6934407 305.151394,78.4390873 305.151394,132.191069 C305.151394,185.91098 262.132474,229.656626 209.275147,229.656626 C156.41782,229.656626 113.398901,185.943051 113.398901,132.191069 L113.398901,132.191069 L113.398901,132.191069 Z" id="Shape"></path>
        </g>
    </g>
</svg>