<?xml version="1.0" encoding="utf-8"?>
<!-- Generator: Adobe Illustrator 17.0.0, SVG Export Plug-In . SVG Version: 6.00 Build 0)  -->
<!DOCTYPE svg PUBLIC "-//W3C//DTD SVG 1.1//EN" "http://www.w3.org/Graphics/SVG/1.1/DTD/svg11.dtd">
<svg version="1.1" id="图层_1" xmlns="http://www.w3.org/2000/svg" xmlns:xlink="http://www.w3.org/1999/xlink" x="0px" y="0px"
	 width="512px" height="512px" viewBox="0 0 512 512" enable-background="new 0 0 512 512" xml:space="preserve">
<path fill="#070001" d="M256.007,32C132.494,32,32,132.482,32,256s100.494,224,224.007,224S480,379.518,480,256
	C479.985,132.482,379.506,32,256.007,32z M341.371,256.638c-14.795,33.044-23.455,53.02-26.066,59.968
	c-1.755,4.366-7.818,22.614-18.248,54.745c-13.04,7.819-25.225,12.591-36.495,14.332c-45.199,0-75.167-44.315-89.948-132.961
	c-4.366-24.312-7.818-41.255-10.429-50.829c-6.093-21.716-15.637-33.001-28.677-33.886c0.856-0.856,2.161-2.147,3.916-3.917
	c15.651-21.701,34.32-31.695,56.049-29.969c13.026,0,24.326,11.736,33.884,35.192c0.856,1.755,1.305,3.061,1.305,3.917
	c6.934,15.636,14.332,52.133,22.165,109.49c2.596,20.859,4.322,33.465,5.207,37.788c0.856-3.453,3.032-10.43,6.513-20.859
	c37.352-114.713,66.9-172.49,88.629-173.36c18.248,0.871,28.677,13.026,31.288,36.497
	C380.478,167.152,367.437,198.441,341.371,256.638z"/>
</svg>
