<?xml version="1.0" encoding="utf-8"?>
<!-- Generator: Adobe Illustrator 17.0.0, SVG Export Plug-In . SVG Version: 6.00 Build 0)  -->
<!DOCTYPE svg PUBLIC "-//W3C//DTD SVG 1.1//EN" "http://www.w3.org/Graphics/SVG/1.1/DTD/svg11.dtd">
<svg version="1.1" id="图层_1" xmlns="http://www.w3.org/2000/svg" xmlns:xlink="http://www.w3.org/1999/xlink" x="0px" y="0px"
	 width="512px" height="512px" viewBox="0 0 512 512" enable-background="new 0 0 512 512" xml:space="preserve">
<g>
	<g id="Play_34_">
		<g>
			<path fill="#070001" d="M469.855,363.13L301.566,99.15c-11.602-20.05-27.882-31.069-45.842-31.052
				c-17.979,0.017-34.259,11.127-45.538,30.726L41.783,364.012c-6.499,11.283-9.793,22.52-9.783,33.166
				c0.026,27.854,22.412,46.756,55.698,46.725l336.692-0.316c33.286-0.032,55.637-18.976,55.61-46.817
				C479.99,386.124,476.681,374.906,469.855,363.13z M424.364,416.351l-336.692,0.316c-8.544,0.008-28.421-2.068-28.437-19.515
				c-0.005-5.724,2.123-12.545,5.847-19.032l168.402-265.234c6.426-11.157,14.538-17.545,22.265-17.552
				c7.707-0.007,15.812,6.384,22.545,17.995l168.289,263.934c4.043,6.985,6.177,13.815,6.183,19.533
				C452.782,414.229,432.908,416.342,424.364,416.351z M340.717,254.247c-2.012-3.183-6.215-4.136-9.391-2.126
				c-3.189,2.004-4.129,6.207-2.132,9.391l2.317,3.674c2.011,3.176,6.214,4.13,9.391,2.126c2.06-1.298,3.182-3.507,3.18-5.774
				c-0.001-1.238-0.341-2.494-1.047-3.616L340.717,254.247z M357.725,281.241c-2.005-3.183-6.214-4.137-9.391-2.133
				c-3.19,2.011-4.124,6.214-2.133,9.391l48.14,76.368c2.004,3.183,6.215,4.136,9.391,2.132c2.06-1.298,3.183-3.507,3.18-5.774
				c-0.001-1.238-0.341-2.493-1.047-3.616L357.725,281.241z"/>
		</g>
	</g>
	<g>
		<path fill="#070001" d="M237.419,200.75h40.42v59.14c0,8.083-1.42,20.429-4.256,37.051c-0.952,7.126-1.662,12.592-2.126,16.388
			l-1.42,0.713h-24.819c-0.952,0-1.417-0.234-1.417-0.713c-0.479-3.796-1.185-9.263-2.129-16.388
			c-2.836-16.143-4.253-28.501-4.253-37.051V200.75z M240.255,334.109H275v34.914h-34.744V334.109z"/>
	</g>
</g>
</svg>
