<?xml version="1.0" encoding="utf-8"?>
<!-- Generator: Adobe Illustrator 17.0.0, SVG Export Plug-In . SVG Version: 6.00 Build 0)  -->
<!DOCTYPE svg PUBLIC "-//W3C//DTD SVG 1.1//EN" "http://www.w3.org/Graphics/SVG/1.1/DTD/svg11.dtd">
<svg version="1.1" id="图层_1" xmlns="http://www.w3.org/2000/svg" xmlns:xlink="http://www.w3.org/1999/xlink" x="0px" y="0px"
	 width="512px" height="512px" viewBox="0 0 512 512" enable-background="new 0 0 512 512" xml:space="preserve">
<g>
	<path fill="#070001" d="M97.664,414.758c6.053,6.053,12.403,11.631,18.96,16.838c16.023,12.729,33.38,22.966,51.57,30.681v-150.08
		v-13.174v-27.833c-0.416-2.566-0.727-5.148-0.92-7.745c-0.519-6.854-0.193-13.753,0.905-20.562L55.382,355.682
		c2.122,4.273,4.377,8.515,6.78,12.685C71.701,384.938,83.481,400.59,97.664,414.758z M116.625,314.067v0.326l-0.164-0.164
		L116.625,314.067z"/>
	<path fill="#070001" d="M339.163,464.533L233.041,358.412l-9.317-9.317l-19.673-19.673c-2.107-1.528-4.154-3.131-6.128-4.821
		c-5.222-4.481-9.866-9.584-13.901-15.177V468.94c4.525,1.528,9.11,2.922,13.753,4.169c18.47,4.985,37.861,7.7,57.905,7.7
		c8.575,0,17.002-0.549,25.31-1.498C301.345,476.98,320.855,471.936,339.163,464.533z M197.91,396.421v-0.222l0.222,0.222H197.91z"
		/>
	<path fill="#070001" d="M39.7,197.798c-4.97,18.47-7.7,37.861-7.7,57.905c0,8.575,0.549,17.002,1.498,25.31
		c2.329,20.34,7.374,39.849,14.777,58.157l106.122-106.122l9.317-9.317l19.673-19.673c1.528-2.107,3.131-4.154,4.821-6.128
		c4.481-5.222,9.584-9.866,15.177-13.901h-159.5C42.356,188.57,40.962,193.155,39.7,197.798z M116.387,197.917h0.222l-0.222,0.222
		V197.917z"/>
	<path fill="#070001" d="M256.349,31.192c-8.575,0-17.002,0.549-25.31,1.498c-20.34,2.329-39.849,7.374-58.157,14.777
		l106.122,106.121l9.317,9.317l19.673,19.673c2.107,1.528,4.154,3.131,6.128,4.821c5.222,4.481,9.866,9.584,13.901,15.177v-159.5
		c-4.525-1.528-9.11-2.922-13.753-4.168C295.782,33.922,276.392,31.192,256.349,31.192z M314.134,115.8l-0.222-0.222h0.222V115.8z"
		/>
	<circle fill="#070001" cx="255.978" cy="256.044" r="72.696"/>
	<path fill="#070001" d="M367.396,450.839c16.586-9.539,32.224-21.334,46.392-35.502c6.053-6.053,11.631-12.403,16.838-18.96
		c12.729-16.023,22.966-33.38,30.681-51.57h-150.08h-13.175H270.22c-2.566,0.416-5.148,0.727-7.745,0.92
		c-6.854,0.519-13.753,0.193-20.562-0.905L354.71,457.618C358.983,455.497,363.226,453.243,367.396,450.839z M313.259,396.54
		l-0.164-0.164h0.326L313.259,396.54z"/>
	<path fill="#070001" d="M456.484,155.234c-2.122-4.273-4.377-8.515-6.78-12.685c-9.539-16.586-21.334-32.224-35.502-46.392
		c-6.053-6.053-12.403-11.631-18.96-16.838c-16.023-12.729-33.38-22.966-51.57-30.681v150.08v13.174v27.832
		c0.416,2.566,0.727,5.148,0.92,7.745c0.519,6.854,0.193,13.753-0.905,20.562L456.484,155.234z M395.242,196.537l0.164,0.164
		l-0.164,0.164V196.537z"/>
	<path fill="#070001" d="M472.3,314.275c4.97-18.47,7.7-37.861,7.7-57.905c0-8.575-0.549-17.002-1.498-25.31
		c-2.329-20.34-7.374-39.849-14.777-58.157L357.603,279.025l-9.317,9.317l-19.673,19.672c-1.528,2.107-3.131,4.154-4.821,6.128
		c-4.481,5.222-9.584,9.866-15.177,13.901h159.516C469.659,323.518,471.053,318.934,472.3,314.275z M395.628,314.156h-0.222
		l0.222-0.222V314.156z"/>
	<path fill="#070001" d="M49.64,168.067h150.08h13.174h27.832c2.566-0.416,5.148-0.727,7.745-0.92
		c6.854-0.519,13.753-0.193,20.562,0.905L156.221,55.255c-4.273,2.122-8.501,4.377-12.67,6.765
		c-16.586,9.554-32.224,21.334-46.406,35.502c-6.053,6.068-11.631,12.418-16.838,18.96C67.577,132.521,57.34,149.879,49.64,168.067z
		 M197.673,116.335l0.164,0.164h-0.326L197.673,116.335z"/>
</g>
</svg>
