<?xml version="1.0" encoding="utf-8"?>
<!-- Generator: Adobe Illustrator 17.0.0, SVG Export Plug-In . SVG Version: 6.00 Build 0)  -->
<!DOCTYPE svg PUBLIC "-//W3C//DTD SVG 1.1//EN" "http://www.w3.org/Graphics/SVG/1.1/DTD/svg11.dtd">
<svg version="1.1" id="图层_1" xmlns="http://www.w3.org/2000/svg" xmlns:xlink="http://www.w3.org/1999/xlink" x="0px" y="0px"
	 width="512px" height="512px" viewBox="0 0 512 512" enable-background="new 0 0 512 512" xml:space="preserve">
<g>
	<path fill="#070001" d="M335.276,183.948c5.143,0,10.224,0.373,15.267,0.944c-13.714-63.89-82.014-111.358-159.979-111.358
		C103.393,73.535,32,132.953,32,208.396c0,43.541,23.752,79.307,63.455,107.046l-15.864,47.703l55.43-27.802
		c19.839,3.926,35.752,7.963,55.542,7.963c4.981,0,9.914-0.249,14.808-0.634c-3.093-10.596-4.894-21.703-4.894-33.231
		C200.477,240.173,259.957,183.948,335.276,183.948z M250.018,140.953c11.938,0,19.852,7.851,19.852,19.79
		c0,11.889-7.913,19.852-19.852,19.852c-11.889,0-23.814-7.963-23.814-19.852C226.217,148.817,238.142,140.953,250.018,140.953z
		 M139.046,180.594c-11.889,0-23.877-7.963-23.877-19.852c0-11.926,11.988-19.79,23.877-19.79c11.889,0,19.79,7.851,19.79,19.79
		C158.848,172.631,150.935,180.594,139.046,180.594z"/>
	<path fill="#070001" d="M480,307.542c0-63.393-63.43-115.072-134.687-115.072c-75.443,0-134.861,51.679-134.861,115.072
		c0,63.505,59.418,115.072,134.861,115.072c15.79,0,31.715-3.988,47.579-7.963l43.492,23.814l-11.926-39.628
		C456.285,374.96,480,343.294,480,307.542z M301.585,287.702c-7.901,0-15.864-7.851-15.864-15.864
		c0-7.901,7.963-15.864,15.864-15.864c11.988,0,19.852,7.963,19.852,15.864C321.437,279.839,313.586,287.702,301.585,287.702z
		 M388.805,287.702c-7.839,0-15.752-7.851-15.752-15.864c0-7.901,7.913-15.864,15.752-15.864c11.889,0,19.852,7.963,19.852,15.864
		C408.656,279.839,400.693,287.702,388.805,287.702z"/>
</g>
</svg>
