<?xml version="1.0" encoding="utf-8"?>
<!-- Generator: Adobe Illustrator 17.0.0, SVG Export Plug-In . SVG Version: 6.00 Build 0)  -->
<!DOCTYPE svg PUBLIC "-//W3C//DTD SVG 1.1//EN" "http://www.w3.org/Graphics/SVG/1.1/DTD/svg11.dtd">
<svg version="1.1" id="图层_1" xmlns="http://www.w3.org/2000/svg" xmlns:xlink="http://www.w3.org/1999/xlink" x="0px" y="0px"
	 width="512px" height="512px" viewBox="0 0 512 512" enable-background="new 0 0 512 512" xml:space="preserve">
<g>
	<ellipse fill="#070001" cx="251.262" cy="200.579" rx="12.946" ry="12.544"/>
	<ellipse fill="#070001" cx="280.041" cy="263.729" rx="10.939" ry="10.589"/>
	<ellipse fill="#070001" cx="187.064" cy="200.579" rx="12.946" ry="12.544"/>
	<ellipse fill="#070001" cx="334.27" cy="263.729" rx="10.939" ry="10.589"/>
	<path fill="#070001" d="M256,32C132.291,32,32,132.291,32,256s100.291,224,224,224s224-100.291,224-224S379.709,32,256,32z
		 M219.156,304.313c-10.202,0-20.027-1.385-29.193-3.936c-0.531-0.156-1.566-0.453-1.566-0.453l-33.348,16.985l8.92-27.924
		c0,0-0.556-0.349-0.842-0.531c-22.021-14.098-36.209-36.313-36.209-61.298c0-42.618,41.297-77.157,92.251-77.157
		c46.152,0,84.381,28.339,91.19,65.363c-1.282-0.065-2.576-0.091-3.884-0.091c-46.398,0-84.031,31.536-84.031,70.438
		c0,6.369,1.036,12.544,2.926,18.409C223.312,304.236,221.241,304.313,219.156,304.313z M354.504,337.96
		c-0.233,0.143-0.712,0.453-0.712,0.453l7.521,23.601l-28.17-14.357c0,0-0.88,0.272-1.32,0.389c-7.754,2.162-16.04,3.34-24.662,3.34
		c-43.045,0-77.959-29.18-77.959-65.195c0-36.002,34.902-65.181,77.959-65.181c43.032,0,77.921,29.18,77.921,65.181
		C385.095,307.291,373.094,326.049,354.504,337.96z"/>
</g>
</svg>
