<?xml version="1.0" encoding="utf-8"?>
<!-- Generator: Adobe Illustrator 17.0.0, SVG Export Plug-In . SVG Version: 6.00 Build 0)  -->
<!DOCTYPE svg PUBLIC "-//W3C//DTD SVG 1.1//EN" "http://www.w3.org/Graphics/SVG/1.1/DTD/svg11.dtd">
<svg version="1.1" id="图层_1" xmlns="http://www.w3.org/2000/svg" xmlns:xlink="http://www.w3.org/1999/xlink" x="0px" y="0px"
	 width="512px" height="512px" viewBox="0 0 512 512" enable-background="new 0 0 512 512" xml:space="preserve">
<g>
	<path fill="#070001" d="M229.215,250.485c-42.967,1.981-77.713,25.011-77.713,53.725c0,28.675,34.733,50.229,77.713,48.21
		c43.005-1.955,77.816-28.869,77.816-57.544C307.032,266.227,272.234,248.505,229.215,250.485z M258.498,322.709
		c-13.166,16.985-39.2,25.283-64.483,11.587c-12.027-6.525-11.599-19.354-11.599-19.354s-4.997-40.481,38.229-45.543
		C263.935,264.376,271.664,305.711,258.498,322.709z"/>
	<path fill="#070001" d="M229.513,295.588c-2.77,2.006-3.34,5.839-1.825,8.234c1.437,2.447,4.803,2.745,7.535,0.699
		c2.667-2.123,3.702-5.786,2.252-8.234C236.038,293.905,232.711,293.219,229.513,295.588z"/>
	<path fill="#070001" d="M209.02,301.154c-8.065,0.842-13.852,7.884-13.852,14.603c0,6.758,6.499,11.406,14.577,10.46
		c8.04-0.919,14.577-7.133,14.577-13.852C224.335,305.621,218.289,300.274,209.02,301.154z"/>
	<path fill="#070001" d="M256,32C132.291,32,32,132.291,32,256s100.291,224,224,224s224-100.291,224-224S379.709,32,256,32z
		 M345.443,313.907c-17.71,37.633-76.134,55.939-119.437,52.56c-41.142-3.25-94.051-16.92-99.514-66.696
		c0,0-2.887-22.551,18.979-51.731c0,0,31.445-43.899,68.069-56.43c36.663-12.467,40.934,8.635,40.934,21.102
		c-1.956,10.588-5.593,16.803,8.155,12.531c0,0,36.041-16.713,50.864-1.877c11.962,11.962,1.968,28.442,1.968,28.442
		s-4.959,5.489,5.256,7.457C330.969,261.295,363.165,276.208,345.443,313.907z M350.387,226.781c0,0.181-0.103,0.337-0.103,0.505
		c-0.026,0.221-0.013,0.466-0.039,0.686l-0.091-0.013c-0.608,4.336-4.168,7.741-8.674,7.741c-4.919,0-8.907-3.987-8.907-8.92
		c0-0.375,0.168-0.686,0.207-1.036l-0.207-0.026c0.13-1.048,0.207-2.123,0.207-3.21c0-13.8-11.224-25.024-25.024-25.024
		c-4.919,0-8.907-3.987-8.907-8.92c0-4.919,3.987-8.907,8.907-8.907c23.626,0,42.85,19.212,42.85,42.837
		c0,1.359-0.129,2.692-0.259,4.013C350.322,226.6,350.387,226.678,350.387,226.781z M384.15,234.083
		c-0.013,0.867-0.143,1.683-0.337,2.486c-0.013,0.026-0.013,0.065-0.013,0.065h-0.013c-1.191,4.609-5.334,8.04-10.318,8.04
		c-5.916,0-10.693-4.79-10.693-10.693c0-0.414,0.078-0.816,0.116-1.217l-0.13-0.026c0.621-3.353,0.932-6.796,0.932-10.24
		c0-30.863-25.102-55.964-55.964-55.964c-5.916,0-10.693-4.79-10.693-10.693s4.79-10.693,10.693-10.693
		c42.656,0,77.351,34.708,77.351,77.364C385.095,226.38,384.733,230.251,384.15,234.083z"/>
</g>
</svg>
