<?xml version="1.0" encoding="utf-8"?>
<!-- Generator: Adobe Illustrator 17.0.0, SVG Export Plug-In . SVG Version: 6.00 Build 0)  -->
<!DOCTYPE svg PUBLIC "-//W3C//DTD SVG 1.1//EN" "http://www.w3.org/Graphics/SVG/1.1/DTD/svg11.dtd">
<svg version="1.1" id="图层_1" xmlns="http://www.w3.org/2000/svg" xmlns:xlink="http://www.w3.org/1999/xlink" x="0px" y="0px"
	 width="512px" height="512px" viewBox="0 0 512 512" enable-background="new 0 0 512 512" xml:space="preserve">
<g>
	<g>
		<path fill="#070001" d="M452,60v392H60V60H452 M451.884,32H59.88C44.417,32,32,41.776,32,57.238v392
			C32,464.701,44.417,480,59.88,480h392.004C467.347,480,480,464.701,480,449.238v-392C480,41.776,467.347,32,451.884,32L451.884,32
			z"/>
	</g>
	<g>
		<g>
			<path fill="#070001" d="M193,352.113c-2.417,0-4.833-0.622-7-1.873c-4.331-2.502-7-7.123-7-12.127v-169.75
				c0-5.004,2.669-9.625,7-12.128c4.334-2.502,9.666-2.502,14,0l147,84.875c4.334,2.503,7,7.123,7,12.128
				c0,5.003-2.666,9.625-7,12.127L200,350.24C197.833,351.491,195.417,352.113,193,352.113z M207,192.61v121.256l105-60.628
				L207,192.61z"/>
		</g>
		<g>
			<path fill="#070001" d="M273.373,260.238c-1.333,0-2.683-0.383-3.876-1.176l-42-28c-3.216-2.146-4.085-6.487-1.941-9.707
				c2.146-3.22,6.484-4.088,9.707-1.942l42,28c3.216,2.147,4.085,6.487,1.941,9.707
				C277.855,259.145,275.636,260.238,273.373,260.238z"/>
		</g>
	</g>
	<g>
		<path fill="#070001" d="M123,459c-3.866,0-7-3.131-7-7V46c0-3.869,3.134-7,7-7s7,3.131,7,7v406C130,455.869,126.866,459,123,459z"
			/>
	</g>
	<g>
		<path fill="#070001" d="M382,459c-3.869,0-7-3.131-7-7V46c0-3.869,3.131-7,7-7s7,3.131,7,7v406C389,455.869,385.869,459,382,459z"
			/>
	</g>
	<g>
		<g>
			<path fill="#070001" d="M417,431c-3.869,0-7-3.131-7-7v-14c0-3.869,3.131-7,7-7s7,3.131,7,7v14C424,427.869,420.869,431,417,431z
				"/>
		</g>
		<g>
			<path fill="#070001" d="M417,375c-3.869,0-7-3.131-7-7v-28c0-3.869,3.131-7,7-7s7,3.131,7,7v28C424,371.869,420.869,375,417,375z
				 M417,305c-3.869,0-7-3.131-7-7v-28c0-3.869,3.131-7,7-7s7,3.131,7,7v28C424,301.869,420.869,305,417,305z M417,235
				c-3.869,0-7-3.131-7-7v-28c0-3.869,3.131-7,7-7s7,3.131,7,7v28C424,231.869,420.869,235,417,235z M417,165c-3.869,0-7-3.131-7-7
				v-28c0-3.869,3.131-7,7-7s7,3.131,7,7v28C424,161.869,420.869,165,417,165z"/>
		</g>
		<g>
			<path fill="#070001" d="M417,95c-3.869,0-7-3.131-7-7V74c0-3.869,3.131-7,7-7s7,3.131,7,7v14C424,91.869,420.869,95,417,95z"/>
		</g>
	</g>
	<g>
		<g>
			<path fill="#070001" d="M88,431c-3.866,0-7-3.131-7-7v-14c0-3.869,3.134-7,7-7s7,3.131,7,7v14C95,427.869,91.866,431,88,431z"/>
		</g>
		<g>
			<path fill="#070001" d="M88,375c-3.866,0-7-3.131-7-7v-28c0-3.869,3.134-7,7-7s7,3.131,7,7v28C95,371.869,91.866,375,88,375z
				 M88,305c-3.866,0-7-3.131-7-7v-28c0-3.869,3.134-7,7-7s7,3.131,7,7v28C95,301.869,91.866,305,88,305z M88,235
				c-3.866,0-7-3.131-7-7v-28c0-3.869,3.134-7,7-7s7,3.131,7,7v28C95,231.869,91.866,235,88,235z M88,165c-3.866,0-7-3.131-7-7v-28
				c0-3.869,3.134-7,7-7s7,3.131,7,7v28C95,161.869,91.866,165,88,165z"/>
		</g>
		<g>
			<path fill="#070001" d="M88,95c-3.866,0-7-3.131-7-7V74c0-3.869,3.134-7,7-7s7,3.131,7,7v14C95,91.869,91.866,95,88,95z"/>
		</g>
	</g>
</g>
</svg>
