<?xml version="1.0" encoding="utf-8"?>
<!-- Generator: Adobe Illustrator 17.0.0, SVG Export Plug-In . SVG Version: 6.00 Build 0)  -->
<!DOCTYPE svg PUBLIC "-//W3C//DTD SVG 1.1//EN" "http://www.w3.org/Graphics/SVG/1.1/DTD/svg11.dtd">
<svg version="1.1" id="图层_1" xmlns="http://www.w3.org/2000/svg" xmlns:xlink="http://www.w3.org/1999/xlink" x="0px" y="0px"
	 width="512px" height="512px" viewBox="0 0 512 512" enable-background="new 0 0 512 512" xml:space="preserve">
<g>
	<g id="Planet">
		<g>
			<path fill="#070001" d="M466.466,253.967h-76.371c-0.147-25.78-3.08-50.5-8.342-73.405c27.671-13.847,44.367-32.432,44.367-53.14
				c0-3.837-3.104-6.942-6.941-6.942c-3.837,0-6.941,3.105-6.941,6.942c0,14.726-12.791,28.486-33.955,39.465
				C358.19,94.946,314.555,43.782,263.376,39.277c-1.212-2.024-3.419-3.383-5.953-3.383c-2.449,0-4.595,1.268-5.831,3.181
				c-52.45,2.764-97.386,54.496-117.866,127.811c-21.165-10.979-33.956-24.74-33.956-39.465c0-3.837-3.105-6.942-6.941-6.942
				c-3.836,0-6.941,3.105-6.941,6.942c0,20.708,16.696,39.293,44.369,53.141c-5.263,22.905-8.197,47.626-8.344,73.405H49.98
				c-3.837,0-6.941,3.105-6.941,6.941c0,3.837,3.105,6.941,6.941,6.941h72.118c0.837,25.053,4.315,48.985,9.984,71.091
				c-28.769,13.939-46.201,32.89-46.201,54.058c0,3.837,3.104,6.941,6.941,6.941c3.837,0,6.941-3.104,6.941-6.941
				c0-15.227,13.665-29.42,36.118-40.576c21.977,71.423,67.558,120.619,120.11,120.633c0.462,0.097,0.941,0.149,1.431,0.149
				c0.579,0,1.139-0.079,1.677-0.212c51.248-1.884,95.48-50.536,117.025-120.561c22.444,11.154,36.105,25.344,36.105,40.567
				c0,3.837,3.104,6.941,6.941,6.941s6.941-3.104,6.941-6.941c0-21.165-17.426-40.113-46.188-54.051
				c5.669-22.107,9.146-46.042,9.983-71.098h76.558c3.837,0,6.942-3.104,6.942-6.941S470.302,253.967,466.466,253.967z
				 M376.212,253.967H264.365v-48.492c40.38-0.857,76.657-7.898,104.577-19.159C373.523,207.456,376.073,230.233,376.212,253.967z
				 M365.653,172.704c-26.565,10.885-62.292,17.987-101.288,18.881V53.326C309.515,58.588,347.886,106.163,365.653,172.704z
				 M250.481,53.051v138.585c-40.098-0.607-76.918-7.785-104.126-18.933C164.496,104.781,204.108,56.619,250.481,53.051z
				 M135.989,267.849h18.113c3.838,0,6.941-3.104,6.941-6.941c0-3.836-3.104-6.941-6.941-6.941h-18.307
				c0.139-23.734,2.69-46.511,7.272-67.65c28.573,11.524,65.899,18.626,107.416,19.207v48.444h-61.673
				c-3.837,0-6.941,3.105-6.941,6.941c0,3.837,3.104,6.941,6.941,6.941h61.673v47.033c-40.657,0.567-77.298,7.389-105.634,18.495
				C139.858,312.982,136.778,290.927,135.989,267.849z M148.49,346.842c26.985-10.658,62.933-17.483,101.992-18.073v130.18
				C205.846,455.515,167.479,410.761,148.49,346.842z M264.365,458.674V328.821c37.961,0.872,72.823,7.627,99.153,18.028
				C344.932,409.414,307.787,453.613,264.365,458.674z M367.159,333.384c-27.673-10.849-63.269-17.613-102.794-18.453v-47.081
				h111.653C375.228,290.929,372.149,312.986,367.159,333.384z"/>
		</g>
	</g>
	<g id="Refresh_1_">
		<g>
			<path fill="#070001" d="M256,32.004c-123.516,0-224,100.484-224,223.999c0,123.51,100.484,223.994,224,223.994
				c123.517,0,224-100.484,224-223.994C480,132.488,379.517,32.004,256,32.004z M256,452.412
				c-108.302,0-196.415-88.106-196.415-196.409S147.697,59.587,256,59.587S452.416,147.7,452.416,256.004
				S364.302,452.412,256,452.412z"/>
		</g>
	</g>
</g>
</svg>
