<?xml version="1.0" encoding="utf-8"?>
<!-- Generator: Adobe Illustrator 17.0.0, SVG Export Plug-In . SVG Version: 6.00 Build 0)  -->
<!DOCTYPE svg PUBLIC "-//W3C//DTD SVG 1.1//EN" "http://www.w3.org/Graphics/SVG/1.1/DTD/svg11.dtd">
<svg version="1.1" id="图层_1" xmlns="http://www.w3.org/2000/svg" xmlns:xlink="http://www.w3.org/1999/xlink" x="0px" y="0px"
	 width="512px" height="512px" viewBox="0 0 512 512" enable-background="new 0 0 512 512" xml:space="preserve">
<g>
	<g>
		
			<rect x="253.013" y="69.414" transform="matrix(-0.7111 -0.7031 0.7031 -0.7111 359.2179 560.4268)" fill="#070001" width="83.473" height="273.995"/>
		<path fill="#070001" d="M463.19,73.662l-37.609-37.185c-5.981-5.913-15.713-5.859-21.627,0.123l-1.344,1.36l-1.344,1.36
			L389.954,50.76l59.357,58.688l11.312-11.441l1.344-1.36l1.344-1.36C469.226,89.308,469.171,79.576,463.19,73.662z"/>
		<g>
			<path fill="#070001" d="M163.477,288.532c-3.402-3.364-7.29-2.36-8.638,2.229l-21.822,74.267c-1.349,4.59,1.291,7.2,5.866,5.799
				l74.015-22.662c4.575-1.4,5.534-5.299,2.132-8.663L163.477,288.532z"/>
		</g>
	</g>
	<g>
		<path fill="none" stroke="#070001" stroke-width="30" stroke-miterlimit="10" d="M400.763,206.409v232.034
			c0,14.353-11.743,26.096-26.096,26.096H73.234c-14.353,0-26.096-11.743-26.096-26.096V137.012
			c0-14.353,11.743-26.096,26.096-26.096h216.548"/>
	</g>
	<polyline fill="#070001" points="258.028,95.93 313.783,95.93 289.888,125.74 	"/>
	<polyline fill="#070001" points="415.589,238.008 415.708,182.253 385.694,206.101 	"/>
</g>
</svg>
