<?xml version="1.0" encoding="utf-8"?>
<!-- Generator: Adobe Illustrator 17.0.0, SVG Export Plug-In . SVG Version: 6.00 Build 0)  -->
<!DOCTYPE svg PUBLIC "-//W3C//DTD SVG 1.1//EN" "http://www.w3.org/Graphics/SVG/1.1/DTD/svg11.dtd">
<svg version="1.1" id="图层_1" xmlns="http://www.w3.org/2000/svg" xmlns:xlink="http://www.w3.org/1999/xlink" x="0px" y="0px"
	 width="512px" height="512px" viewBox="0 0 512 512" enable-background="new 0 0 512 512" xml:space="preserve">
<g>
	<g id="x">
		<g>
			<path fill="#090103" d="M256,32C132.288,32,32,132.291,32,256.002S132.288,480,256,480s224-100.287,224-223.998
				S379.712,32,256,32z M256,452.002c-108.247,0-196-87.751-196-196S147.753,60,256,60s196,87.753,196,196.002
				S364.247,452.002,256,452.002z M321.997,190.023c-5.206-5.207-13.647-5.207-18.853,0L256,237.167l-47.144-47.144
				c-5.205-5.207-13.647-5.207-18.854,0c-5.205,5.205-5.205,13.647,0,18.851l47.145,47.145l-47.125,47.126
				c-5.206,5.205-5.206,13.646,0,18.851c5.205,5.207,13.646,5.207,18.854,0L256,274.873l47.124,47.124
				c5.206,5.207,13.647,5.207,18.854,0c5.206-5.205,5.206-13.646,0-18.851l-47.125-47.126l47.145-47.145
				C327.203,203.671,327.203,195.229,321.997,190.023z"/>
		</g>
		<g>
			<path fill="none" stroke="#090103" stroke-miterlimit="10" d="M256,32C132.288,32,32,132.291,32,256.002S132.288,480,256,480
				s224-100.287,224-223.998S379.712,32,256,32z M256,452.002c-108.247,0-196-87.751-196-196S147.753,60,256,60
				s196,87.753,196,196.002S364.247,452.002,256,452.002z M321.997,190.023c-5.206-5.207-13.647-5.207-18.853,0L256,237.167
				l-47.144-47.144c-5.205-5.207-13.647-5.207-18.854,0c-5.205,5.205-5.205,13.647,0,18.851l47.145,47.145l-47.125,47.126
				c-5.206,5.205-5.206,13.646,0,18.851c5.205,5.207,13.646,5.207,18.854,0L256,274.873l47.124,47.124
				c5.206,5.207,13.647,5.207,18.854,0c5.206-5.205,5.206-13.646,0-18.851l-47.125-47.126l47.145-47.145
				C327.203,203.671,327.203,195.229,321.997,190.023z"/>
		</g>
	</g>
</g>
</svg>
