<?xml version="1.0" encoding="utf-8"?>
<!-- Generator: Adobe Illustrator 17.0.0, SVG Export Plug-In . SVG Version: 6.00 Build 0)  -->
<!DOCTYPE svg PUBLIC "-//W3C//DTD SVG 1.1//EN" "http://www.w3.org/Graphics/SVG/1.1/DTD/svg11.dtd">
<svg version="1.1" id="图层_1" xmlns="http://www.w3.org/2000/svg" xmlns:xlink="http://www.w3.org/1999/xlink" x="0px" y="0px"
	 width="512px" height="512px" viewBox="0 0 512 512" enable-background="new 0 0 512 512" xml:space="preserve">
<g id="check">
	<g>
		<path fill="#070001" d="M331.144,204.023L242,293.168l-47.143-47.145c-5.206-5.207-13.648-5.207-18.854,0
			c-5.206,5.207-5.206,13.646,0,18.853l53.42,53.42c0.636,1.337,1.493,2.594,2.6,3.701c2.743,2.744,6.385,4.027,9.978,3.879
			c3.594,0.148,7.234-1.135,9.978-3.879c1.107-1.107,1.964-2.364,2.6-3.701l95.42-95.42c5.206-5.204,5.206-13.646,0-18.851
			C344.791,198.816,336.349,198.816,331.144,204.023z M256,32C132.288,32,32,132.291,32,256.002S132.288,480,256,480
			s224-100.287,224-223.998S379.712,32,256,32z M256,452.002c-108.248,0-196-87.751-196-196S147.752,60,256,60
			c108.247,0,196,87.753,196,196.002S364.248,452.002,256,452.002z"/>
	</g>
</g>
</svg>
