<?xml version="1.0" encoding="utf-8"?>
<!-- Generator: Adobe Illustrator 17.0.0, SVG Export Plug-In . SVG Version: 6.00 Build 0)  -->
<!DOCTYPE svg PUBLIC "-//W3C//DTD SVG 1.1//EN" "http://www.w3.org/Graphics/SVG/1.1/DTD/svg11.dtd">
<svg version="1.1" id="图层_1" xmlns="http://www.w3.org/2000/svg" xmlns:xlink="http://www.w3.org/1999/xlink" x="0px" y="0px"
	 width="512px" height="512px" viewBox="0 0 512 512" enable-background="new 0 0 512 512" xml:space="preserve">
<g>
	<path fill="#070001" d="M256,32C132.288,32,32,132.288,32,256s100.288,224,224,224s224-100.288,224-224S379.712,32,256,32z
		 M377.831,192.013L240.572,368.632c-0.182,0.234-0.382,0.458-0.592,0.672c-6.863,6.855-16.126,10.49-25.863,10.23
		c-0.364,0.01-0.725,0.017-1.089,0.017c-9.383,0-18.189-3.641-24.798-10.251l-53.497-49.208c-6.841-6.835-10.49-15.647-10.49-25.019
		c0-9.372,3.648-18.185,10.276-24.809c6.627-6.627,15.44-10.276,24.812-10.276c9.288,0,18.031,3.585,24.637,10.104l29.045,25.489
		l114.194-152.09c0.203-0.27,0.427-0.525,0.665-0.763c6.628-6.632,15.44-10.28,24.812-10.28c9.373,0,18.185,3.648,24.812,10.28
		C391.065,156.294,391.177,178.303,377.831,192.013z"/>
</g>
</svg>
