<?xml version="1.0" encoding="utf-8"?>
<!-- Generator: Adobe Illustrator 17.0.0, SVG Export Plug-In . SVG Version: 6.00 Build 0)  -->
<!DOCTYPE svg PUBLIC "-//W3C//DTD SVG 1.1//EN" "http://www.w3.org/Graphics/SVG/1.1/DTD/svg11.dtd">
<svg version="1.1" id="图层_1" xmlns="http://www.w3.org/2000/svg" xmlns:xlink="http://www.w3.org/1999/xlink" x="0px" y="0px"
	 width="512px" height="512px" viewBox="0 0 512 512" enable-background="new 0 0 512 512" xml:space="preserve">
<g>
	<circle fill="#070001" cx="103.094" cy="259.584" r="12.132"/>
	<path fill="#070001" d="M479.956,255.077c-0.815-8.826-4.424-16.83-10.451-23.145l-15.942-16.686
		c-12.356-12.962-26.003-15.531-33.639-15.928h-65.329c-0.094-0.498-0.181-1.227-0.181-2.259V64.921c0-0.325-0.015-0.65-0.044-0.967
		c-1.01-11.547-9.475-19.01-21.557-19.01h-40.343c-13.915,0-20.9,11.598-22.857,18.541l-22.532,82.556l-75.313,78.252
		c-2.43-18.983-18.513-33.759-38.147-33.759H70.641C49.335,190.534,32,207.87,32,229.175v198.022
		c0,21.312,17.335,38.647,38.641,38.647h62.984c21.305,0,38.641-17.335,38.641-38.647v-1.559l19.594,20.518
		c4.893,4.9,23.376,20.9,55.809,20.9h141.303h0.05c4.648-0.021,28.702-1.032,45.641-18.779l24.928-26.118
		c6.142-6.741,20.41-25.412,20.41-52.966V256.087C479.999,255.748,479.985,255.408,479.956,255.077z M133.623,443.673H70.641
		c-9.079,0-16.469-7.39-16.469-16.476V229.175c0-9.079,7.39-16.469,16.469-16.469h62.984c9.079,0,16.469,7.39,16.469,16.469v21.909
		c-0.002,0.063-0.035,0.119-0.036,0.182l-0.758,145.821c-0.007,1.443,0.269,2.856,0.794,4.171v25.939
		C150.093,436.283,142.703,443.673,133.623,443.673z M457.828,369.193c0,20.373-11.201,34.273-14.456,37.853l-24.747,25.924
		c-10.949,11.468-27.728,11.901-29.691,11.916H247.668c-24.516,0-37.716-11.987-39.939-14.203l-35.465-37.146V255.753l92.761-96.374
		c1.284-1.335,2.215-2.974,2.707-4.77l23.246-85.197c0.101-0.339,0.96-2.007,1.494-2.295h39.773V197.06
		c0,15.711,9.346,22.842,18.093,24.285c0.592,0.094,1.198,0.144,1.797,0.144l67.191-0.015c3.76,0.202,11.122,1.653,18.209,9.079
		l15.936,16.686c2.468,2.591,3.933,5.76,4.359,9.411V369.193z"/>
</g>
</svg>
